<?xml version="1.0" encoding="UTF-8"?>
<svg width="437px" height="805px" viewBox="0 0 437 805" version="1.1" xmlns="http://www.w3.org/2000/svg" xmlns:xlink="http://www.w3.org/1999/xlink">
    <!-- Generator: Sketch 58 (84663) - https://sketch.com -->
    <title>Path</title>
    <desc>Created with Sketch.</desc>
    <defs>
        <linearGradient x1="64.2760783%" y1="1.26670882%" x2="35.6392561%" y2="99.0223085%" id="linearGradient-1">
            <stop stop-color="#C67AFF" offset="0%"></stop>
            <stop stop-color="#5C38CA" offset="52.0434429%"></stop>
            <stop stop-color="#C67AFF" offset="100%"></stop>
        </linearGradient>
    </defs>
    <g id="Page-1" stroke="none" stroke-width="1" fill="none" fill-rule="evenodd">
        <g id="popup_referral" transform="translate(-165.000000, -159.000000)" fill="#39257B" stroke="url(#linearGradient-1)" stroke-width="2">
            <g id="Group-10">
                <g id="Group-11" transform="translate(166.000000, 160.000000)">
                    <path d="M232.30248,4.73336819 C223.117038,-0.613895593 211.780318,-0.613895593 202.594876,4.73336819 L107.88508,60.052932 L15.3024951,114.207228 C6.08412079,119.654566 0.424240052,129.587548 0.424240052,140.321496 L0.424240052,662.934795 C0.419825879,673.650851 6.07134301,683.568039 15.2780444,689 L202.570426,798.571987 C211.760335,803.91889 223.100346,803.91889 232.290255,798.571987 L419.594861,689 C428.795819,683.565502 434.438689,673.647162 434.42424,662.934795 L434.42424,140.321496 C434.403498,129.628183 428.768184,119.737106 419.594861,114.29309 L232.30248,4.73336819 Z" id="Path"></path>
                </g>
            </g>
        </g>
    </g>
</svg>