<svg xmlns="http://www.w3.org/2000/svg" width="125" height="73" viewBox="0 0 125 73">
    <g fill="none" fill-rule="evenodd" opacity=".5">
        <path fill="#EFEFEF" d="M48.86 14.9a8 8 0 0 0-2.93-3L29 2.08a8 8 0 0 0-8 0L4 11.94a8.09 8.09 0 0 0-4 7v19.71a8.09 8.09 0 0 0 4 7l17 9.85a8 8 0 0 0 8 0l17-9.86a8 8 0 0 0 2.93-3 8.11 8.11 0 0 0 1.08-4V18.93a8.14 8.14 0 0 0-1.15-4.03z"/>
        <path fill="#A7A3AD" d="M45.45 17.46l-15.59 9.07a8.88 8.88 0 0 0-4.4 7.68v18.14a2.48 2.48 0 0 0 3.71 2.17l16.29-9.47a7.55 7.55 0 0 0 3.72-6.49V19.62a2.49 2.49 0 0 0-3.73-2.16z"/>
        <path fill="#BEB9C6" d="M4.48 17.46a2.48 2.48 0 0 0-3.72 2.16v18.94a7.55 7.55 0 0 0 3.72 6.49l16.28 9.47a2.49 2.49 0 0 0 3.72-2.17V34.21a8.88 8.88 0 0 0-4.4-7.68l-15.6-9.07z"/>
        <path fill="#EFEFEF" d="M98.8 14.9a8.08 8.08 0 0 0-2.93-3l-17-9.86a8 8 0 0 0-8 0l-17 9.86a8 8 0 0 0-2.93 3 8.13 8.13 0 0 0-1.07 4v19.75a8.1 8.1 0 0 0 1.07 4 8 8 0 0 0 2.93 3l17 9.86a8 8 0 0 0 8 0l17-9.86a8.09 8.09 0 0 0 4-7V18.93a8.13 8.13 0 0 0-1.07-4.03z"/>
        <path fill="#A7A3AD" d="M95.39 17.46L79.8 26.53a8.87 8.87 0 0 0-4.41 7.68v18.14a2.49 2.49 0 0 0 3.72 2.17l16.28-9.47a7.49 7.49 0 0 0 3.72-6.49V19.62a2.48 2.48 0 0 0-3.72-2.16z"/>
        <path fill="#BEB9C6" d="M54.42 17.46a2.49 2.49 0 0 0-3.73 2.16v18.94a7.55 7.55 0 0 0 3.72 6.49l16.29 9.47a2.48 2.48 0 0 0 3.71-2.17V34.21A8.86 8.86 0 0 0 70 26.53l-15.58-9.07z"/>
        <path fill="#DFDEE0" d="M44.64 12.26L28.35 2.79a7.4 7.4 0 0 0-7.43 0L4.63 12.26a2.51 2.51 0 0 0 0 4.33l15.58 9.06a8.77 8.77 0 0 0 8.83 0l15.58-9.06a2.51 2.51 0 0 0 0-4.33h.02z"/>
        <path fill="#FFF" d="M13 14.07a15.42 15.42 0 0 1 2.1-7.89L4.63 12.26a2.51 2.51 0 0 0 0 4.33l11.2 6.51A15.54 15.54 0 0 1 13 14.07z"/>
        <path fill="#DFDEE0" d="M95 12.26L78.73 2.79a7.4 7.4 0 0 0-7.43 0L55 12.26a2.5 2.5 0 0 0 0 4.33l15.6 9.06a8.77 8.77 0 0 0 8.83 0L95 16.59a2.5 2.5 0 0 0 0-4.33z"/>
        <path fill="#FFF" d="M63.33 14.07a15.52 15.52 0 0 1 2.15-7.89L55 12.26a2.5 2.5 0 0 0 0 4.33l11.21 6.51a15.54 15.54 0 0 1-2.88-9.03z"/>
        <path fill="#EFEFEF" d="M73.83 30.63a8 8 0 0 0-2.93-2.95l-17-9.87a8 8 0 0 0-8 0L29 27.68a8 8 0 0 0-3 2.95 8.13 8.13 0 0 0-1.07 4v19.75a8.06 8.06 0 0 0 4 7l17 9.86a8 8 0 0 0 8 0l17-9.86a8.06 8.06 0 0 0 4-7V34.66a8.13 8.13 0 0 0-1.1-4.03z"/>
        <path fill="#A7A3AD" d="M70.42 33.19l-15.59 9.07a8.89 8.89 0 0 0-4.41 7.68v18.14a2.49 2.49 0 0 0 3.72 2.17l16.29-9.47A7.44 7.44 0 0 0 73.15 58a7.55 7.55 0 0 0 1-3.75v-18.9a2.48 2.48 0 0 0-3.73-2.16z"/>
        <path fill="#BEB9C6" d="M29.45 33.19a2.48 2.48 0 0 0-3.72 2.16v18.94a7.55 7.55 0 0 0 1 3.75 7.44 7.44 0 0 0 2.72 2.74l16.29 9.47a2.49 2.49 0 0 0 3.72-2.17V49.94A8.89 8.89 0 0 0 45 42.26l-15.55-9.07z"/>
        <path fill="#EFEFEF" d="M123.77 30.63a8 8 0 0 0-2.94-2.95l-17-9.87a8 8 0 0 0-8 0l-17 9.87A7.9 7.9 0 0 0 76 30.63a8 8 0 0 0-1.08 4v19.75a8.1 8.1 0 0 0 4 7l17 9.86a8 8 0 0 0 8 0l17-9.86a8 8 0 0 0 4-7V34.66a8.13 8.13 0 0 0-1.15-4.03z"/>
        <path fill="#A7A3AD" d="M120.36 33.19l-15.6 9.07a8.9 8.9 0 0 0-4.4 7.68v18.14a2.48 2.48 0 0 0 3.72 2.17l16.28-9.47a7.51 7.51 0 0 0 3.72-6.49V35.35a2.48 2.48 0 0 0-3.72-2.16z"/>
        <path fill="#BEB9C6" d="M79.39 33.19a2.49 2.49 0 0 0-3.73 2.16v18.94a7.56 7.56 0 0 0 1 3.75 7.44 7.44 0 0 0 2.72 2.74l16.28 9.47a2.48 2.48 0 0 0 3.72-2.17V49.94A8.9 8.9 0 0 0 95 42.26l-15.61-9.07z"/>
        <path fill="#DFDEE0" d="M69.6 28l-16.28-9.48a7.4 7.4 0 0 0-7.43 0L29.6 28a2.5 2.5 0 0 0 0 4.33l15.58 9.06a8.77 8.77 0 0 0 8.83 0l15.59-9.07a2.5 2.5 0 0 0 0-4.33V28z"/>
        <path fill="#FFF" d="M37.91 29.81a15.53 15.53 0 0 1 2.15-7.9L29.6 28a2.5 2.5 0 0 0 0 4.33l11.2 6.5a15.47 15.47 0 0 1-2.89-9.02z"/>
        <path fill="#DFDEE0" d="M120 28l-16.3-9.48a7.4 7.4 0 0 0-7.43 0L80 28a2.51 2.51 0 0 0 0 4.33l15.58 9.06a8.77 8.77 0 0 0 8.83 0L120 32.32a2.51 2.51 0 0 0 0-4.32z"/>
        <path fill="#FFF" d="M88.3 29.81a15.43 15.43 0 0 1 2.15-7.9L80 28a2.51 2.51 0 0 0 0 4.33l11.19 6.51a15.53 15.53 0 0 1-2.89-9.03z"/>
    </g>
</svg>
