<svg xmlns="http://www.w3.org/2000/svg" xmlns:xlink="http://www.w3.org/1999/xlink" width="495" height="379" viewBox="0 0 495 379">
    <defs>
        <path id="a" d="M0 0h495v395H0z"/>
    </defs>
    <g fill="none" fill-rule="evenodd" transform="translate(0 -16)">
        <mask id="b" fill="#fff">
            <use xlink:href="#a"/>
        </mask>
        <g mask="url(#b)">
            <path fill="#9F67EF" d="M122.82 61.81a13.35 13.35 0 0 0-4.82-4.88l-28-16.3a13.2 13.2 0 0 0-13.24 0l-28 16.3a13.33 13.33 0 0 0-6.62 11.55V413.7a13.38 13.38 0 0 0 1.77 6.66 13.2 13.2 0 0 0 4.85 4.88l28 16.3a13.14 13.14 0 0 0 13.24 0l28-16.3a13.2 13.2 0 0 0 4.85-4.88 13.38 13.38 0 0 0 1.77-6.66V68.48a13.42 13.42 0 0 0-1.8-6.67z"/>
            <path fill="#4922A6" d="M117.18 66.05L91.41 81a14.68 14.68 0 0 0-7.27 12.7v342.6a4.1 4.1 0 0 0 6.14 3.59l26.91-15.65a12.4 12.4 0 0 0 6.15-10.72V69.61a4.11 4.11 0 0 0-6.16-3.56z"/>
            <path fill="#6D44D6" d="M49.48 66.05a4.11 4.11 0 0 0-6.16 3.56v343.94a12.4 12.4 0 0 0 6.15 10.72l26.91 15.65a4.1 4.1 0 0 0 6.14-3.59V93.73A14.67 14.67 0 0 0 75.24 81L49.48 66.05z"/>
            <path fill="#AB6BF7" d="M115.83 57.46L88.92 41.8a12.25 12.25 0 0 0-12.28 0L49.72 57.46a4.14 4.14 0 0 0 0 7.15l25.75 15a14.54 14.54 0 0 0 14.6 0l25.74-15a4.14 4.14 0 0 0 0-7.15h.02z"/>
            <path fill="#9F67EF" d="M246.28 81.53a13.28 13.28 0 0 0-4.85-4.88l-28-16.3a13.2 13.2 0 0 0-13.24 0l-28 16.3a13.33 13.33 0 0 0-6.62 11.54v345.23a13.33 13.33 0 0 0 6.58 11.58l28 16.3a13.14 13.14 0 0 0 13.24 0l28-16.3a13.33 13.33 0 0 0 6.62-11.54V88.19a13.41 13.41 0 0 0-1.73-6.66z"/>
            <path fill="#4922A6" d="M240.64 85.77l-25.77 15a14.68 14.68 0 0 0-7.27 12.7v342.6a4.1 4.1 0 0 0 6.14 3.59L240.65 444a12.4 12.4 0 0 0 6.15-10.71V89.33a4.11 4.11 0 0 0-6.16-3.56z"/>
            <path fill="#6D44D6" d="M172.94 85.77a4.11 4.11 0 0 0-6.16 3.56v343.94a12.4 12.4 0 0 0 6.15 10.73l26.91 15.66a4.1 4.1 0 0 0 6.14-3.59V113.45a14.67 14.67 0 0 0-7.28-12.7l-25.76-14.98z"/>
            <path fill="#AB6BF7" d="M239.29 77.17l-26.91-15.65a12.25 12.25 0 0 0-12.28 0l-26.92 15.65a4.15 4.15 0 0 0 0 7.16l25.75 15a14.54 14.54 0 0 0 14.6 0l25.74-15a4.15 4.15 0 0 0 0-7.16h.02z"/>
            <path fill="#9F67EF" d="M328.8 39a13.35 13.35 0 0 0-4.8-4.92l-28-16.29a13.14 13.14 0 0 0-13.24 0l-28 16.29a13.33 13.33 0 0 0-6.62 11.55v345.22a13.33 13.33 0 0 0 6.62 11.55l28 16.29a13.14 13.14 0 0 0 13.24 0l28-16.29a13.33 13.33 0 0 0 6.62-11.55V45.63A13.45 13.45 0 0 0 328.8 39z"/>
            <path fill="#4922A6" d="M323.16 43.2l-25.76 15a14.67 14.67 0 0 0-7.28 12.69v342.6a4.1 4.1 0 0 0 6.14 3.58l26.91-15.65a12.4 12.4 0 0 0 6.15-10.72V46.77a4.11 4.11 0 0 0-6.16-3.57z"/>
            <path fill="#6D44D6" d="M255.46 43.2a4.1 4.1 0 0 0-6.15 3.57V390.7a12.36 12.36 0 0 0 6.14 10.72l26.91 15.65a4.1 4.1 0 0 0 6.14-3.58V70.88a14.68 14.68 0 0 0-7.27-12.69L255.46 43.2z"/>
            <path fill="#AB6BF7" d="M321.82 34.61L294.9 19a12.19 12.19 0 0 0-12.28 0l-26.91 15.61a4.14 4.14 0 0 0 0 7.15l25.74 15a14.49 14.49 0 0 0 14.6 0l25.75-15a4.14 4.14 0 0 0 0-7.15h.02z"/>
            <path fill="#9F67EF" d="M411.09 41.6a13.25 13.25 0 0 0-4.84-4.88l-28-16.3a13.15 13.15 0 0 0-13.25 0l-28 16.3a13.25 13.25 0 0 0-4.84 4.88 13.42 13.42 0 0 0-1.78 6.66v345.23a13.42 13.42 0 0 0 1.78 6.66A13.25 13.25 0 0 0 337 405l28 16.3a13.15 13.15 0 0 0 13.25 0l28-16.3a13.25 13.25 0 0 0 4.84-4.88 13.42 13.42 0 0 0 1.78-6.66V48.26a13.42 13.42 0 0 0-1.78-6.66z"/>
            <path fill="#4922A6" d="M405.46 45.84l-25.77 15a14.69 14.69 0 0 0-7.28 12.7v342.6a4.1 4.1 0 0 0 6.15 3.58l26.91-15.65a12.42 12.42 0 0 0 6.14-10.71V49.4a4.1 4.1 0 0 0-6.15-3.56z"/>
            <path fill="#6D44D6" d="M337.75 45.84a4.1 4.1 0 0 0-6.15 3.56v343.94a12.36 12.36 0 0 0 6.14 10.71l26.91 15.65a4.1 4.1 0 0 0 6.15-3.58V73.52a14.69 14.69 0 0 0-7.28-12.7l-25.77-14.98z"/>
            <path fill="#AB6BF7" d="M404.11 37.24L377.2 21.59a12.2 12.2 0 0 0-12.29 0L338 37.24a4.14 4.14 0 0 0 0 7.15l25.75 15a14.52 14.52 0 0 0 14.59 0l25.75-15a4.14 4.14 0 0 0 0-7.15h.02z"/>
            <path fill="#9F67EF" d="M492.62 75.26a13.35 13.35 0 0 0-4.85-4.88l-28-16.3a13.2 13.2 0 0 0-13.24 0l-28 16.3a13.33 13.33 0 0 0-6.62 11.54v345.23c0 2.336.61 4.632 1.77 6.66a13.2 13.2 0 0 0 4.85 4.88l28 16.3a13.14 13.14 0 0 0 13.24 0l28-16.3a13.2 13.2 0 0 0 4.85-4.88 13.41 13.41 0 0 0 1.77-6.66V81.92c0-2.336-.61-4.632-1.77-6.66z"/>
            <path fill="#4922A6" d="M487 79.5l-25.77 15a14.68 14.68 0 0 0-7.27 12.7v342.6a4.1 4.1 0 0 0 6.14 3.59l26.9-15.68a12.22 12.22 0 0 0 4.5-4.53 12.41 12.41 0 0 0 1.64-6.18V83.06A4.1 4.1 0 0 0 487 79.5z"/>
            <path fill="#6D44D6" d="M419.28 79.5a4.11 4.11 0 0 0-6.16 3.56V427c.001 2.169.57 4.3 1.65 6.18a12.22 12.22 0 0 0 4.5 4.53l26.91 15.66a4.1 4.1 0 0 0 6.14-3.59v-342.6a14.67 14.67 0 0 0-7.32-12.7L419.28 79.5z"/>
            <path fill="#AB6BF7" d="M485.63 70.9l-26.91-15.65a12.25 12.25 0 0 0-12.28 0L419.52 70.9a4.15 4.15 0 0 0 0 7.16l25.75 15a14.54 14.54 0 0 0 14.6 0l25.74-15a4.15 4.15 0 0 0 0-7.16h.02z"/>
            <path fill="#9F67EF" d="M451.8 145.38a13.32 13.32 0 0 0-4.8-4.88l-28-16.3a13.22 13.22 0 0 0-13.25 0l-28 16.3a13.38 13.38 0 0 0-6.62 11.55v345.22a13.42 13.42 0 0 0 6.62 11.55l28 16.29a13.15 13.15 0 0 0 13.25 0l28-16.29a13.42 13.42 0 0 0 6.62-11.55V152.05a13.43 13.43 0 0 0-1.82-6.67z"/>
            <path fill="#4922A6" d="M446.17 149.62l-25.77 15a14.69 14.69 0 0 0-7.28 12.7V519.9a4.11 4.11 0 0 0 6.15 3.59l26.91-15.65a12.42 12.42 0 0 0 6.14-10.72V153.19a4.1 4.1 0 0 0-6.15-3.57z"/>
            <path fill="#6D44D6" d="M378.46 149.62a4.1 4.1 0 0 0-6.15 3.57v343.93a12.42 12.42 0 0 0 6.14 10.72l26.91 15.65a4.11 4.11 0 0 0 6.15-3.59V177.3a14.69 14.69 0 0 0-7.28-12.7l-25.77-14.98z"/>
            <path fill="#AB6BF7" d="M444.82 141l-26.91-15.65a12.2 12.2 0 0 0-12.29 0L378.71 141a4.14 4.14 0 0 0 0 7.15l25.75 15a14.52 14.52 0 0 0 14.59 0l25.75-15a4.14 4.14 0 0 0 0-7.15h.02z"/>
            <path fill="#9F67EF" d="M492.34 210.86a13.32 13.32 0 0 0-4.84-4.86l-28-16.29a13.14 13.14 0 0 0-13.24 0l-28 16.29a13.38 13.38 0 0 0-6.62 11.55v345.2a13.38 13.38 0 0 0 6.62 11.55l28 16.29a13.14 13.14 0 0 0 13.24 0l28-16.29a13.35 13.35 0 0 0 6.61-11.55V217.53c0-2.34-.61-4.638-1.77-6.67z"/>
            <path fill="#4922A6" d="M486.71 215.1l-25.77 15a14.67 14.67 0 0 0-7.28 12.69v342.6a4.1 4.1 0 0 0 6.14 3.61l26.92-15.65a12.42 12.42 0 0 0 6.14-10.72V218.67a4.1 4.1 0 0 0-6.15-3.57z"/>
            <path fill="#6D44D6" d="M419 215.1a4.1 4.1 0 0 0-6.15 3.57V562.6a12.36 12.36 0 0 0 6.15 10.72L445.9 589a4.11 4.11 0 0 0 6.15-3.59V242.78a14.67 14.67 0 0 0-7.28-12.69L419 215.1z"/>
            <path fill="#AB6BF7" d="M485.36 206.51l-26.91-15.65a12.2 12.2 0 0 0-12.29 0l-26.91 15.65a4.14 4.14 0 0 0 0 7.15l25.75 15a14.48 14.48 0 0 0 14.59 0l25.75-15a4.14 4.14 0 0 0 0-7.15h.02z"/>
            <path fill="#9F67EF" d="M204.79 61.81a13.35 13.35 0 0 0-4.85-4.88l-28-16.3a13.2 13.2 0 0 0-13.24 0l-28 16.3a13.33 13.33 0 0 0-6.7 11.55V413.7a13.38 13.38 0 0 0 1.77 6.66 13.2 13.2 0 0 0 4.85 4.88l28 16.3a13.14 13.14 0 0 0 13.24 0l28-16.3a13.2 13.2 0 0 0 4.85-4.88 13.38 13.38 0 0 0 1.77-6.66V68.48a13.42 13.42 0 0 0-1.69-6.67z"/>
            <path fill="#4922A6" d="M199.15 66.05L173.39 81a14.67 14.67 0 0 0-7.28 12.7v342.6a4.1 4.1 0 0 0 6.14 3.59l26.91-15.65a12.4 12.4 0 0 0 6.15-10.72V69.61a4.11 4.11 0 0 0-6.16-3.56z"/>
            <path fill="#6D44D6" d="M131.45 66.05a4.11 4.11 0 0 0-6.16 3.56v343.94a12.4 12.4 0 0 0 6.15 10.72l26.91 15.65a4.1 4.1 0 0 0 6.14-3.59V93.73A14.68 14.68 0 0 0 157.22 81l-25.77-14.95z"/>
            <path fill="#AB6BF7" d="M197.81 57.46L170.89 41.8a12.25 12.25 0 0 0-12.28 0L131.7 57.46a4.13 4.13 0 0 0 0 7.15l25.74 15a14.54 14.54 0 0 0 14.6 0l25.75-15a4.14 4.14 0 0 0 0-7.15h.02z"/>
            <path fill="#9F67EF" d="M287.31 63.37a13.28 13.28 0 0 0-4.85-4.88l-28-16.3a13.14 13.14 0 0 0-13.24 0l-28 16.3A13.33 13.33 0 0 0 206.56 70v345.26a13.33 13.33 0 0 0 6.62 11.54l28 16.3a13.14 13.14 0 0 0 13.24 0l28-16.3a13.33 13.33 0 0 0 6.62-11.54V70a13.41 13.41 0 0 0-1.73-6.63z"/>
            <path fill="#4922A6" d="M281.68 67.6l-25.77 15a14.67 14.67 0 0 0-7.28 12.7v342.6a4.1 4.1 0 0 0 6.14 3.58l26.92-15.65a12.27 12.27 0 0 0 4.49-4.53 12.43 12.43 0 0 0 1.65-6.19V71.17a4.11 4.11 0 0 0-6.15-3.57z"/>
            <path fill="#6D44D6" d="M214 67.6a4.1 4.1 0 0 0-6.15 3.57V415.1a12.36 12.36 0 0 0 6.15 10.72l26.91 15.65a4.1 4.1 0 0 0 6.14-3.58V95.29a14.68 14.68 0 0 0-7.27-12.7L214 67.6z"/>
            <path fill="#AB6BF7" d="M280.33 59l-26.92-15.64a12.19 12.19 0 0 0-12.28 0L214.22 59a4.14 4.14 0 0 0 0 7.15l25.75 15a14.52 14.52 0 0 0 14.59 0l25.75-15a4.14 4.14 0 0 0 0-7.15h.02z"/>
            <path fill="#9F67EF" d="M369.83 105.93a13.32 13.32 0 0 0-4.83-4.88l-28-16.29a13.14 13.14 0 0 0-13.24 0l-28 16.29a13.38 13.38 0 0 0-6.62 11.55v345.22a13.38 13.38 0 0 0 6.62 11.55l28 16.29a13.14 13.14 0 0 0 13.24 0l28-16.29a13.35 13.35 0 0 0 6.61-11.55V112.6a13.45 13.45 0 0 0-1.78-6.67z"/>
            <path fill="#4922A6" d="M364.2 110.17l-25.77 15a14.67 14.67 0 0 0-7.28 12.69v342.6a4.1 4.1 0 0 0 6.14 3.58l26.92-15.65a12.42 12.42 0 0 0 6.14-10.72V113.74a4.1 4.1 0 0 0-6.15-3.57z"/>
            <path fill="#6D44D6" d="M296.49 110.17a4.1 4.1 0 0 0-6.15 3.57v343.93a12.36 12.36 0 0 0 6.14 10.72L323.39 484a4.11 4.11 0 0 0 6.15-3.58V137.85a14.67 14.67 0 0 0-7.28-12.69l-25.77-14.99z"/>
            <path fill="#AB6BF7" d="M362.85 101.58l-26.91-15.65a12.2 12.2 0 0 0-12.29 0l-26.91 15.65a4.14 4.14 0 0 0 0 7.15l25.75 15a14.48 14.48 0 0 0 14.59 0l25.75-15a4.14 4.14 0 0 0 0-7.15h.02z"/>
            <path fill="#9F67EF" d="M163.53 130.64a13.28 13.28 0 0 0-4.85-4.88l-28-16.3a13.14 13.14 0 0 0-13.24 0l-28 16.3a13.33 13.33 0 0 0-6.62 11.54v345.23a13.33 13.33 0 0 0 6.62 11.54l28 16.3a13.14 13.14 0 0 0 13.24 0l28-16.3a13.33 13.33 0 0 0 6.62-11.54V137.3c0-2.336-.61-4.632-1.77-6.66z"/>
            <path fill="#4922A6" d="M157.89 134.88l-25.76 15a14.67 14.67 0 0 0-7.28 12.7v342.6a4.09 4.09 0 0 0 6.14 3.58l26.91-15.65a12.4 12.4 0 0 0 6.15-10.71V138.44a4.11 4.11 0 0 0-6.16-3.56z"/>
            <path fill="#6D44D6" d="M90.19 134.88a4.11 4.11 0 0 0-6.19 3.56v343.94a12.4 12.4 0 0 0 6.15 10.71l26.91 15.65a4.09 4.09 0 0 0 6.14-3.58v-342.6a14.67 14.67 0 0 0-7.28-12.7l-25.73-14.98z"/>
            <path fill="#AB6BF7" d="M156.54 126.28l-26.91-15.65a12.19 12.19 0 0 0-12.28 0l-26.92 15.65a4.14 4.14 0 0 0 0 7.15l25.75 15a14.54 14.54 0 0 0 14.6 0l25.74-15a4.14 4.14 0 0 0 0-7.15h.02z"/>
            <path fill="#9F67EF" d="M246.05 130.64a13.28 13.28 0 0 0-4.85-4.88l-28-16.3a13.14 13.14 0 0 0-13.24 0l-28 16.3a13.33 13.33 0 0 0-6.62 11.54v345.23a13.33 13.33 0 0 0 6.62 11.54l28 16.3a13.14 13.14 0 0 0 13.24 0l28-16.3a13.33 13.33 0 0 0 6.62-11.54V137.3c0-2.336-.61-4.632-1.77-6.66z"/>
            <path fill="#4922A6" d="M240.42 134.88l-25.77 15a14.67 14.67 0 0 0-7.28 12.7v342.6a4.09 4.09 0 0 0 6.14 3.58l26.91-15.65a12.22 12.22 0 0 0 4.5-4.53 12.42 12.42 0 0 0 1.65-6.18V138.44a4.1 4.1 0 0 0-6.15-3.56z"/>
            <path fill="#6D44D6" d="M172.71 134.88a4.1 4.1 0 0 0-6.15 3.56v343.94a12.36 12.36 0 0 0 6.14 10.71l26.91 15.65a4.09 4.09 0 0 0 6.14-3.58v-342.6a14.68 14.68 0 0 0-7.27-12.7l-25.77-14.98z"/>
            <path fill="#AB6BF7" d="M239.07 126.28l-26.92-15.65a12.19 12.19 0 0 0-12.28 0L173 126.28a4.14 4.14 0 0 0 0 7.15l25.74 15a14.54 14.54 0 0 0 14.6 0l25.75-15a4.14 4.14 0 0 0 0-7.15h-.02z"/>
            <path fill="#9F67EF" d="M328.57 130.64a13.25 13.25 0 0 0-4.84-4.88l-28-16.3a13.14 13.14 0 0 0-13.24 0l-28 16.3a13.25 13.25 0 0 0-4.84 4.88 13.42 13.42 0 0 0-1.78 6.66v345.23a13.42 13.42 0 0 0 1.78 6.66 13.25 13.25 0 0 0 4.84 4.88l28 16.3a13.14 13.14 0 0 0 13.24 0l28-16.3a13.25 13.25 0 0 0 4.84-4.88 13.41 13.41 0 0 0 1.77-6.66V137.3c0-2.336-.61-4.632-1.77-6.66z"/>
            <path fill="#4922A6" d="M322.94 134.88l-25.77 15a14.69 14.69 0 0 0-7.28 12.7v342.6a4.09 4.09 0 0 0 6.14 3.58L323 493.09a12.27 12.27 0 0 0 4.49-4.53 12.42 12.42 0 0 0 1.65-6.18V138.44a4.1 4.1 0 0 0-6.2-3.56z"/>
            <path fill="#6D44D6" d="M255.23 134.88a4.1 4.1 0 0 0-6.15 3.56v343.94a12.36 12.36 0 0 0 6.14 10.71l26.91 15.65a4.09 4.09 0 0 0 6.14-3.58v-342.6a14.68 14.68 0 0 0-7.27-12.7l-25.77-14.98z"/>
            <path fill="#AB6BF7" d="M321.59 126.28l-26.91-15.65a12.2 12.2 0 0 0-12.29 0l-26.91 15.65a4.14 4.14 0 0 0 0 7.15l25.75 15a14.52 14.52 0 0 0 14.59 0l25.75-15a4.14 4.14 0 0 0 0-7.15h.02z"/>
            <path fill="#9F67EF" d="M80.75 86.42a13.28 13.28 0 0 0-4.85-4.88l-28-16.3a13.2 13.2 0 0 0-13.24 0l-28 16.3A13.33 13.33 0 0 0 0 93.08v345.23a13.33 13.33 0 0 0 6.62 11.54l28 16.3a13.14 13.14 0 0 0 13.24 0l28-16.3a13.33 13.33 0 0 0 6.62-11.54V93.08a13.41 13.41 0 0 0-1.73-6.66z"/>
            <path fill="#4922A6" d="M75.11 90.66l-25.76 15a14.67 14.67 0 0 0-7.28 12.7v342.6a4.1 4.1 0 0 0 6.14 3.59l26.91-15.66a12.4 12.4 0 0 0 6.15-10.71V94.22a4.11 4.11 0 0 0-6.16-3.56z"/>
            <path fill="#6D44D6" d="M7.41 90.66a4.11 4.11 0 0 0-6.16 3.56v343.94a12.4 12.4 0 0 0 6.15 10.71l26.91 15.66a4.1 4.1 0 0 0 6.14-3.59v-342.6a14.68 14.68 0 0 0-7.27-12.7L7.41 90.66z"/>
            <path fill="#AB6BF7" d="M73.77 82.06L46.85 66.41a12.25 12.25 0 0 0-12.28 0L7.66 82.06a4.14 4.14 0 0 0 0 7.16l25.74 15a14.54 14.54 0 0 0 14.6 0l25.75-15a4.15 4.15 0 0 0 0-7.16h.02z"/>
            <path fill="#9F67EF" d="M122.27 201.14a13.28 13.28 0 0 0-4.85-4.88L89.4 180a13.14 13.14 0 0 0-13.24 0l-28 16.3a13.33 13.33 0 0 0-6.62 11.54V553a13.33 13.33 0 0 0 6.62 11.54l28 16.3a13.2 13.2 0 0 0 13.24 0l28-16.3A13.33 13.33 0 0 0 124 553V207.8a13.41 13.41 0 0 0-1.73-6.66z"/>
            <path fill="#4922A6" d="M116.63 205.37l-25.77 15a14.68 14.68 0 0 0-7.27 12.7v342.6a4.1 4.1 0 0 0 6.14 3.58l26.91-15.65a12.3 12.3 0 0 0 4.5-4.53 12.43 12.43 0 0 0 1.65-6.19V208.94a4.11 4.11 0 0 0-6.16-3.57z"/>
            <path fill="#6D44D6" d="M48.93 205.37a4.11 4.11 0 0 0-6.16 3.57v343.93c0 2.172.569 4.306 1.65 6.19a12.3 12.3 0 0 0 4.5 4.53l26.91 15.65a4.1 4.1 0 0 0 6.17-3.58v-342.6a14.67 14.67 0 0 0-7.28-12.7l-25.79-14.99z"/>
            <path fill="#AB6BF7" d="M115.28 196.78l-26.91-15.65a12.19 12.19 0 0 0-12.28 0l-26.92 15.65a4.14 4.14 0 0 0 0 7.15l25.75 15a14.54 14.54 0 0 0 14.6 0l25.74-15a4.14 4.14 0 0 0 0-7.15h.02z"/>
            <path fill="#9F67EF" d="M204.79 201.14a13.28 13.28 0 0 0-4.85-4.88l-28-16.3a13.14 13.14 0 0 0-13.24 0l-28 16.3a13.33 13.33 0 0 0-6.7 11.54V553a13.33 13.33 0 0 0 6.62 11.54l28 16.3a13.2 13.2 0 0 0 13.24 0l28-16.3a13.33 13.33 0 0 0 6.7-11.54V207.8c0-2.336-.61-4.632-1.77-6.66z"/>
            <path fill="#4922A6" d="M199.15 205.37l-25.76 15a14.67 14.67 0 0 0-7.28 12.7v342.6a4.1 4.1 0 0 0 6.14 3.58l26.91-15.65a12.3 12.3 0 0 0 4.5-4.53 12.43 12.43 0 0 0 1.65-6.19V208.94a4.11 4.11 0 0 0-6.16-3.57z"/>
            <path fill="#6D44D6" d="M131.45 205.37a4.11 4.11 0 0 0-6.16 3.57v343.93c0 2.172.569 4.306 1.65 6.19a12.3 12.3 0 0 0 4.5 4.53l26.91 15.65a4.1 4.1 0 0 0 6.14-3.58v-342.6a14.68 14.68 0 0 0-7.27-12.7l-25.77-14.99z"/>
            <path fill="#AB6BF7" d="M197.81 196.78l-26.92-15.65a12.19 12.19 0 0 0-12.28 0l-26.91 15.65a4.13 4.13 0 0 0 0 7.15l25.74 15a14.54 14.54 0 0 0 14.6 0l25.75-15a4.14 4.14 0 0 0 0-7.15h.02z"/>
            <path fill="#9F67EF" d="M287.31 201.14a13.28 13.28 0 0 0-4.85-4.88l-28-16.3a13.14 13.14 0 0 0-13.24 0l-28 16.3a13.33 13.33 0 0 0-6.62 11.54V553a13.33 13.33 0 0 0 6.62 11.54l28 16.3a13.2 13.2 0 0 0 13.24 0l28-16.3a13.33 13.33 0 0 0 6.62-11.54V207.8c0-2.336-.61-4.632-1.77-6.66z"/>
            <path fill="#4922A6" d="M281.68 205.37l-25.77 15a14.67 14.67 0 0 0-7.28 12.7v342.6a4.1 4.1 0 0 0 6.14 3.58l26.92-15.65a12.27 12.27 0 0 0 4.49-4.53 12.43 12.43 0 0 0 1.65-6.19V208.94a4.11 4.11 0 0 0-6.15-3.57z"/>
            <path fill="#6D44D6" d="M214 205.37a4.1 4.1 0 0 0-6.15 3.57v343.93a12.36 12.36 0 0 0 6.15 10.72l26.91 15.65a4.1 4.1 0 0 0 6.14-3.58v-342.6a14.68 14.68 0 0 0-7.27-12.7L214 205.37z"/>
            <path fill="#AB6BF7" d="M280.33 196.78l-26.92-15.65a12.19 12.19 0 0 0-12.28 0l-26.91 15.65a4.14 4.14 0 0 0 0 7.15l25.75 15a14.52 14.52 0 0 0 14.59 0l25.75-15a4.14 4.14 0 0 0 0-7.15h.02z"/>
            <path fill="#9F67EF" d="M410.65 211.14a13.28 13.28 0 0 0-4.85-4.88l-28-16.3a13.14 13.14 0 0 0-13.24 0l-28 16.3a13.33 13.33 0 0 0-6.62 11.54V563a13.33 13.33 0 0 0 6.62 11.54l28 16.3a13.2 13.2 0 0 0 13.24 0l28-16.3a13.33 13.33 0 0 0 6.62-11.54V217.8c0-2.336-.61-4.632-1.77-6.66z"/>
            <path fill="#4922A6" d="M405 215.37l-25.77 15a14.68 14.68 0 0 0-7.27 12.7v342.6a4.1 4.1 0 0 0 6.14 3.58l26.9-15.66a12.36 12.36 0 0 0 6.14-10.72V218.94a4.1 4.1 0 0 0-6.14-3.57z"/>
            <path fill="#6D44D6" d="M337.3 215.37a4.11 4.11 0 0 0-6.15 3.57v343.93c0 2.172.569 4.306 1.65 6.19a12.27 12.27 0 0 0 4.49 4.53l26.92 15.65a4.1 4.1 0 0 0 6.14-3.58v-342.6a14.67 14.67 0 0 0-7.28-12.7l-25.77-14.99z"/>
            <path fill="#AB6BF7" d="M403.66 206.78l-26.91-15.65a12.2 12.2 0 0 0-12.29 0l-26.91 15.65a4.14 4.14 0 0 0 0 7.15l25.75 15a14.52 14.52 0 0 0 14.59 0l25.75-15a4.14 4.14 0 0 0 0-7.15h.02z"/>
            <path fill="#9F67EF" d="M369.28 330a13.32 13.32 0 0 0-4.84-4.88l-28-16.29a13.14 13.14 0 0 0-13.24 0l-28 16.29a13.38 13.38 0 0 0-6.62 11.55v246.14a13.42 13.42 0 0 0 1.78 6.66 13.25 13.25 0 0 0 4.84 4.88l28 16.3a13.14 13.14 0 0 0 13.24 0l28-16.3a13.25 13.25 0 0 0 4.84-4.88 13.41 13.41 0 0 0 1.77-6.66V336.69a13.45 13.45 0 0 0-1.77-6.69z"/>
            <path fill="#4922A6" d="M363.65 334.26l-25.77 15a14.67 14.67 0 0 0-7.28 12.69v243.5a4.1 4.1 0 0 0 6.14 3.58l26.92-15.65a12.27 12.27 0 0 0 4.49-4.53 12.43 12.43 0 0 0 1.65-6.19V337.83a4.1 4.1 0 0 0-6.15-3.57z"/>
            <path fill="#6D44D6" d="M295.94 334.26a4.1 4.1 0 0 0-6.15 3.57v244.82a12.36 12.36 0 0 0 6.14 10.72L322.84 609a4.1 4.1 0 0 0 6.15-3.58V361.94a14.67 14.67 0 0 0-7.28-12.69l-25.77-14.99z"/>
            <path fill="#AB6BF7" d="M362.3 325.67L335.39 310a12.2 12.2 0 0 0-12.29 0l-26.91 15.65a4.14 4.14 0 0 0 0 7.15l25.75 15a14.48 14.48 0 0 0 14.59 0l25.75-15a4.14 4.14 0 0 0 0-7.15l.02.02z"/>
            <path fill="#9F67EF" d="M163.53 277.5a13.35 13.35 0 0 0-4.85-4.88l-28-16.3a13.2 13.2 0 0 0-13.24 0l-28 16.3a13.33 13.33 0 0 0-6.62 11.55v293.75a13.33 13.33 0 0 0 6.62 11.54l28 16.3a13.14 13.14 0 0 0 13.24 0l28-16.3a13.33 13.33 0 0 0 6.62-11.54V284.17a13.42 13.42 0 0 0-1.77-6.67z"/>
            <path fill="#4922A6" d="M157.89 281.74l-25.76 15a14.67 14.67 0 0 0-7.28 12.7v291.11a4.1 4.1 0 0 0 6.14 3.58l26.91-15.65a12.3 12.3 0 0 0 4.5-4.53 12.43 12.43 0 0 0 1.65-6.19V285.3a4.11 4.11 0 0 0-6.16-3.56z"/>
            <path fill="#6D44D6" d="M90.19 281.74A4.11 4.11 0 0 0 84 285.3v292.46c0 2.192.58 4.344 1.68 6.24a12.3 12.3 0 0 0 4.5 4.53l26.91 15.65a4.1 4.1 0 0 0 6.14-3.58V309.42a14.67 14.67 0 0 0-7.28-12.7l-25.76-14.98z"/>
            <path fill="#AB6BF7" d="M156.54 273.15l-26.91-15.66a12.25 12.25 0 0 0-12.28 0l-26.92 15.66a4.14 4.14 0 0 0 0 7.15l25.75 15a14.54 14.54 0 0 0 14.6 0l25.74-15a4.14 4.14 0 0 0 0-7.15h.02z"/>
            <path fill="#9F67EF" d="M246.05 277.5a13.35 13.35 0 0 0-4.85-4.88l-28-16.3a13.2 13.2 0 0 0-13.24 0l-28 16.3a13.33 13.33 0 0 0-6.62 11.55v293.75a13.33 13.33 0 0 0 6.62 11.54l28 16.3a13.14 13.14 0 0 0 13.24 0l28-16.3a13.33 13.33 0 0 0 6.62-11.54V284.17a13.42 13.42 0 0 0-1.77-6.67z"/>
            <path fill="#4922A6" d="M240.42 281.74l-25.77 15a14.67 14.67 0 0 0-7.28 12.7v291.11a4.1 4.1 0 0 0 6.14 3.58l26.91-15.65a12.22 12.22 0 0 0 4.5-4.53 12.43 12.43 0 0 0 1.65-6.19V285.3a4.1 4.1 0 0 0-6.15-3.56z"/>
            <path fill="#6D44D6" d="M172.71 281.74a4.1 4.1 0 0 0-6.15 3.56v292.46a12.36 12.36 0 0 0 6.14 10.72l26.91 15.65a4.1 4.1 0 0 0 6.14-3.58V309.42a14.68 14.68 0 0 0-7.27-12.7l-25.77-14.98z"/>
            <path fill="#AB6BF7" d="M239.07 273.15l-26.92-15.66a12.25 12.25 0 0 0-12.28 0L173 273.15a4.14 4.14 0 0 0 0 7.15l25.74 15a14.54 14.54 0 0 0 14.6 0l25.75-15a4.14 4.14 0 0 0 0-7.15h-.02z"/>
            <path fill="#9F67EF" d="M81 277.5a13.35 13.35 0 0 0-4.85-4.88l-28-16.3a13.2 13.2 0 0 0-13.24 0l-28 16.3a13.33 13.33 0 0 0-6.65 11.55v293.75a13.33 13.33 0 0 0 6.62 11.54l28 16.3a13.14 13.14 0 0 0 13.24 0l28-16.3a13.33 13.33 0 0 0 6.62-11.54V284.17A13.42 13.42 0 0 0 81 277.5z"/>
            <path fill="#4922A6" d="M75.37 281.74l-25.77 15a14.68 14.68 0 0 0-7.27 12.7v291.11a4.1 4.1 0 0 0 6.14 3.58l26.91-15.65a12.36 12.36 0 0 0 6.14-10.72V285.3a4.1 4.1 0 0 0-6.15-3.56z"/>
            <path fill="#6D44D6" d="M7.66 281.74a4.1 4.1 0 0 0-6.15 3.56v292.46A12.43 12.43 0 0 0 3.16 584a12.22 12.22 0 0 0 4.5 4.53l26.91 15.65a4.1 4.1 0 0 0 6.14-3.58V309.42a14.67 14.67 0 0 0-7.28-12.7L7.66 281.74z"/>
            <path fill="#AB6BF7" d="M74 273.15l-26.89-15.66a12.27 12.27 0 0 0-12.29 0L7.91 273.15a4.14 4.14 0 0 0 0 7.15l25.75 15a14.52 14.52 0 0 0 14.59 0l25.75-15a4.14 4.14 0 0 0 0-7.15z"/>
        </g>
    </g>
</svg>
