<svg xmlns="http://www.w3.org/2000/svg" width="191" height="70" viewBox="0 0 191 70">
    <defs>
        <linearGradient id="a" x1="50.002%" x2="50.002%" y1=".374%" y2="99.594%">
            <stop offset="0%" stop-color="#8955E8"/>
            <stop offset="50.15%" stop-color="#5D38D4"/>
            <stop offset="100%" stop-color="#4B2CAE"/>
        </linearGradient>
    </defs>
    <g fill="none" fill-rule="evenodd">
        <path fill="#C6ADDF" d="M190.9 38.1c-.1.5-.3.9-.5 1.4l-16 27.3c-.9 1.5-2.5 2.4-4.2 2.4H20.9c-1.7 0-3.3-.9-4.2-2.4L.7 39.5c-.2-.4-.4-.9-.5-1.4H0v-6h2.2L16.8 7.5c.8-1.5 2.4-2.4 4.1-2.4h149.3c1.7 0 3.3.9 4.2 2.4l14.4 24.6h2.2v6h-.1z"/>
        <path fill="url(#a)" d="M189 30.4L172.6 3.1c-.6-1-1.8-1.6-3-1.6H21.4c-1.2 0-2.4.6-3 1.6L2.1 30.4c-.3.5-.4 1-.4 1.6 0 .6.2 1.1.4 1.6l16.4 27.3c.6 1 1.8 1.6 3 1.6h148.1c1.2 0 2.4-.6 3-1.6L189 33.6c.3-.5.4-1 .4-1.6 0-.6-.1-1.1-.4-1.6z"/>
        <path fill="#E9D0FF" fill-rule="nonzero" d="M169.6 64H21.4c-1.8 0-3.4-.9-4.3-2.4L.8 34.4C.4 33.7.1 32.9.1 32c0-.8.2-1.6.7-2.4L17.2 2.4C18.1.9 19.7 0 21.5 0h148.1c1.8 0 3.4.9 4.3 2.4l16.4 27.3c.4.7.7 1.5.7 2.4 0 .8-.2 1.6-.7 2.4l-16.4 27.1c-.9 1.5-2.6 2.4-4.3 2.4zM21.4 3c-.7 0-1.4.4-1.7.9L3.3 31.2c-.1.2-.2.5-.2.8 0 .3.1.6.2.8l16.4 27.3c.3.6 1 .9 1.7.9h148.1c.7 0 1.4-.4 1.7-.9l16.4-27.3c.1-.2.2-.5.2-.8 0-.3-.1-.6-.2-.8L171.3 3.9c-.3-.6-1-.9-1.7-.9H21.4z"/>
    </g>
</svg>
