<svg xmlns="http://www.w3.org/2000/svg" width="111" height="126" viewBox="0 0 111 126">
    <defs>
        <linearGradient id="a" x1="49.997%" x2="49.997%" y1=".772%" y2="100.002%">
            <stop offset="0%" stop-color="#8955E8"/>
            <stop offset="50.15%" stop-color="#5D38D4"/>
            <stop offset="100%" stop-color="#4B2CAE"/>
        </linearGradient>
    </defs>
    <g fill="none" fill-rule="evenodd">
        <path fill="#C6ADDF" d="M59.6 125c-1.2.7-2.7 1-4.1 1-1.4 0-2.9-.4-4.1-1L4.1 99.1c-2.5-1.4-4.1-4-4.1-6.7V40.6c0-2.8 1.6-5.3 4.1-6.7L51.4 8c1.2-.7 2.7-1 4.1-1 1.4 0 2.9.4 4.1 1l47.3 25.9c2.5 1.4 4.1 4 4.1 6.7v51.7c0 2.8-1.6 5.3-4.1 6.7l-47.3 26z"/>
        <path fill="url(#a)" d="M58.9 117.6l47.3-25.9c2.1-1.1 3.3-3.2 3.3-5.4V34.6c0-2.2-1.3-4.3-3.3-5.4L58.9 3.4c-1-.6-2.2-.9-3.4-.9-1.2 0-2.4.3-3.4.9L4.8 29.2c-2.1 1.1-3.3 3.2-3.3 5.4v51.7c0 2.2 1.3 4.3 3.3 5.4l47.3 25.9c1 .6 2.2.9 3.4.9 1.2 0 2.4-.3 3.4-.9z"/>
        <path fill="#E9D0FF" fill-rule="nonzero" d="M55.5 120c-1.4 0-2.9-.4-4.1-1L4.1 93.1c-2.5-1.4-4.1-4-4.1-6.7V34.6c0-2.8 1.6-5.3 4.1-6.7L51.4 2C53.9.6 57.1.6 59.6 2l47.3 25.9c2.5 1.4 4.1 4 4.1 6.7v51.7c0 2.8-1.6 5.3-4.1 6.7l-47.3 26c-1.2.6-2.7 1-4.1 1zm0-116c-.9 0-1.9.2-2.7.7L5.5 30.5C4 31.4 3 33 3 34.6v51.7c0 1.7 1 3.2 2.5 4.1l47.3 25.9c1.6.9 3.7.9 5.3 0l47.3-25.9c1.6-.9 2.5-2.4 2.5-4.1V34.6c0-1.7-1-3.2-2.5-4.1L58.2 4.7c-.8-.5-1.8-.7-2.7-.7z"/>
    </g>
</svg>
