<svg xmlns="http://www.w3.org/2000/svg" width="114" height="70" viewBox="0 0 114 70">
    <defs>
        <linearGradient id="a" x1="50.016%" x2="50.016%" y1=".37%" y2="99.59%">
            <stop offset="0%" stop-color="#8955E8"/>
            <stop offset="50.15%" stop-color="#5D38D4"/>
            <stop offset="100%" stop-color="#4B2CAE"/>
        </linearGradient>
    </defs>
    <g fill="none" fill-rule="evenodd">
        <path fill="#C6ADDF" d="M113.3 38.5c-.1.5-.3.9-.5 1.4l-16 27.3c-.9 1.5-2.5 2.4-4.2 2.4H21.1c-1.7 0-3.3-.9-4.2-2.4L.9 39.9c-.2-.4-.4-.9-.5-1.4H.2v-6h2.2L17 7.9c.8-1.5 2.4-2.4 4.1-2.4h71.5c1.7 0 3.3.9 4.2 2.4l14.4 24.6h2.2v6h-.1z"/>
        <path fill="url(#a)" d="M111.4 30.8L95 3.5c-.6-1-1.8-1.6-3-1.6H21.6c-1.2 0-2.4.6-3 1.6L2.3 30.8c-.3.5-.4 1-.4 1.6 0 .6.2 1.1.4 1.6l16.4 27.3c.6 1 1.8 1.6 3 1.6H92c1.2 0 2.4-.6 3-1.6L111.4 34c.3-.5.4-1 .4-1.6 0-.6-.1-1.1-.4-1.6z"/>
        <path fill="#E9D0FF" fill-rule="nonzero" d="M92 64.4H21.6c-1.8 0-3.4-.9-4.3-2.4L1 34.8c-.4-.7-.7-1.5-.7-2.4 0-.8.2-1.6.7-2.4L17.4 2.8c.9-1.5 2.5-2.4 4.3-2.4H92c1.8 0 3.4.9 4.3 2.4l16.4 27.3c.4.7.7 1.5.7 2.4 0 .8-.2 1.6-.7 2.4L96.3 62c-.9 1.5-2.6 2.4-4.3 2.4zm-70.4-61c-.7 0-1.4.4-1.7.9L3.5 31.6c-.1.2-.2.5-.2.8 0 .3.1.6.2.8l16.4 27.3c.3.6 1 .9 1.7.9h70.3c.7 0 1.4-.4 1.7-.9L110 33.2c.1-.2.2-.5.2-.8 0-.3-.1-.6-.2-.8L93.7 4.3c-.3-.6-1-.9-1.7-.9H21.6z"/>
    </g>
</svg>
