<?xml version="1.0" encoding="UTF-8"?>
<svg width="191px" height="70px" viewBox="0 0 191 70" version="1.1" xmlns="http://www.w3.org/2000/svg" xmlns:xlink="http://www.w3.org/1999/xlink">
    <!-- Generator: Sketch 58 (84663) - https://sketch.com -->
    <title>btn_5_n</title>
    <desc>Created with Sketch.</desc>
    <defs>
        <linearGradient x1="50.0021843%" y1="0.37442623%" x2="50.0021843%" y2="99.5944262%" id="linearGradient-1">
            <stop stop-color="#8955E8" offset="0%"></stop>
            <stop stop-color="#5D38D4" offset="50.15%"></stop>
            <stop stop-color="#4B2CAE" offset="100%"></stop>
        </linearGradient>
    </defs>
    <g id="Page-1" stroke="none" stroke-width="1" fill="none" fill-rule="evenodd">
        <g id="popup_report" transform="translate(-289.000000, -579.000000)">
            <g id="Group-10">
                <g id="Group" transform="translate(166.000000, 160.000000)">
                    <g id="btn_5_n" transform="translate(123.000000, 419.000000)">
                        <path d="M190.9,38.1 C190.8,38.6 190.6,39 190.4,39.5 L174.4,66.8 C173.5,68.3 171.9,69.2 170.2,69.2 L20.9,69.2 C19.2,69.2 17.6,68.3 16.7,66.8 L0.7,39.5 C0.5,39.1 0.3,38.6 0.2,38.1 L0,38.1 L0,32.1 L2.2,32.1 L16.8,7.5 C17.6,6 19.2,5.1 20.9,5.1 L170.2,5.1 C171.9,5.1 173.5,6 174.4,7.5 L188.8,32.1 L191,32.1 L191,38.1 L190.9,38.1 Z" id="Combined-Shape" fill="#C6ADDF"></path>
                        <path d="M189,30.4 L172.6,3.1 C172,2.1 170.8,1.5 169.6,1.5 L21.4,1.5 C20.2,1.5 19,2.1 18.4,3.1 L2.1,30.4 C1.8,30.9 1.7,31.4 1.7,32 C1.7,32.6 1.9,33.1 2.1,33.6 L18.5,60.9 C19.1,61.9 20.3,62.5 21.5,62.5 L169.6,62.5 C170.8,62.5 172,61.9 172.6,60.9 L189,33.6 C189.3,33.1 189.4,32.6 189.4,32 C189.4,31.4 189.3,30.9 189,30.4 Z" id="Fill-12-Copy" fill="url(#linearGradient-1)"></path>
                        <g id="Fill-12-Copy_1_" fill="#E9D0FF" fill-rule="nonzero">
                            <path d="M169.6,64 L21.4,64 C19.6,64 18,63.1 17.1,61.6 L0.8,34.4 C0.4,33.7 0.1,32.9 0.1,32 C0.1,31.2 0.3,30.4 0.8,29.6 L17.2,2.4 C18.1,0.9 19.7,0 21.5,0 L169.6,0 C171.4,0 173,0.9 173.9,2.4 L190.3,29.7 C190.7,30.4 191,31.2 191,32.1 C191,32.9 190.8,33.7 190.3,34.5 L173.9,61.6 C173,63.1 171.3,64 169.6,64 Z M21.4,3 C20.7,3 20,3.4 19.7,3.9 L3.3,31.2 C3.2,31.4 3.1,31.7 3.1,32 C3.1,32.3 3.2,32.6 3.3,32.8 L19.7,60.1 C20,60.7 20.7,61 21.4,61 L169.5,61 C170.2,61 170.9,60.6 171.2,60.1 L187.6,32.8 C187.7,32.6 187.8,32.3 187.8,32 C187.8,31.7 187.7,31.4 187.6,31.2 L171.3,3.9 C171,3.3 170.3,3 169.6,3 L21.4,3 Z" id="Shape"></path>
                        </g>
                    </g>
                </g>
            </g>
        </g>
    </g>
</svg>