<svg xmlns="http://www.w3.org/2000/svg" width="118" height="70" viewBox="0 0 118 70">
    <defs>
        <linearGradient id="a" x1="50.257%" x2="50.257%" y1=".41%" y2="99.409%">
            <stop offset="0%" stop-color="#8955E8"/>
            <stop offset="50%" stop-color="#5D38D4"/>
            <stop offset="100%" stop-color="#4B2CAE"/>
        </linearGradient>
    </defs>
    <g fill="none" fill-rule="evenodd">
        <path fill="#C6ADDF" d="M117 38.1a7.84 7.84 0 0 1-.5 1.4l-16 27.3a4.91 4.91 0 0 1-4.2 2.4H20.9a4.91 4.91 0 0 1-4.2-2.4L.7 39.5a5.78 5.78 0 0 1-.5-1.4H0v-6h2.2L16.8 7.5a4.63 4.63 0 0 1 4.1-2.4h75.35a4.91 4.91 0 0 1 4.2 2.4l14.4 24.6h2.2v6H117z"/>
        <path fill="url(#a)" d="M115.05 31.4L98.65 4.1a3.53 3.53 0 0 0-3-1.6H21.4a3.53 3.53 0 0 0-3 1.6L2.1 31.4a2.93 2.93 0 0 0-.4 1.6 4.19 4.19 0 0 0 .4 1.6l16.4 27.3a3.53 3.53 0 0 0 3 1.6h74.15a3.53 3.53 0 0 0 3-1.6l16.4-27.3a3.4 3.4 0 0 0 0-3.2z" transform="translate(0 -1)"/>
        <path fill="#E9D0FF" fill-rule="nonzero" d="M95.65 64H21.4a5 5 0 0 1-4.3-2.4L.8 34.4A4.81 4.81 0 0 1 .1 32a4.42 4.42 0 0 1 .7-2.4L17.2 2.4A5.002 5.002 0 0 1 21.5 0h74.15A5.002 5.002 0 0 1 100 2.4l16.4 27.3a4.81 4.81 0 0 1 .7 2.4 4.42 4.42 0 0 1-.7 2.4L100 61.6a5.07 5.07 0 0 1-4.35 2.4zM21.4 3a2.07 2.07 0 0 0-1.7.9L3.3 31.2a1.7 1.7 0 0 0 0 1.6l16.4 27.3a1.85 1.85 0 0 0 1.7.9h74.15a2.07 2.07 0 0 0 1.7-.9l16.4-27.3a1.7 1.7 0 0 0 0-1.6L97.35 3.9a1.85 1.85 0 0 0-1.7-.9H21.4z"/>
    </g>
</svg>
