<svg xmlns="http://www.w3.org/2000/svg" width="62" height="73" viewBox="0 0 62 73">
    <g fill="none" fill-rule="evenodd">
        <path fill="#67329C" d="M57.9 18.21L35.1 6.31c-2.5-1.3-5.7-1.3-8.3 0L4.1 18.21c-2.5 1.4-4.1 3.8-4.1 6.5v28.1c0 2.7 1.6 5.1 4.1 6.5l22.8 11.9c1.3.7 2.7 1 4.1 1 1.4 0 2.9-.3 4.1-1l22.8-11.9c2.5-1.3 4.1-3.8 4.1-6.5v-28.1c0-2.7-1.6-5.1-4.1-6.5z"/>
        <path fill="#45319C" d="M57.4 14.71L34.7 2.81c-2.3-1.2-5.1-1.2-7.3 0L4.6 14.71c-2.2 1.2-3.6 3.3-3.6 5.6v28.1c0 2.3 1.4 4.4 3.6 5.6l22.8 11.9c2.3 1.2 5.1 1.2 7.3 0l22.8-11.9c2.2-1.2 3.6-3.3 3.6-5.6v-28.1c-.1-2.3-1.5-4.4-3.7-5.6z"/>
        <path fill="#B16DF5" fill-rule="nonzero" d="M31 67.81c-1.4 0-2.9-.3-4.1-1l-22.8-12c-2.5-1.3-4.1-3.8-4.1-6.4v-28.1c0-2.7 1.6-5.1 4.1-6.5l22.8-11.9c2.5-1.3 5.7-1.3 8.3 0l22.7 11.9c2.5 1.3 4.1 3.8 4.1 6.5v28.1c0 2.7-1.6 5.1-4.1 6.5l-22.8 11.9c-1.2.7-2.7 1-4.1 1zm0-64.9c-1.1 0-2.2.3-3.2.8L5 15.61c-1.9 1-3 2.8-3 4.7v28.1c0 1.9 1.2 3.7 3 4.7l22.8 11.9c2 1 4.4 1 6.4 0L57 53.11c1.9-1 3-2.8 3-4.7v-28.1c0-1.9-1.2-3.7-3-4.7L34.2 3.71c-1-.6-2.1-.8-3.2-.8z"/>
        <path fill="#FFF" d="M46.4 48.31l-14.3-14.3 14.3-14.3-1.9-1.9-14.3 14.3-14.3-14.3-1.9 1.9 14.3 14.3L14 48.31l1.9 1.9 14.3-14.3 14.3 14.3z"/>
    </g>
</svg>
