<svg xmlns="http://www.w3.org/2000/svg" width="66" height="57" viewBox="0 0 66 57">
    <g fill="#FFA3A3" fill-rule="evenodd">
        <path d="M7.244 34.523l-6.429-26 14.489 14.165L27.958-.046 30.78 8l-5.829 7.633L32 21.523l-7.049 4.984L32 31.655l-3.093 2.868zM8.046 42.57H33l-8.681 5.16L33 52.872l-2.282.65-22.672.332z"/>
        <path d="M29.905 47.258L39 43.523 53.816 46l-1.729 10.799-17-2.799 1.875-.477zM36.528 34.733l19.117 2.675L65.93 13.48 49.548 25.444l-8.451-24.32 1.08 7.399-6.87 7.015 5.79 6.72L33 26.328l7.349 6.1z"/>
    </g>
</svg>
