<?xml version="1.0" encoding="UTF-8"?>
<svg width="25px" height="25px" viewBox="0 0 25 25" version="1.1" xmlns="http://www.w3.org/2000/svg" xmlns:xlink="http://www.w3.org/1999/xlink">
    <!-- Generator: Sketch 58 (84663) - https://sketch.com -->
    <title>eos copy 9</title>
    <desc>Created with Sketch.</desc>
    <g id="Page-1" stroke="none" stroke-width="1" fill="none" fill-rule="evenodd">
        <g id="mainpage_home" transform="translate(-511.000000, -25.000000)">
            <g id="eos" transform="translate(511.000000, 25.000000)">
                <g id="Group">
                    <circle id="Oval-Copy-26" fill="#FFEC72" cx="12.5" cy="12.5" r="12.5"></circle>
                    <g id="eos2" transform="translate(2.777778, 1.388889)" fill-rule="nonzero">
                        <polygon id="Shape-path" fill="#FFFFFF" points="9.72222222 -3.55271368e-15 2.89855072 7.17592593 0 17.7314815 9.72222222 22.2222222 19.4444444 17.7314815 16.5458937 7.12962963"></polygon>
                        <path d="M9.72222222,-3.55271368e-15 L2.89855072,7.17592593 L0,17.7314815 L9.72222222,22.2222222 L19.4444444,17.7314815 L16.5458937,7.12962963 L9.72222222,-3.55271368e-15 Z M5.55555556,7.5621345 L9.72222222,2.77777778 L13.8888889,7.5621345 L9.72222222,18.0555556 L5.55555556,7.5621345 Z M14.9717514,9.72222222 L16.6666667,16.6269841 L11.1111111,19.4444444 L14.9717514,9.72222222 Z M2.77777778,16.6269841 L4.47269303,9.72222222 L8.33333333,19.4444444 L2.77777778,16.6269841 Z" id="Shape" fill="#433D1D"></path>
                    </g>
                </g>
            </g>
        </g>
    </g>
</svg>