<?xml version="1.0" encoding="UTF-8"?>
<svg width="101px" height="86px" viewBox="0 0 101 86" version="1.1" xmlns="http://www.w3.org/2000/svg" xmlns:xlink="http://www.w3.org/1999/xlink">
    <!-- Generator: Sketch 58 (84663) - https://sketch.com -->
    <title>Group 11</title>
    <desc>Created with Sketch.</desc>
    <g id="Page-1" stroke="none" stroke-width="1" fill="none" fill-rule="evenodd">
        <g id="popup_draw" transform="translate(-252.000000, -420.000000)">
            <g id="Group-11" transform="translate(252.000000, 420.000000)">
                <path d="M18.7428586,29.5 C18.7428586,17.294375 28.6469496,7.375 40.8337677,7.375 C44.5524041,7.375 48.0869496,8.296875 51.1428586,9.95625 L56.5183132,4.5725 C51.9896768,1.69625 46.6142223,0 40.8337677,0 C24.5601314,0 11.3792223,13.20125 11.3792223,29.5 L0.333767734,29.5 L15.0610405,44.25 L29.7883132,29.5 L18.7428586,29.5 Z" id="Path" fill="#B8C8FF" fill-rule="nonzero"></path>
                <g id="Group-9" transform="translate(29.333768, 14.000000)">
                    <g id="Group-10">
                        <ellipse id="Oval-Copy" fill="#AFA03F" cx="35.5" cy="39.5" rx="35.5" ry="32.5"></ellipse>
                        <ellipse id="Oval" fill="#FFEC72" cx="35.5" cy="32.5" rx="35.5" ry="32.5"></ellipse>
                        <ellipse id="Oval" fill="#CBA05B" cx="35.5" cy="32.5" rx="26.5" ry="24.5"></ellipse>
                        <ellipse id="Oval" fill="#FFC972" cx="35.5" cy="32.5" rx="24.5" ry="22.5"></ellipse>
                    </g>
                </g>
            </g>
        </g>
    </g>
</svg>