<?xml version="1.0" encoding="UTF-8"?>
<svg width="402px" height="580px" viewBox="0 0 402 580" version="1.1" xmlns="http://www.w3.org/2000/svg" xmlns:xlink="http://www.w3.org/1999/xlink">
    <!-- Generator: Sketch 58 (84663) - https://sketch.com -->
    <title>Group 14</title>
    <desc>Created with Sketch.</desc>
    <defs>
        <linearGradient x1="30.9992996%" y1="11.0579782%" x2="64.7203885%" y2="80.1683592%" id="linearGradient-1">
            <stop stop-color="#1B1464" offset="0%"></stop>
            <stop stop-color="#3B2976" offset="50%"></stop>
            <stop stop-color="#251A6C" offset="100%"></stop>
        </linearGradient>
        <linearGradient x1="36.8775902%" y1="21.4837217%" x2="59.1359632%" y2="72.5565955%" id="linearGradient-2">
            <stop stop-color="#F4D58D" offset="0%"></stop>
            <stop stop-color="#D64645" offset="100%"></stop>
        </linearGradient>
    </defs>
    <g id="Page-1" stroke="none" stroke-width="1" fill="none" fill-rule="evenodd">
        <g id="popup_loss" transform="translate(-183.000000, -211.000000)">
            <g id="Group-14" transform="translate(185.000000, 213.000000)">
                <path d="M212.6441,3.66390884 C204.220584,-1.22130295 193.824238,-1.22130295 185.400722,3.66390884 L98.5470377,54.2033616 L13.6441141,103.678236 C5.19039754,108.654875 0,117.729557 0,127.535995 L0,448.419428 C-0.00404801981,458.209519 5.17867967,467.269772 13.6216916,472.232363 L185.378299,572.336339 C193.805912,577.22122 204.205276,577.22122 212.632889,572.336339 L384.400708,472.232363 C392.838453,467.267455 398.013251,458.206149 398,448.419428 L398,127.535995 C397.980979,117.766681 392.81311,108.730283 384.400708,103.756679 L212.6441,3.66390884 Z" id="Path" stroke="url(#linearGradient-2)" stroke-width="3" fill="url(#linearGradient-1)"></path>
                <polygon id="Combined-Shape-Copy-9" fill="#180F39" points="355 487.6 319 508.6 312.5 478 327 490.5"></polygon>
                <polygon id="Combined-Shape-Copy-10" fill="#765BFF" points="355 487.6 327 490.4 312.5 478 328.1 485.5"></polygon>
                <polygon id="Combined-Shape" fill="#180F39" points="44 88.8 79.7 68 97.3 111.6 72.1 85.6"></polygon>
                <polygon id="Combined-Shape-Copy-8" fill="#765BFF" points="44 88.8 72.1 85.5 97.3 111.5 71.4 91"></polygon>
                <g id="Group-11" transform="translate(33.356000, 465.784000)">
                    <path d="M329.73,0.216 L167.506052,94.8466537 C166.795014,95.2505004 165.991527,95.4637032 165.173931,95.4637032 C164.339589,95.4604324 163.520445,95.2400543 162.796961,94.8242155 L0.644,0.216 L329.73,0.216 Z" id="Combined-Shape" fill="#5C38D2" opacity="0.206194196"></path>
                    <g id="Group-17-Copy-3" transform="translate(154.644000, 10.216000)" fill="#FFFFFF" fill-rule="nonzero">
                        <path d="M4.48,15.16 L6.54,15.16 L6.54,3.18 L10.52,3.18 L10.52,1.46 L0.46,1.46 L0.46,3.18 L4.48,3.18 L4.48,15.16 Z M12.64,15.16 L14.72,15.16 L14.72,1.46 L12.64,1.46 L12.64,15.16 Z M17.98,15.16 L20.04,15.16 L20.04,9.88 L22.68,9.88 C25.38,9.88 27.18,8.4 27.18,5.58 C27.18,2.94 25.64,1.46 22.5,1.46 L17.98,1.46 L17.98,15.16 Z M20.04,8.26 L20.04,3.14 L22.32,3.14 C24.28,3.14 25,3.88 25,5.74 C25,7.42 24.26,8.26 22.28,8.26 L20.04,8.26 Z" id="TIP"></path>
                    </g>
                    <path d="M114,38.016 L115.872,38.016 L115.872,42.768 L121.408,42.768 L121.408,38.016 L123.264,38.016 L123.264,49.216 L121.408,49.216 L121.408,44.4 L115.872,44.4 L115.872,49.216 L114,49.216 L114,38.016 Z M126.576,40.336 C126.213332,40.336 125.922668,40.2266678 125.704,40.008 C125.485332,39.7893322 125.376,39.509335 125.376,39.168 C125.376,38.826665 125.485332,38.5466678 125.704,38.328 C125.922668,38.1093322 126.213332,38 126.576,38 C126.938668,38 127.231999,38.1093322 127.456,38.328 C127.680001,38.5466678 127.792,38.826665 127.792,39.168 C127.792,39.509335 127.680001,39.7893322 127.456,40.008 C127.231999,40.2266678 126.938668,40.336 126.576,40.336 Z M125.664,41.232 L127.504,41.232 L127.504,49.216 L125.664,49.216 L125.664,41.232 Z M132.768,52.464 C131.967996,52.464 131.301336,52.2400022 130.768,51.792 C130.234664,51.3439978 129.941334,50.7520037 129.888,50.016 L131.696,50.016 C131.728,50.282668 131.842666,50.4959992 132.04,50.656 C132.237334,50.8160008 132.479999,50.896 132.768,50.896 L134.176,50.896 C134.581335,50.896 134.903999,50.7440015 135.144,50.44 C135.384001,50.1359985 135.504,49.7280026 135.504,49.216 L135.504,48.304 C135.279999,48.5600013 135.005335,48.7679992 134.68,48.928 C134.354665,49.0880008 134.037335,49.168 133.728,49.168 L132.608,49.168 C131.690662,49.168 130.94667,48.8826695 130.376,48.312 C129.80533,47.7413305 129.52,46.9920046 129.52,46.064 L129.52,44.352 C129.52,43.7119968 129.653332,43.1466691 129.92,42.656 C130.186668,42.1653309 130.562664,41.7840014 131.048,41.512 C131.533336,41.2399986 132.090664,41.104 132.72,41.104 L133.712,41.104 C134.074668,41.104 134.431998,41.1919991 134.784,41.368 C135.136002,41.5440009 135.413332,41.7759986 135.616,42.064 L135.616,41.232 L137.344,41.232 L137.344,49.216 C137.344,50.208005 137.05867,50.9973304 136.488,51.584 C135.91733,52.1706696 135.146672,52.464 134.176,52.464 L132.768,52.464 Z M133.824,47.6 C134.282669,47.6 134.666665,47.4186685 134.976,47.056 C135.285335,46.6933315 135.461333,46.2240029 135.504,45.648 L135.504,44.256 C135.461333,43.797331 135.296001,43.4213348 135.008,43.128 C134.719999,42.8346652 134.373335,42.688 133.968,42.688 L132.864,42.688 C132.415998,42.688 132.053335,42.850665 131.776,43.176 C131.498665,43.501335 131.36,43.930664 131.36,44.464 L131.36,45.952 C131.36,46.4426691 131.485332,46.8399985 131.736,47.144 C131.986668,47.4480015 132.314665,47.6 132.72,47.6 L133.824,47.6 Z M139.392,38.016 L141.232,38.016 L141.232,42.128 C141.477335,41.8186651 141.778665,41.5706676 142.136,41.384 C142.493335,41.1973324 142.842665,41.104 143.184,41.104 L144.208,41.104 C145.029337,41.104 145.687998,41.3653307 146.184,41.888 C146.680002,42.4106693 146.928,43.0986624 146.928,43.952 L146.928,49.216 L145.088,49.216 L145.088,44 C145.088,43.6159981 144.989334,43.3040012 144.792,43.064 C144.594666,42.8239988 144.336002,42.704 144.016,42.704 L142.992,42.704 C142.575998,42.704 142.202668,42.8586651 141.872,43.168 C141.541332,43.4773349 141.328,43.8826642 141.232,44.384 L141.232,49.216 L139.392,49.216 L139.392,38.016 Z M151.84,49.344 C151.18933,49.344 150.616002,49.2213346 150.12,48.976 C149.623998,48.7306654 149.240001,48.3840022 148.968,47.936 C148.695999,47.4879978 148.56,46.9706696 148.56,46.384 L148.56,44.24 C148.56,43.6213302 148.695999,43.074669 148.968,42.6 C149.240001,42.125331 149.623998,41.7573346 150.12,41.496 C150.616002,41.2346654 151.18933,41.104 151.84,41.104 L153.12,41.104 C154.090672,41.104 154.86933,41.3866638 155.456,41.952 C156.04267,42.5173362 156.336,43.2693286 156.336,44.208 L156.336,45.808 L150.4,45.808 L150.4,46.384 C150.4,46.8106688 150.530665,47.1519987 150.792,47.408 C151.053335,47.6640013 151.402664,47.792 151.84,47.792 L153.072,47.792 C153.498669,47.792 153.842665,47.688001 154.104,47.48 C154.365335,47.271999 154.496,46.997335 154.496,46.656 L156.304,46.656 C156.304,47.4666707 156.005336,48.1173309 155.408,48.608 C154.810664,49.0986691 154.026672,49.344 153.056,49.344 L151.84,49.344 Z M154.528,44.432 L154.528,44.208 C154.528,43.7386643 154.400001,43.3600014 154.144,43.072 C153.887999,42.7839986 153.552002,42.64 153.136,42.64 L151.84,42.64 C151.402664,42.64 151.048001,42.7919985 150.776,43.096 C150.503999,43.4000015 150.368,43.7973309 150.368,44.288 L150.368,44.432 L154.528,44.432 Z M157.984,41.232 L159.696,41.232 L159.696,42.32 C159.909334,41.9893317 160.215998,41.720001 160.616,41.512 C161.016002,41.303999 161.429331,41.2 161.856,41.2 L162.816,41.2 L162.816,42.8 L161.856,42.8 C161.247997,42.8 160.757335,42.9866648 160.384,43.36 C160.010665,43.7333352 159.824,44.2186637 159.824,44.816 L159.824,49.216 L157.984,49.216 L157.984,41.232 Z M171.36,49.344 C170.378662,49.344 169.592003,49.0613362 169,48.496 C168.407997,47.9306638 168.112,47.1840046 168.112,46.256 L168.112,44.24 C168.112,43.6213302 168.245332,43.074669 168.512,42.6 C168.778668,42.125331 169.157331,41.7573346 169.648,41.496 C170.138669,41.2346654 170.703997,41.104 171.344,41.104 L172.624,41.104 C173.541338,41.104 174.279997,41.3679974 174.84,41.896 C175.400003,42.4240026 175.68,43.1199957 175.68,43.984 L173.872,43.984 C173.872,43.5999981 173.757334,43.2880012 173.528,43.048 C173.298666,42.8079988 172.997335,42.688 172.624,42.688 L171.36,42.688 C170.943998,42.688 170.605335,42.8426651 170.344,43.152 C170.082665,43.4613349 169.952,43.8613309 169.952,44.352 L169.952,46.144 C169.952,46.6240024 170.082665,47.0133318 170.344,47.312 C170.605335,47.6106682 170.949331,47.76 171.376,47.76 L172.64,47.76 C173.034669,47.76 173.351999,47.6160014 173.592,47.328 C173.832001,47.0399986 173.952,46.666669 173.952,46.208 L175.76,46.208 C175.76,47.1466714 175.47467,47.9039971 174.904,48.48 C174.33333,49.0560029 173.578671,49.344 172.64,49.344 L171.36,49.344 Z M177.264,38.016 L179.104,38.016 L179.104,42.128 C179.349335,41.8186651 179.650665,41.5706676 180.008,41.384 C180.365335,41.1973324 180.714665,41.104 181.056,41.104 L182.08,41.104 C182.901337,41.104 183.559998,41.3653307 184.056,41.888 C184.552002,42.4106693 184.8,43.0986624 184.8,43.952 L184.8,49.216 L182.96,49.216 L182.96,44 C182.96,43.6159981 182.861334,43.3040012 182.664,43.064 C182.466666,42.8239988 182.208002,42.704 181.888,42.704 L180.864,42.704 C180.447998,42.704 180.074668,42.8586651 179.744,43.168 C179.413332,43.4773349 179.2,43.8826642 179.104,44.384 L179.104,49.216 L177.264,49.216 L177.264,38.016 Z M189.2,49.344 C188.389329,49.344 187.736002,49.1386687 187.24,48.728 C186.743998,48.3173313 186.496,47.7706701 186.496,47.088 L186.496,46.512 C186.496,45.8399966 186.754664,45.3013354 187.272,44.896 C187.789336,44.4906646 188.469329,44.288 189.312,44.288 L190.304,44.288 C190.602668,44.288 190.922665,44.3306662 191.264,44.416 C191.605335,44.5013338 191.909332,44.6133326 192.176,44.752 L192.176,43.76 C192.176,43.4293317 192.069334,43.1626677 191.856,42.96 C191.642666,42.7573323 191.365335,42.656 191.024,42.656 L189.68,42.656 C189.327998,42.656 189.045334,42.7386658 188.832,42.904 C188.618666,43.0693342 188.512,43.285332 188.512,43.552 L186.72,43.552 C186.72,42.8159963 186.991997,42.2240022 187.536,41.776 C188.080003,41.3279978 188.794662,41.104 189.68,41.104 L191.024,41.104 C191.920004,41.104 192.639997,41.3466642 193.184,41.832 C193.728003,42.3173358 194,42.959996 194,43.76 L194,49.216 L192.288,49.216 L192.288,48.208 C192.031999,48.549335 191.712002,48.823999 191.328,49.032 C190.943998,49.240001 190.565335,49.344 190.192,49.344 L189.2,49.344 Z M190.304,47.904 C190.730669,47.904 191.114665,47.7840012 191.456,47.544 C191.797335,47.3039988 192.037333,46.9866686 192.176,46.592 L192.176,46.208 C191.994666,46.0586659 191.738668,45.9386671 191.408,45.848 C191.077332,45.7573329 190.730668,45.712 190.368,45.712 L189.36,45.712 C189.039998,45.712 188.781334,45.7919992 188.584,45.952 C188.386666,46.1120008 188.288,46.3199987 188.288,46.576 L188.288,47.024 C188.288,47.290668 188.389332,47.5039992 188.592,47.664 C188.794668,47.8240008 189.061332,47.904 189.392,47.904 L190.304,47.904 Z M195.952,41.232 L197.664,41.232 L197.664,42.272 C197.898668,41.9199982 198.207998,41.6373344 198.592,41.424 C198.976002,41.2106656 199.359998,41.104 199.744,41.104 L200.736,41.104 C201.557337,41.104 202.215998,41.3653307 202.712,41.888 C203.208002,42.4106693 203.456,43.0986624 203.456,43.952 L203.456,49.216 L201.616,49.216 L201.616,44 C201.616,43.6159981 201.517334,43.3040012 201.32,43.064 C201.122666,42.8239988 200.864002,42.704 200.544,42.704 L199.552,42.704 C199.135998,42.704 198.762668,42.8613318 198.432,43.176 C198.101332,43.4906682 197.888,43.8933309 197.792,44.384 L197.792,49.216 L195.952,49.216 L195.952,41.232 Z M205.408,41.232 L207.12,41.232 L207.12,42.272 C207.354668,41.9199982 207.663998,41.6373344 208.048,41.424 C208.432002,41.2106656 208.815998,41.104 209.2,41.104 L210.192,41.104 C211.013337,41.104 211.671998,41.3653307 212.168,41.888 C212.664002,42.4106693 212.912,43.0986624 212.912,43.952 L212.912,49.216 L211.072,49.216 L211.072,44 C211.072,43.6159981 210.973334,43.3040012 210.776,43.064 C210.578666,42.8239988 210.320002,42.704 210,42.704 L209.008,42.704 C208.591998,42.704 208.218668,42.8613318 207.888,43.176 C207.557332,43.4906682 207.344,43.8933309 207.248,44.384 L207.248,49.216 L205.408,49.216 L205.408,41.232 Z M217.824,49.344 C217.17333,49.344 216.600002,49.2213346 216.104,48.976 C215.607998,48.7306654 215.224001,48.3840022 214.952,47.936 C214.679999,47.4879978 214.544,46.9706696 214.544,46.384 L214.544,44.24 C214.544,43.6213302 214.679999,43.074669 214.952,42.6 C215.224001,42.125331 215.607998,41.7573346 216.104,41.496 C216.600002,41.2346654 217.17333,41.104 217.824,41.104 L219.104,41.104 C220.074672,41.104 220.85333,41.3866638 221.44,41.952 C222.02667,42.5173362 222.32,43.2693286 222.32,44.208 L222.32,45.808 L216.384,45.808 L216.384,46.384 C216.384,46.8106688 216.514665,47.1519987 216.776,47.408 C217.037335,47.6640013 217.386664,47.792 217.824,47.792 L219.056,47.792 C219.482669,47.792 219.826665,47.688001 220.088,47.48 C220.349335,47.271999 220.48,46.997335 220.48,46.656 L222.288,46.656 C222.288,47.4666707 221.989336,48.1173309 221.392,48.608 C220.794664,49.0986691 220.010672,49.344 219.04,49.344 L217.824,49.344 Z M220.512,44.432 L220.512,44.208 C220.512,43.7386643 220.384001,43.3600014 220.128,43.072 C219.871999,42.7839986 219.536002,42.64 219.12,42.64 L217.824,42.64 C217.386664,42.64 217.032001,42.7919985 216.76,43.096 C216.487999,43.4000015 216.352,43.7973309 216.352,44.288 L216.352,44.432 L220.512,44.432 Z M226.544,49.216 C225.647996,49.216 224.994669,49.0266686 224.584,48.648 C224.173331,48.2693314 223.968,47.6693374 223.968,46.848 L223.968,38.016 L225.808,38.016 L225.808,46.768 C225.808,47.0773349 225.871999,47.298666 226,47.432 C226.128001,47.565334 226.341332,47.632 226.64,47.632 L227.408,47.632 L227.408,49.216 L226.544,49.216 Z M227.536,50.56 L227.936,50.224 C228.512003,49.7439976 228.8,49.1466702 228.8,48.432 L228.8,47.456 L230.64,47.456 L230.64,48.432 C230.64,49.7760067 230.144005,50.8159963 229.152,51.552 L228.688,51.904 L227.536,50.56 Z M137.68,56.016 L139.376,56.016 L143.152,62.928 L146.832,56.016 L148.528,56.016 L148.528,67.216 L146.688,67.216 L146.688,59.488 L144.048,64.384 C143.898666,64.6400013 143.754667,64.8239994 143.616,64.936 C143.477333,65.0480006 143.322668,65.104 143.152,65.104 L142.624,65.104 L139.504,59.488 L139.504,67.216 L137.68,67.216 L137.68,56.016 Z M153.584,67.344 C152.602662,67.344 151.813336,67.0586695 151.216,66.488 C150.618664,65.9173305 150.32,65.1626714 150.32,64.224 L150.32,62.24 C150.32,61.6213302 150.455999,61.074669 150.728,60.6 C151.000001,60.125331 151.383998,59.7573346 151.88,59.496 C152.376002,59.2346654 152.94933,59.104 153.6,59.104 L155.008,59.104 C155.65867,59.104 156.231998,59.2346654 156.728,59.496 C157.224002,59.7573346 157.607999,60.125331 157.88,60.6 C158.152001,61.074669 158.288,61.6213302 158.288,62.24 L158.288,64.224 C158.288,65.1626714 157.98667,65.9173305 157.384,66.488 C156.78133,67.0586695 155.978672,67.344 154.976,67.344 L153.584,67.344 Z M154.96,65.76 C155.408002,65.76 155.767999,65.6080015 156.04,65.304 C156.312001,64.9999985 156.448,64.6026691 156.448,64.112 L156.448,62.336 C156.448,61.8453309 156.314668,61.4480015 156.048,61.144 C155.781332,60.8399985 155.424002,60.688 154.976,60.688 L153.632,60.688 C153.183998,60.688 152.826668,60.8399985 152.56,61.144 C152.293332,61.4480015 152.16,61.8453309 152.16,62.336 L152.16,64.112 C152.16,64.6026691 152.293332,64.9999985 152.56,65.304 C152.826668,65.6080015 153.173331,65.76 153.6,65.76 L154.96,65.76 Z M160.016,59.232 L161.728,59.232 L161.728,60.32 C161.941334,59.9893317 162.247998,59.720001 162.648,59.512 C163.048002,59.303999 163.461331,59.2 163.888,59.2 L164.848,59.2 L164.848,60.8 L163.888,60.8 C163.279997,60.8 162.789335,60.9866648 162.416,61.36 C162.042665,61.7333352 161.856,62.2186637 161.856,62.816 L161.856,67.216 L160.016,67.216 L160.016,59.232 Z M168.96,67.344 C168.30933,67.344 167.736002,67.2213346 167.24,66.976 C166.743998,66.7306654 166.360001,66.3840022 166.088,65.936 C165.815999,65.4879978 165.68,64.9706696 165.68,64.384 L165.68,62.24 C165.68,61.6213302 165.815999,61.074669 166.088,60.6 C166.360001,60.125331 166.743998,59.7573346 167.24,59.496 C167.736002,59.2346654 168.30933,59.104 168.96,59.104 L170.24,59.104 C171.210672,59.104 171.98933,59.3866638 172.576,59.952 C173.16267,60.5173362 173.456,61.2693286 173.456,62.208 L173.456,63.808 L167.52,63.808 L167.52,64.384 C167.52,64.8106688 167.650665,65.1519987 167.912,65.408 C168.173335,65.6640013 168.522664,65.792 168.96,65.792 L170.192,65.792 C170.618669,65.792 170.962665,65.688001 171.224,65.48 C171.485335,65.271999 171.616,64.997335 171.616,64.656 L173.424,64.656 C173.424,65.4666707 173.125336,66.1173309 172.528,66.608 C171.930664,67.0986691 171.146672,67.344 170.176,67.344 L168.96,67.344 Z M171.648,62.432 L171.648,62.208 C171.648,61.7386643 171.520001,61.3600014 171.264,61.072 C171.007999,60.7839986 170.672002,60.64 170.256,60.64 L168.96,60.64 C168.522664,60.64 168.168001,60.7919985 167.896,61.096 C167.623999,61.4000015 167.488,61.7973309 167.488,62.288 L167.488,62.432 L171.648,62.432 Z M182.832,67.344 C181.722661,67.344 180.848003,67.0240032 180.208,66.384 C179.567997,65.7439968 179.248,64.8693389 179.248,63.76 L181.088,63.76 C181.088,64.3573363 181.245332,64.8293316 181.56,65.176 C181.874668,65.5226684 182.309331,65.696 182.864,65.696 L184.64,65.696 C185.162669,65.696 185.583998,65.5813345 185.904,65.352 C186.224002,65.1226655 186.384,64.8213352 186.384,64.448 L186.384,63.744 C186.384,63.4559986 186.272001,63.216001 186.048,63.024 C185.823999,62.831999 185.504002,62.698667 185.088,62.624 L182.176,62.128 C181.269329,61.9786659 180.573336,61.6800022 180.088,61.232 C179.602664,60.7839978 179.36,60.2133368 179.36,59.52 L179.36,58.64 C179.36,58.0959973 179.506665,57.6160021 179.8,57.2 C180.093335,56.7839979 180.506664,56.4613345 181.04,56.232 C181.573336,56.0026655 182.191996,55.888 182.896,55.888 L184.704,55.888 C185.365337,55.888 185.949331,56.0239986 186.456,56.296 C186.962669,56.5680014 187.354665,56.9546642 187.632,57.456 C187.909335,57.9573358 188.048,58.5333301 188.048,59.184 L186.224,59.184 C186.224,58.6933309 186.082668,58.2960015 185.8,57.992 C185.517332,57.6879985 185.152002,57.536 184.704,57.536 L182.896,57.536 C182.394664,57.536 181.992002,57.6453322 181.688,57.864 C181.383998,58.0826678 181.232,58.3786648 181.232,58.752 L181.232,59.328 C181.232,59.6266682 181.338666,59.8746657 181.552,60.072 C181.734858,60.2411437 181.988244,60.3613061 182.312163,60.4324897 L185.392,60.976 C186.309338,61.1360008 187.015998,61.4319978 187.512,61.864 C188.008002,62.2960022 188.256,62.8479966 188.256,63.52 L188.256,64.56 C188.256,65.1040027 188.106668,65.5866646 187.808,66.008 C187.509332,66.4293354 187.088003,66.7573322 186.544,66.992 C185.999997,67.2266678 185.376004,67.344 184.672,67.344 L182.832,67.344 Z M191.344,67.216 C190.917331,67.216 190.581335,67.0933346 190.336,66.848 C190.090665,66.6026654 189.968,66.2773354 189.968,65.872 L189.968,56.016 L191.84,56.016 L191.84,65.584 L197.92,65.584 L197.92,67.216 L191.344,67.216 Z M201.984,57.632 L198.432,57.632 L198.432,56.016 L207.408,56.016 L207.408,57.632 L203.856,57.632 L203.856,67.216 L201.984,67.216 L201.984,57.632 Z" id="Higherchannel,MoreSLT" fill="#E7C2FF" fill-rule="nonzero"></path>
                </g>
            </g>
        </g>
    </g>
</svg>