<?xml version="1.0" encoding="UTF-8"?>
<svg width="402px" height="580px" viewBox="0 0 402 580" version="1.1" xmlns="http://www.w3.org/2000/svg" xmlns:xlink="http://www.w3.org/1999/xlink">
    <!-- Generator: Sketch 58 (84663) - https://sketch.com -->
    <title>Group 16</title>
    <desc>Created with Sketch.</desc>
    <defs>
        <linearGradient x1="30.9992996%" y1="11.0579782%" x2="64.7203885%" y2="80.1683592%" id="linearGradient-1">
            <stop stop-color="#1B1464" offset="0%"></stop>
            <stop stop-color="#3B2976" offset="50%"></stop>
            <stop stop-color="#251A6C" offset="100%"></stop>
        </linearGradient>
        <linearGradient x1="73.2673498%" y1="1.26670882%" x2="26.594661%" y2="99.0223085%" id="linearGradient-2">
            <stop stop-color="#D9A5FF" offset="0%"></stop>
            <stop stop-color="#5C38CA" offset="52.0434429%"></stop>
            <stop stop-color="#C67AFF" offset="100%"></stop>
        </linearGradient>
    </defs>
    <g id="Page-1" stroke="none" stroke-width="1" fill="none" fill-rule="evenodd">
        <g id="popup_draw" transform="translate(-183.000000, -211.000000)">
            <g id="Group-16" transform="translate(185.000000, 213.000000)">
                <path d="M212.6441,3.66390884 C204.220584,-1.22130295 193.824238,-1.22130295 185.400722,3.66390884 L98.5470377,54.2033616 L13.6441141,103.678236 C5.19039754,108.654875 0,117.729557 0,127.535995 L0,448.419428 C-0.00404801981,458.209519 5.17867967,467.269772 13.6216916,472.232363 L185.378299,572.336339 C193.805912,577.22122 204.205276,577.22122 212.632889,572.336339 L384.400708,472.232363 C392.838453,467.267455 398.013251,458.206149 398,448.419428 L398,127.535995 C397.980979,117.766681 392.81311,108.730283 384.400708,103.756679 L212.6441,3.66390884 Z" id="Path" stroke="url(#linearGradient-2)" stroke-width="3" fill="url(#linearGradient-1)"></path>
                <polygon id="Combined-Shape-Copy-9" fill="#180F39" points="355 487.6 319 508.6 312.5 478 327 490.5"></polygon>
                <polygon id="Combined-Shape-Copy-10" fill="#765BFF" points="355 487.6 327 490.4 312.5 478 328.1 485.5"></polygon>
                <polygon id="Combined-Shape" fill="#180F39" points="44 88.8 79.7 68 97.3 111.6 72.1 85.6"></polygon>
                <polygon id="Combined-Shape-Copy-8" fill="#765BFF" points="44 88.8 72.1 85.5 97.3 111.5 71.4 91"></polygon>
                <g id="Group-15" transform="translate(33.865400, 466.000000)">
                    <path d="M329.086,-4.26325641e-14 L166.862052,94.6306537 C166.151014,95.0345004 165.347527,95.2477032 164.529931,95.2477032 C163.695589,95.2444324 162.876445,95.0240543 162.152961,94.6082155 L0,-4.26325641e-14 L329.086,-4.26325641e-14 Z" id="Combined-Shape" fill="#5C38D2" opacity="0.206194196"></path>
                    <g id="Group-17-Copy-3" transform="translate(154.134600, 10.000000)" fill="#FFFFFF" fill-rule="nonzero">
                        <path d="M4.48,15.16 L6.54,15.16 L6.54,3.18 L10.52,3.18 L10.52,1.46 L0.46,1.46 L0.46,3.18 L4.48,3.18 L4.48,15.16 Z M12.64,15.16 L14.72,15.16 L14.72,1.46 L12.64,1.46 L12.64,15.16 Z M17.98,15.16 L20.04,15.16 L20.04,9.88 L22.68,9.88 C25.38,9.88 27.18,8.4 27.18,5.58 C27.18,2.94 25.64,1.46 22.5,1.46 L17.98,1.46 L17.98,15.16 Z M20.04,8.26 L20.04,3.14 L22.32,3.14 C24.28,3.14 25,3.88 25,5.74 C25,7.42 24.26,8.26 22.28,8.26 L20.04,8.26 Z" id="TIP"></path>
                    </g>
                    <g id="Group-17-Copy-4" transform="translate(112.134600, 41.000000)" fill="#E7C2FF" fill-rule="nonzero">
                        <path d="M1.356,-3.2 L3.228,-3.2 L3.228,1.552 L8.764,1.552 L8.764,-3.2 L10.62,-3.2 L10.62,8 L8.764,8 L8.764,3.184 L3.228,3.184 L3.228,8 L1.356,8 L1.356,-3.2 Z M13.932,-0.88 C13.5693315,-0.88 13.2786678,-0.98933224 13.06,-1.208 C12.8413322,-1.42666776 12.732,-1.70666496 12.732,-2.048 C12.732,-2.38933504 12.8413322,-2.66933224 13.06,-2.888 C13.2786678,-3.10666776 13.5693315,-3.216 13.932,-3.216 C14.2946685,-3.216 14.5879989,-3.10666776 14.812,-2.888 C15.0360011,-2.66933224 15.148,-2.38933504 15.148,-2.048 C15.148,-1.70666496 15.0360011,-1.42666776 14.812,-1.208 C14.5879989,-0.98933224 14.2946685,-0.88 13.932,-0.88 Z M13.02,0.016 L14.86,0.016 L14.86,8 L13.02,8 L13.02,0.016 Z M20.124,11.248 C19.323996,11.248 18.657336,11.0240022 18.124,10.576 C17.590664,10.1279978 17.2973336,9.53600368 17.244,8.8 L19.052,8.8 C19.0840002,9.066668 19.1986657,9.2799992 19.396,9.44 C19.5933343,9.6000008 19.8359986,9.68 20.124,9.68 L21.532,9.68 C21.9373354,9.68 22.2599988,9.52800152 22.5,9.224 C22.7400012,8.91999848 22.86,8.51200256 22.86,8 L22.86,7.088 C22.6359989,7.34400128 22.361335,7.5519992 22.036,7.712 C21.710665,7.8720008 21.3933349,7.952 21.084,7.952 L19.964,7.952 C19.0466621,7.952 18.3026695,7.66666952 17.732,7.096 C17.1613305,6.52533048 16.876,5.77600464 16.876,4.848 L16.876,3.136 C16.876,2.4959968 17.009332,1.93066912 17.276,1.44 C17.542668,0.94933088 17.9186642,0.56800136 18.404,0.296 C18.8893358,0.02399864 19.4466635,-0.112 20.076,-0.112 L21.068,-0.112 C21.4306685,-0.112 21.7879982,-0.02400088 22.14,0.152 C22.4920018,0.32800088 22.7693323,0.55999856 22.972,0.848 L22.972,0.016 L24.7,0.016 L24.7,8 C24.7,8.99200496 24.4146695,9.7813304 23.844,10.368 C23.2733305,10.9546696 22.5026715,11.248 21.532,11.248 L20.124,11.248 Z M21.18,6.384 C21.638669,6.384 22.0226651,6.20266848 22.332,5.84 C22.6413349,5.47733152 22.8173331,5.00800288 22.86,4.432 L22.86,3.04 C22.8173331,2.58133104 22.6520014,2.2053348 22.364,1.912 C22.0759986,1.6186652 21.7293354,1.472 21.324,1.472 L20.22,1.472 C19.7719978,1.472 19.4093347,1.63466504 19.132,1.96 C18.8546653,2.28533496 18.716,2.714664 18.716,3.248 L18.716,4.736 C18.716,5.22666912 18.8413321,5.62399848 19.092,5.928 C19.3426679,6.23200152 19.6706646,6.384 20.076,6.384 L21.18,6.384 Z M26.748,-3.2 L28.588,-3.2 L28.588,0.912 C28.8333346,0.60266512 29.1346649,0.3546676 29.492,0.168 C29.8493351,-0.0186676 30.198665,-0.112 30.54,-0.112 L31.564,-0.112 C32.3853374,-0.112 33.0439975,0.14933072 33.54,0.672 C34.0360025,1.19466928 34.284,1.8826624 34.284,2.736 L34.284,8 L32.444,8 L32.444,2.784 C32.444,2.39999808 32.3453343,2.0880012 32.148,1.848 C31.9506657,1.6079988 31.6920016,1.488 31.372,1.488 L30.348,1.488 C29.9319979,1.488 29.5586683,1.64266512 29.228,1.952 C28.8973317,2.26133488 28.6840005,2.66666416 28.588,3.168 L28.588,8 L26.748,8 L26.748,-3.2 Z M39.196,8.128 C38.5453301,8.128 37.9720025,8.00533456 37.476,7.76 C36.9799975,7.51466544 36.5960014,7.16800224 36.324,6.72 C36.0519986,6.27199776 35.916,5.7546696 35.916,5.168 L35.916,3.024 C35.916,2.40533024 36.0519986,1.85866904 36.324,1.384 C36.5960014,0.90933096 36.9799975,0.54133464 37.476,0.28 C37.9720025,0.01866536 38.5453301,-0.112 39.196,-0.112 L40.476,-0.112 C41.4466715,-0.112 42.2253304,0.17066384 42.812,0.736 C43.3986696,1.30133616 43.692,2.05332864 43.692,2.992 L43.692,4.592 L37.756,4.592 L37.756,5.168 C37.756,5.5946688 37.8866654,5.93599872 38.148,6.192 C38.4093346,6.44800128 38.7586645,6.576 39.196,6.576 L40.428,6.576 C40.8546688,6.576 41.1986654,6.47200104 41.46,6.264 C41.7213346,6.05599896 41.852,5.78133504 41.852,5.44 L43.66,5.44 C43.66,6.25067072 43.3613363,6.90133088 42.764,7.392 C42.1666637,7.88266912 41.3826715,8.128 40.412,8.128 L39.196,8.128 Z M41.884,3.216 L41.884,2.992 C41.884,2.52266432 41.7560013,2.14400144 41.5,1.856 C41.2439987,1.56799856 40.9080021,1.424 40.492,1.424 L39.196,1.424 C38.7586645,1.424 38.4040014,1.57599848 38.132,1.88 C37.8599986,2.18400152 37.724,2.58133088 37.724,3.072 L37.724,3.216 L41.884,3.216 Z M45.34,0.016 L47.052,0.016 L47.052,1.104 C47.2653344,0.77333168 47.571998,0.50400104 47.972,0.296 C48.372002,0.08799896 48.7853312,-0.016 49.212,-0.016 L50.172,-0.016 L50.172,1.584 L49.212,1.584 C48.603997,1.584 48.1133352,1.7706648 47.74,2.144 C47.3666648,2.5173352 47.18,3.00266368 47.18,3.6 L47.18,8 L45.34,8 L45.34,0.016 Z M58.716,8.128 C57.7346618,8.128 56.948003,7.84533616 56.356,7.28 C55.763997,6.71466384 55.468,5.96800464 55.468,5.04 L55.468,3.024 C55.468,2.40533024 55.601332,1.85866904 55.868,1.384 C56.134668,0.90933096 56.5133309,0.54133464 57.004,0.28 C57.4946691,0.01866536 58.0599968,-0.112 58.7,-0.112 L59.98,-0.112 C60.8973379,-0.112 61.6359972,0.15199736 62.196,0.68 C62.7560028,1.20800264 63.036,1.90399568 63.036,2.768 L61.228,2.768 C61.228,2.38399808 61.1133345,2.0720012 60.884,1.832 C60.6546655,1.5919988 60.3533352,1.472 59.98,1.472 L58.716,1.472 C58.2999979,1.472 57.9613346,1.62666512 57.7,1.936 C57.4386654,2.24533488 57.308,2.64533088 57.308,3.136 L57.308,4.928 C57.308,5.4080024 57.4386654,5.79733184 57.7,6.096 C57.9613346,6.39466816 58.3053312,6.544 58.732,6.544 L59.996,6.544 C60.3906686,6.544 60.7079988,6.40000144 60.948,6.112 C61.1880012,5.82399856 61.308,5.45066896 61.308,4.992 L63.116,4.992 C63.116,5.93067136 62.8306695,6.68799712 62.26,7.264 C61.6893305,7.84000288 60.9346714,8.128 59.996,8.128 L58.716,8.128 Z M64.62,-3.2 L66.46,-3.2 L66.46,0.912 C66.7053346,0.60266512 67.0066649,0.3546676 67.364,0.168 C67.7213351,-0.0186676 68.070665,-0.112 68.412,-0.112 L69.436,-0.112 C70.2573374,-0.112 70.9159975,0.14933072 71.412,0.672 C71.9080025,1.19466928 72.156,1.8826624 72.156,2.736 L72.156,8 L70.316,8 L70.316,2.784 C70.316,2.39999808 70.2173343,2.0880012 70.02,1.848 C69.8226657,1.6079988 69.5640016,1.488 69.244,1.488 L68.22,1.488 C67.8039979,1.488 67.4306683,1.64266512 67.1,1.952 C66.7693317,2.26133488 66.5560005,2.66666416 66.46,3.168 L66.46,8 L64.62,8 L64.62,-3.2 Z M76.556,8.128 C75.7453293,8.128 75.0920025,7.92266872 74.596,7.512 C74.0999975,7.10133128 73.852,6.55467008 73.852,5.872 L73.852,5.296 C73.852,4.62399664 74.1106641,4.08533536 74.628,3.68 C75.1453359,3.27466464 75.8253291,3.072 76.668,3.072 L77.66,3.072 C77.9586682,3.072 78.278665,3.11466624 78.62,3.2 C78.961335,3.28533376 79.265332,3.39733264 79.532,3.536 L79.532,2.544 C79.532,2.21333168 79.4253344,1.94666768 79.212,1.744 C78.9986656,1.54133232 78.721335,1.44 78.38,1.44 L77.036,1.44 C76.6839982,1.44 76.4013344,1.52266584 76.188,1.688 C75.9746656,1.85333416 75.868,2.069332 75.868,2.336 L74.076,2.336 C74.076,1.59999632 74.3479973,1.00800224 74.892,0.56 C75.4360027,0.11199776 76.1506622,-0.112 77.036,-0.112 L78.38,-0.112 C79.2760045,-0.112 79.9959973,0.13066424 80.54,0.616 C81.0840027,1.10133576 81.356,1.743996 81.356,2.544 L81.356,8 L79.644,8 L79.644,6.992 C79.3879987,7.33333504 79.0680019,7.60799896 78.684,7.816 C78.2999981,8.02400104 77.9213352,8.128 77.548,8.128 L76.556,8.128 Z M77.66,6.688 C78.0866688,6.688 78.470665,6.5680012 78.812,6.328 C79.153335,6.0879988 79.3933326,5.77066864 79.532,5.376 L79.532,4.992 C79.3506658,4.84266592 79.0946683,4.72266712 78.764,4.632 C78.4333317,4.54133288 78.0866685,4.496 77.724,4.496 L76.716,4.496 C76.3959984,4.496 76.1373343,4.5759992 75.94,4.736 C75.7426657,4.8960008 75.644,5.10399872 75.644,5.36 L75.644,5.808 C75.644,6.074668 75.7453323,6.2879992 75.948,6.448 C76.1506677,6.6080008 76.4173317,6.688 76.748,6.688 L77.66,6.688 Z M83.308,0.016 L85.02,0.016 L85.02,1.056 C85.2546678,0.70399824 85.5639981,0.4213344 85.948,0.208 C86.3320019,-0.0053344 86.7159981,-0.112 87.1,-0.112 L88.092,-0.112 C88.9133374,-0.112 89.5719975,0.14933072 90.068,0.672 C90.5640025,1.19466928 90.812,1.8826624 90.812,2.736 L90.812,8 L88.972,8 L88.972,2.784 C88.972,2.39999808 88.8733343,2.0880012 88.676,1.848 C88.4786657,1.6079988 88.2200016,1.488 87.9,1.488 L86.908,1.488 C86.4919979,1.488 86.1186683,1.64533176 85.788,1.96 C85.4573317,2.27466824 85.2440005,2.67733088 85.148,3.168 L85.148,8 L83.308,8 L83.308,0.016 Z M92.764,0.016 L94.476,0.016 L94.476,1.056 C94.7106678,0.70399824 95.0199981,0.4213344 95.404,0.208 C95.7880019,-0.0053344 96.1719981,-0.112 96.556,-0.112 L97.548,-0.112 C98.3693374,-0.112 99.0279975,0.14933072 99.524,0.672 C100.020002,1.19466928 100.268,1.8826624 100.268,2.736 L100.268,8 L98.428,8 L98.428,2.784 C98.428,2.39999808 98.3293343,2.0880012 98.132,1.848 C97.9346657,1.6079988 97.6760016,1.488 97.356,1.488 L96.364,1.488 C95.9479979,1.488 95.5746683,1.64533176 95.244,1.96 C94.9133317,2.27466824 94.7000005,2.67733088 94.604,3.168 L94.604,8 L92.764,8 L92.764,0.016 Z M105.18,8.128 C104.52933,8.128 103.956002,8.00533456 103.46,7.76 C102.963998,7.51466544 102.580001,7.16800224 102.308,6.72 C102.035999,6.27199776 101.9,5.7546696 101.9,5.168 L101.9,3.024 C101.9,2.40533024 102.035999,1.85866904 102.308,1.384 C102.580001,0.90933096 102.963998,0.54133464 103.46,0.28 C103.956002,0.01866536 104.52933,-0.112 105.18,-0.112 L106.46,-0.112 C107.430672,-0.112 108.20933,0.17066384 108.796,0.736 C109.38267,1.30133616 109.676,2.05332864 109.676,2.992 L109.676,4.592 L103.74,4.592 L103.74,5.168 C103.74,5.5946688 103.870665,5.93599872 104.132,6.192 C104.393335,6.44800128 104.742664,6.576 105.18,6.576 L106.412,6.576 C106.838669,6.576 107.182665,6.47200104 107.444,6.264 C107.705335,6.05599896 107.836,5.78133504 107.836,5.44 L109.644,5.44 C109.644,6.25067072 109.345336,6.90133088 108.748,7.392 C108.150664,7.88266912 107.366672,8.128 106.396,8.128 L105.18,8.128 Z M107.868,3.216 L107.868,2.992 C107.868,2.52266432 107.740001,2.14400144 107.484,1.856 C107.227999,1.56799856 106.892002,1.424 106.476,1.424 L105.18,1.424 C104.742664,1.424 104.388001,1.57599848 104.116,1.88 C103.843999,2.18400152 103.708,2.58133088 103.708,3.072 L103.708,3.216 L107.868,3.216 Z M113.9,8 C113.003996,8 112.350669,7.81066856 111.94,7.432 C111.529331,7.05333144 111.324,6.45333744 111.324,5.632 L111.324,-3.2 L113.164,-3.2 L113.164,5.552 C113.164,5.86133488 113.227999,6.082666 113.356,6.216 C113.484001,6.349334 113.697332,6.416 113.996,6.416 L114.764,6.416 L114.764,8 L113.9,8 Z M114.892,9.344 L115.292,9.008 C115.868003,8.5279976 116.156,7.93067024 116.156,7.216 L116.156,6.24 L117.996,6.24 L117.996,7.216 C117.996,8.56000672 117.500005,9.59999632 116.508,10.336 L116.044,10.688 L114.892,9.344 Z M25.036,14.8 L26.732,14.8 L30.508,21.712 L34.188,14.8 L35.884,14.8 L35.884,26 L34.044,26 L34.044,18.272 L31.404,23.168 C31.2546659,23.4240013 31.1106674,23.6079994 30.972,23.72 C30.8333326,23.8320006 30.6786675,23.888 30.508,23.888 L29.98,23.888 L26.86,18.272 L26.86,26 L25.036,26 L25.036,14.8 Z M40.94,26.128 C39.9586618,26.128 39.1693363,25.8426695 38.572,25.272 C37.9746637,24.7013305 37.676,23.9466714 37.676,23.008 L37.676,21.024 C37.676,20.4053302 37.8119986,19.858669 38.084,19.384 C38.3560014,18.909331 38.7399975,18.5413346 39.236,18.28 C39.7320025,18.0186654 40.3053301,17.888 40.956,17.888 L42.364,17.888 C43.0146699,17.888 43.5879975,18.0186654 44.084,18.28 C44.5800025,18.5413346 44.9639986,18.909331 45.236,19.384 C45.5080014,19.858669 45.644,20.4053302 45.644,21.024 L45.644,23.008 C45.644,23.9466714 45.3426697,24.7013305 44.74,25.272 C44.1373303,25.8426695 43.3346717,26.128 42.332,26.128 L40.94,26.128 Z M42.316,24.544 C42.7640022,24.544 43.1239986,24.3920015 43.396,24.088 C43.6680014,23.7839985 43.804,23.3866691 43.804,22.896 L43.804,21.12 C43.804,20.6293309 43.670668,20.2320015 43.404,19.928 C43.137332,19.6239985 42.7800022,19.472 42.332,19.472 L40.988,19.472 C40.5399978,19.472 40.182668,19.6239985 39.916,19.928 C39.649332,20.2320015 39.516,20.6293309 39.516,21.12 L39.516,22.896 C39.516,23.3866691 39.649332,23.7839985 39.916,24.088 C40.182668,24.3920015 40.5293312,24.544 40.956,24.544 L42.316,24.544 Z M47.372,18.016 L49.084,18.016 L49.084,19.104 C49.2973344,18.7733317 49.603998,18.504001 50.004,18.296 C50.404002,18.087999 50.8173312,17.984 51.244,17.984 L52.204,17.984 L52.204,19.584 L51.244,19.584 C50.635997,19.584 50.1453352,19.7706648 49.772,20.144 C49.3986648,20.5173352 49.212,21.0026637 49.212,21.6 L49.212,26 L47.372,26 L47.372,18.016 Z M56.316,26.128 C55.6653301,26.128 55.0920025,26.0053346 54.596,25.76 C54.0999975,25.5146654 53.7160014,25.1680022 53.444,24.72 C53.1719986,24.2719978 53.036,23.7546696 53.036,23.168 L53.036,21.024 C53.036,20.4053302 53.1719986,19.858669 53.444,19.384 C53.7160014,18.909331 54.0999975,18.5413346 54.596,18.28 C55.0920025,18.0186654 55.6653301,17.888 56.316,17.888 L57.596,17.888 C58.5666715,17.888 59.3453304,18.1706638 59.932,18.736 C60.5186696,19.3013362 60.812,20.0533286 60.812,20.992 L60.812,22.592 L54.876,22.592 L54.876,23.168 C54.876,23.5946688 55.0066654,23.9359987 55.268,24.192 C55.5293346,24.4480013 55.8786645,24.576 56.316,24.576 L57.548,24.576 C57.9746688,24.576 58.3186654,24.472001 58.58,24.264 C58.8413346,24.055999 58.972,23.781335 58.972,23.44 L60.78,23.44 C60.78,24.2506707 60.4813363,24.9013309 59.884,25.392 C59.2866637,25.8826691 58.5026715,26.128 57.532,26.128 L56.316,26.128 Z M59.004,21.216 L59.004,20.992 C59.004,20.5226643 58.8760013,20.1440014 58.62,19.856 C58.3639987,19.5679986 58.0280021,19.424 57.612,19.424 L56.316,19.424 C55.8786645,19.424 55.5240014,19.5759985 55.252,19.88 C54.9799986,20.1840015 54.844,20.5813309 54.844,21.072 L54.844,21.216 L59.004,21.216 Z M70.188,26.128 C69.0786611,26.128 68.2040032,25.8080032 67.564,25.168 C66.9239968,24.5279968 66.604,23.6533389 66.604,22.544 L68.444,22.544 C68.444,23.1413363 68.6013318,23.6133316 68.916,23.96 C69.2306682,24.3066684 69.6653306,24.48 70.22,24.48 L71.996,24.48 C72.5186693,24.48 72.9399984,24.3653345 73.26,24.136 C73.5800016,23.9066655 73.74,23.6053352 73.74,23.232 L73.74,22.528 C73.74,22.2399986 73.6280011,22.000001 73.404,21.808 C73.1799989,21.615999 72.8600021,21.482667 72.444,21.408 L69.532,20.912 C68.6253288,20.7626659 67.9293358,20.4640022 67.444,20.016 C66.9586642,19.5679978 66.716,18.9973368 66.716,18.304 L66.716,17.424 C66.716,16.8799973 66.8626652,16.4000021 67.156,15.984 C67.4493348,15.5679979 67.862664,15.2453345 68.396,15.016 C68.929336,14.7866655 69.5479965,14.672 70.252,14.672 L72.06,14.672 C72.7213366,14.672 73.3053308,14.8079986 73.812,15.08 C74.3186692,15.3520014 74.7106653,15.7386642 74.988,16.24 C75.2653347,16.7413358 75.404,17.3173301 75.404,17.968 L73.58,17.968 C73.58,17.4773309 73.4386681,17.0800015 73.156,16.776 C72.8733319,16.4719985 72.5080022,16.32 72.06,16.32 L70.252,16.32 C69.7506642,16.32 69.3480015,16.4293322 69.044,16.648 C68.7399985,16.8666678 68.588,17.1626648 68.588,17.536 L68.588,18.112 C68.588,18.4106682 68.6946656,18.6586657 68.908,18.856 C69.0908581,19.0251437 69.3442437,19.1453061 69.6681627,19.2164897 L72.748,19.76 C73.6653379,19.9200008 74.3719975,20.2159978 74.868,20.648 C75.3640025,21.0800022 75.612,21.6319966 75.612,22.304 L75.612,23.344 C75.612,23.8880027 75.4626682,24.3706646 75.164,24.792 C74.8653318,25.2133354 74.4440027,25.5413322 73.9,25.776 C73.3559973,26.0106678 72.7320035,26.128 72.028,26.128 L70.188,26.128 Z M78.7,26 C78.2733312,26 77.9373346,25.8773346 77.692,25.632 C77.4466654,25.3866654 77.324,25.0613354 77.324,24.656 L77.324,14.8 L79.196,14.8 L79.196,24.368 L85.276,24.368 L85.276,26 L78.7,26 Z M89.34,16.416 L85.788,16.416 L85.788,14.8 L94.764,14.8 L94.764,16.416 L91.212,16.416 L91.212,26 L89.34,26 L89.34,16.416 Z" id="Higherchannel,MoreSLT"></path>
                    </g>
                </g>
            </g>
        </g>
    </g>
</svg>