<?xml version="1.0" encoding="UTF-8"?>
<svg width="114px" height="70px" viewBox="0 0 114 70" version="1.1" xmlns="http://www.w3.org/2000/svg" xmlns:xlink="http://www.w3.org/1999/xlink">
    <!-- Generator: Sketch 58 (84663) - https://sketch.com -->
    <title>Group 2</title>
    <desc>Created with Sketch.</desc>
    <defs>
        <linearGradient x1="50.0157416%" y1="0.37%" x2="50.0157416%" y2="99.59%" id="linearGradient-1">
            <stop stop-color="#8955E8" offset="0%"></stop>
            <stop stop-color="#5D38D4" offset="50.15%"></stop>
            <stop stop-color="#4B2CAE" offset="100%"></stop>
        </linearGradient>
    </defs>
    <g id="Page-1" stroke="none" stroke-width="1" fill="none" fill-rule="evenodd">
        <g id="mainpage_web" transform="translate(-1641.000000, -175.000000)">
            <g id="Group-2" transform="translate(1641.000000, 175.000000)">
                <g id="btn_2_n">
                    <path d="M113.3,38.5 C113.2,39 113,39.4 112.8,39.9 L96.8,67.2 C95.9,68.7 94.3,69.6 92.6,69.6 L21.1,69.6 C19.4,69.6 17.8,68.7 16.9,67.2 L0.9,39.9 C0.7,39.5 0.5,39 0.4,38.5 L0.2,38.5 L0.2,32.5 L2.4,32.5 L17,7.9 C17.8,6.4 19.4,5.5 21.1,5.5 L92.6,5.5 C94.3,5.5 95.9,6.4 96.8,7.9 L111.2,32.5 L113.4,32.5 L113.4,38.5 L113.3,38.5 Z" id="Combined-Shape" fill="#C6ADDF"></path>
                    <path d="M111.4,30.8 L95,3.5 C94.4,2.5 93.2,1.9 92,1.9 L21.6,1.9 C20.4,1.9 19.2,2.5 18.6,3.5 L2.3,30.8 C2,31.3 1.9,31.8 1.9,32.4 C1.9,33 2.1,33.5 2.3,34 L18.7,61.3 C19.3,62.3 20.5,62.9 21.7,62.9 L92,62.9 C93.2,62.9 94.4,62.3 95,61.3 L111.4,34 C111.7,33.5 111.8,33 111.8,32.4 C111.8,31.8 111.7,31.3 111.4,30.8 Z" id="Fill-12-Copy" fill="url(#linearGradient-1)"></path>
                    <g id="Fill-12-Copy_1_" fill="#E9D0FF" fill-rule="nonzero">
                        <path d="M92,64.4 L21.6,64.4 C19.8,64.4 18.2,63.5 17.3,62 L1,34.8 C0.6,34.1 0.3,33.3 0.3,32.4 C0.3,31.6 0.5,30.8 1,30 L17.4,2.8 C18.3,1.3 19.9,0.4 21.7,0.4 L92,0.4 C93.8,0.4 95.4,1.3 96.3,2.8 L112.7,30.1 C113.1,30.8 113.4,31.6 113.4,32.5 C113.4,33.3 113.2,34.1 112.7,34.9 L96.3,62 C95.4,63.5 93.7,64.4 92,64.4 Z M21.6,3.4 C20.9,3.4 20.2,3.8 19.9,4.3 L3.5,31.6 C3.4,31.8 3.3,32.1 3.3,32.4 C3.3,32.7 3.4,33 3.5,33.2 L19.9,60.5 C20.2,61.1 20.9,61.4 21.6,61.4 L91.9,61.4 C92.6,61.4 93.3,61 93.6,60.5 L110,33.2 C110.1,33 110.2,32.7 110.2,32.4 C110.2,32.1 110.1,31.8 110,31.6 L93.7,4.3 C93.4,3.7 92.7,3.4 92,3.4 L21.6,3.4 Z" id="Shape"></path>
                    </g>
                </g>
                <path d="M40,47 L73,47 L73,45 L40,45 L40,47 Z M40,34 L73,34 L73,32 L40,32 L40,34 Z M40,19 L40,21 L73,21 L73,19 L40,19 Z" id="Shape" fill="#FFFFFF" fill-rule="nonzero"></path>
            </g>
        </g>
    </g>
</svg>