<svg xmlns="http://www.w3.org/2000/svg" width="65" height="83" viewBox="0 0 65 83">
    <g fill="none" fill-rule="evenodd">
        <path fill="#5F3CD8" d="M0 0h30.875v52.379H0z"/>
        <path fill="#FFEC72" d="M15.563 31.714L9.354 34.95l1.186-6.857-5.023-4.855 6.941-1L15.562 16l3.105 6.238 6.941 1-5.023 4.856 1.186 6.857z"/>
        <path fill="#5F3CD8" d="M0 57h30.875v25.786H0z"/>
        <path fill="#FFF" d="M17.79 63l-.001 4.981h5.023v3.737l-5.023-.001v4.982h-3.766l-.001-4.982H9v-3.736h5.022V63h3.768z"/>
        <g transform="translate(42 2)">
            <circle cx="11.5" cy="11.5" r="11.5" fill="#FFEC72"/>
            <g fill-rule="nonzero">
                <path fill="#FFF" d="M11.5 1.278L5.222 7.88l-2.666 9.71 8.944 4.132 8.944-4.131-2.666-9.754z"/>
                <path fill="#433D1D" d="M11.5 1.278L5.222 7.88l-2.666 9.71 8.944 4.132 8.944-4.131-2.666-9.754-6.278-6.56zM7.667 8.235L11.5 3.833l3.833 4.402-3.833 9.654-3.833-9.654zm8.663 1.987l1.559 6.353-5.111 2.592 3.552-8.945zM5.11 16.575l1.56-6.353 3.551 8.945-5.11-2.592z"/>
            </g>
        </g>
        <g>
            <g transform="translate(42 30)">
                <circle cx="11.5" cy="11.5" r="11.5" fill="#A86DFF"/>
                <path fill="#FFF" d="M11.5 1.278l8.944 5.11v10.223L11.5 21.722l-8.944-5.11V6.388z"/>
                <path fill="#3D285E" d="M11.5 1.278l8.944 5.11v10.223L11.5 21.722l-8.944-5.11V6.388L11.5 1.278zm-.001 2.005l-7.19 4.109V9.3l8.185 4.723-2.29 1.294-5.895-3.364v3.655l7.19 4.109 7.19-4.109v-1.853l-8.17-4.714 2.29-1.293 5.88 3.354v-3.71l-7.19-4.109z"/>
            </g>
        </g>
        <g>
            <g transform="translate(42 60)">
                <circle cx="11.5" cy="11.5" r="11.5" fill="#A86DFF"/>
                <path fill="#FFF" d="M11.5 1.278l8.944 5.11v10.223L11.5 21.722l-8.944-5.11V6.388z"/>
                <path fill="#3D285E" d="M11.5 1.278l8.944 5.11v10.223L11.5 21.722l-8.944-5.11V6.388L11.5 1.278zm-.001 2.005l-7.19 4.109V9.3l8.185 4.723-2.29 1.294-5.895-3.364v3.655l7.19 4.109 7.19-4.109v-1.853l-8.17-4.714 2.29-1.293 5.88 3.354v-3.71l-7.19-4.109z"/>
            </g>
        </g>
    </g>
</svg>
