<?xml version="1.0" encoding="UTF-8"?>
<svg width="157px" height="174px" viewBox="0 0 157 174" version="1.1" xmlns="http://www.w3.org/2000/svg" xmlns:xlink="http://www.w3.org/1999/xlink">
    <!-- Generator: Sketch 58 (84663) - https://sketch.com -->
    <title>Fill 1</title>
    <desc>Created with Sketch.</desc>
    <g id="Page-1" stroke="none" stroke-width="1" fill="none" fill-rule="evenodd">
        <g id="popup_Loading\" transform="translate(-306.000000, -381.000000)" fill="#422A9B">
            <g id="Group" transform="translate(282.000000, 356.000000)">
                <g id="Group-12">
                    <g id="Group-3">
                        <path d="M177.391206,68.757368 C175.186417,64.9302126 172.003985,61.7390864 168.186763,59.5294553 L114.956974,28.7187854 C111.138055,26.507465 106.788731,25.3401447 102.379152,25.3401447 C97.9704227,25.3401447 93.6210984,26.507465 89.8021795,28.7187854 L36.5723903,59.5294553 C32.75432,61.7390864 29.5718876,64.9302126 27.367947,68.757368 C25.1648551,72.582834 23.9996605,76.9404359 23.9996605,81.3588534 L23.9996605,142.981038 C23.9996605,147.398611 25.1648551,151.757057 27.367947,155.582523 C29.5718876,159.409679 32.75432,162.600805 36.5723903,164.810436 L89.8021795,195.621106 C93.6210984,197.831582 97.9704227,198.999747 102.379152,198.999747 C106.788731,198.999747 111.138055,197.831582 114.956974,195.621106 L168.186763,164.810436 C172.003985,162.600805 175.186417,159.409679 177.391206,155.582523 C179.594298,151.757057 180.758644,147.398611 180.758644,142.981038 L180.758644,81.3588534 C180.758644,76.9404359 179.594298,72.582834 177.391206,68.757368" id="Fill-1"></path>
                    </g>
                </g>
            </g>
        </g>
    </g>
</svg>