<?xml version="1.0" encoding="UTF-8"?>
<svg width="421px" height="136px" viewBox="0 0 421 136" version="1.1" xmlns="http://www.w3.org/2000/svg" xmlns:xlink="http://www.w3.org/1999/xlink">
    <!-- Generator: Sketch 58 (84663) - https://sketch.com -->
    <title>Group 3</title>
    <desc>Created with Sketch.</desc>
    <defs>
        <linearGradient x1="50.0041646%" y1="0.715745133%" x2="50.0041646%" y2="99.9708673%" id="linearGradient-1">
            <stop stop-color="#8955E8" offset="0%"></stop>
            <stop stop-color="#5D38D4" offset="50.15%"></stop>
            <stop stop-color="#4B2CAE" offset="100%"></stop>
        </linearGradient>
        <linearGradient x1="49.9605627%" y1="46.5007085%" x2="50.116483%" y2="53.5243885%" id="linearGradient-2">
            <stop stop-color="#8955E8" offset="0%"></stop>
            <stop stop-color="#5D38D4" offset="50.15%"></stop>
            <stop stop-color="#4B2CAE" offset="100%"></stop>
        </linearGradient>
    </defs>
    <g id="Page-1" stroke="none" stroke-width="1" fill="none" fill-rule="evenodd">
        <g id="-mainpage_svg-image" transform="translate(-175.000000, -264.000000)">
            <g id="Group-3" transform="translate(175.000000, 264.000000)">
                <g id="btn_tap_l" transform="translate(0.000000, 68.000000)">
                    <path d="M420.1,34 L420.1,30.7 L417.8,30.7 L407.4,11.2 C406.2,9 404.1,7.7 401.8,7.7 L249.1,7.7 L228,7.7 C225.9,7.7 224,9 223.3,11 L206.2,58.7 L204,58.7 L204,65.7 L204.1,65.7 C204.3,66.6 205.1,67.2 206,67.2 L249.2,67.2 L402,67.2 C404.3,67.2 406.5,65.9 407.6,63.7 L419.7,41.1 C420,40.6 420.2,40 420.3,39.5 L420.3,35.4 L420.3,34 L420.1,34 Z" id="Path" fill="#C6ADDF"></path>
                    <path d="M217.1,3.5 L217.1,2.2 L177.1,2.2 L177.1,7.2 L172.1,7.2 L19.4,7.2 C17.1,7.2 15,8.5 13.8,10.7 L3.4,30.2 L0.9,30.2 L0.9,37 L0.9,37 L0.9,38.2 L1,38.2 C1.1,39 1.4,39.8 1.8,40.6 L13.9,63.2 C15.1,65.4 17.2,66.7 19.5,66.7 L172.2,66.7 L193.3,66.7 C195.4,66.7 197.3,65.4 198,63.4 L217.1,10 L217.1,8.5 L217.1,3.5 Z" id="Path" fill="#C6ADDF"></path>
                    <path d="M205.9,58.5 L401.6,58.5 C403.3,58.5 405,57.5 405.9,55.8 L417.9,33.2 C418.9,31.4 418.9,29.1 417.9,27.3 L405.9,4.7 C404.9,3 403.3,2 401.6,2 L227.9,2 C226.4,2 225.1,2.9 224.6,4.3 L205.4,57.8 C205.4,57.9 205.4,57.9 205.4,58 C205.4,58.3 205.6,58.5 205.9,58.5 Z" id="Path" fill="url(#linearGradient-1)"></path>
                    <path d="M215.1,2 L19.4,2 C17.7,2 16,3 15.1,4.7 L3.1,27.3 C2.1,29.1 2.1,31.4 3.1,33.2 L15.1,55.8 C16,57.5 17.7,58.5 19.4,58.5 L193.1,58.5 C194.6,58.5 195.9,57.6 196.4,56.2 L215.6,2.7 C215.6,2.6 215.6,2.6 215.6,2.5 C215.6,2.2 215.4,2 215.1,2 Z" id="Path" fill="#45319C"></path>
                    <path d="M401.6,60 L205.9,60 C204.8,60 203.9,59.1 203.9,58 C203.9,57.8 203.9,57.5 204,57.3 L223.2,3.8 C223.9,1.8 225.8,0.5 227.9,0.5 L401.6,0.5 C403.9,0.5 406.1,1.9 407.2,4 L419.2,26.6 C420.4,28.8 420.4,31.6 419.2,33.9 L407.2,56.5 C406,58.6 403.9,60 401.6,60 Z M207.3,57 L401.6,57 C402.8,57 403.9,56.3 404.6,55 L416.6,32.4 C417.3,31 417.3,29.3 416.6,28 L404.6,5.4 C404,4.2 402.8,3.4 401.6,3.4 L227.9,3.4 C227.1,3.4 226.3,3.9 226,4.7 L207.3,57 Z" id="Shape" fill="#E7D6FF" fill-rule="nonzero"></path>
                    <path d="M193.1,60 L19.4,60 C17.1,60 14.9,58.6 13.8,56.5 L1.8,33.9 C0.6,31.7 0.6,28.9 1.8,26.6 L13.8,4 C15,1.8 17.1,0.5 19.4,0.5 L215.1,0.5 C216.2,0.5 217.1,1.4 217.1,2.5 C217.1,2.7 217.1,3 217,3.2 L197.8,56.7 C197.1,58.7 195.2,60 193.1,60 Z M19.4,3.5 C18.2,3.5 17.1,4.2 16.4,5.5 L4.4,28 C3.7,29.4 3.7,31.1 4.4,32.4 L16.4,55 C17,56.2 18.2,57 19.4,57 L193.1,57 C193.9,57 194.7,56.5 195,55.7 L213.7,3.5 L19.4,3.5 Z" id="Shape" fill="#E7D6FF" fill-rule="nonzero"></path>
                </g>
                <g id="btn_tap_r">
                    <path d="M420.1,34 L420.1,30.7 L417.8,30.7 L407.4,11.2 C406.2,9 404.1,7.7 401.8,7.7 L249.1,7.7 L228,7.7 C225.9,7.7 224,9 223.3,11 L206.2,58.7 L204,58.7 L204,65.7 L204.1,65.7 C204.3,66.6 205.1,67.2 206,67.2 L249.2,67.2 L402,67.2 C404.3,67.2 406.5,65.9 407.6,63.7 L419.7,41.1 C420,40.6 420.2,40 420.3,39.5 L420.3,35.4 L420.3,34 L420.1,34 Z" id="Path" fill="#C6ADDF"></path>
                    <path d="M217.1,3.5 L217.1,2.2 L177.1,2.2 L177.1,7.2 L172.1,7.2 L19.4,7.2 C17.1,7.2 15,8.5 13.8,10.7 L3.4,30.2 L0.9,30.2 L0.9,37 L0.9,37 L0.9,38.2 L1,38.2 C1.1,39 1.4,39.8 1.8,40.6 L13.9,63.2 C15.1,65.4 17.2,66.7 19.5,66.7 L172.2,66.7 L193.3,66.7 C195.4,66.7 197.3,65.4 198,63.4 L217.1,10 L217.1,8.5 L217.1,3.5 Z" id="Path" fill="#C6ADDF"></path>
                    <path d="M205.9,58.5 L401.6,58.5 C403.3,58.5 405,57.5 405.9,55.8 L417.9,33.2 C418.9,31.4 418.9,29.1 417.9,27.3 L405.9,4.7 C404.9,3 403.3,2 401.6,2 L227.9,2 C226.4,2 225.1,2.9 224.6,4.3 L205.4,57.8 C205.4,57.9 205.4,57.9 205.4,58 C205.4,58.3 205.6,58.5 205.9,58.5 Z" id="Path" fill="#45319C"></path>
                    <path d="M215.1,2 L19.4,2 C17.7,2 16,3 15.1,4.7 L3.1,27.3 C2.1,29.1 2.1,31.4 3.1,33.2 L15.1,55.8 C16,57.5 17.7,58.5 19.4,58.5 L193.1,58.5 C194.6,58.5 195.9,57.6 196.4,56.2 L215.6,2.7 C215.6,2.6 215.6,2.6 215.6,2.5 C215.6,2.2 215.4,2 215.1,2 Z" id="Path" fill="url(#linearGradient-2)"></path>
                    <path d="M401.6,60 L205.9,60 C204.8,60 203.9,59.1 203.9,58 C203.9,57.8 203.9,57.5 204,57.3 L223.2,3.8 C223.9,1.8 225.8,0.5 227.9,0.5 L401.6,0.5 C403.9,0.5 406.1,1.9 407.2,4 L419.2,26.6 C420.4,28.8 420.4,31.6 419.2,33.9 L407.2,56.5 C406,58.6 403.9,60 401.6,60 Z M207.3,57 L401.6,57 C402.8,57 403.9,56.3 404.6,55 L416.6,32.4 C417.3,31 417.3,29.3 416.6,28 L404.6,5.4 C404,4.2 402.8,3.4 401.6,3.4 L227.9,3.4 C227.1,3.4 226.3,3.9 226,4.7 L207.3,57 Z" id="Shape" fill="#E7D6FF" fill-rule="nonzero"></path>
                    <path d="M193.1,60 L19.4,60 C17.1,60 14.9,58.6 13.8,56.5 L1.8,33.9 C0.6,31.7 0.6,28.9 1.8,26.6 L13.8,4 C15,1.8 17.1,0.5 19.4,0.5 L215.1,0.5 C216.2,0.5 217.1,1.4 217.1,2.5 C217.1,2.7 217.1,3 217,3.2 L197.8,56.7 C197.1,58.7 195.2,60 193.1,60 Z M19.4,3.5 C18.2,3.5 17.1,4.2 16.4,5.5 L4.4,28 C3.7,29.4 3.7,31.1 4.4,32.4 L16.4,55 C17,56.2 18.2,57 19.4,57 L193.1,57 C193.9,57 194.7,56.5 195,55.7 L213.7,3.5 L19.4,3.5 Z" id="Shape" fill="#E7D6FF" fill-rule="nonzero"></path>
                </g>
            </g>
        </g>
    </g>
</svg>