<?xml version="1.0" encoding="UTF-8"?>
<svg width="207px" height="226px" viewBox="0 0 207 226" version="1.1" xmlns="http://www.w3.org/2000/svg" xmlns:xlink="http://www.w3.org/1999/xlink">
    <!-- Generator: Sketch 58 (84663) - https://sketch.com -->
    <title>Group 9</title>
    <desc>Created with Sketch.</desc>
    <g id="Page-1" stroke="none" stroke-width="1" fill="none" fill-rule="evenodd">
        <g id="popup_Loading\" transform="translate(-281.000000, -355.000000)" stroke="#422A9B" stroke-width="2">
            <g id="Group" transform="translate(282.000000, 356.000000)">
                <g id="Group-12">
                    <g id="Group-3">
                        <g id="Group-9" transform="translate(-0.000339, 0.340145)">
                            <path d="M190.79006,60.9176246 C188.191456,56.4293215 184.440583,52.6869226 179.941537,50.0955739 L117.203941,13.9623069 C112.702894,11.368977 107.576701,10 102.379492,10 C97.183283,10 92.0570904,11.368977 87.5560432,13.9623069 L24.8184475,50.0955739 C20.3184006,52.6869226 16.5675279,56.4293215 13.9699236,60.9176246 C11.3733195,65.4039465 10,70.5143318 10,75.6960387 L10,147.963563 C10,153.14428 11.3733195,158.255655 13.9699236,162.741977 C16.5675279,167.23028 20.3184006,170.972679 24.8184475,173.564028 L87.5560432,209.697295 C92.0570904,212.289634 97.183283,213.659602 102.379492,213.659602 C107.576701,213.659602 112.702894,212.289634 117.203941,209.697295 L179.941537,173.564028 C184.440583,170.972679 188.191456,167.23028 190.79006,162.741977 C193.386665,158.255655 194.758984,153.14428 194.758984,147.963563 L194.758984,75.6960387 C194.758984,70.5143318 193.386665,65.4039465 190.79006,60.9176246" id="Fill-1"></path>
                            <path d="M200.360428,55.9178921 C197.480527,50.9888238 193.323625,46.8789098 188.337561,44.0330827 L118.808675,4.35141762 C113.820393,1.50341479 108.139294,-5.68434189e-14 102.379492,-5.68434189e-14 C96.6207979,-5.68434189e-14 90.9396994,1.50341479 85.9514178,4.35141762 L16.4225316,44.0330827 C11.4353585,46.8789098 7.27845713,50.9888238 4.39966439,55.9178921 C1.52198015,60.8447847 1.84741111e-13,66.4570256 1.84741111e-13,72.1475919 L1.84741111e-13,151.51201 C1.84741111e-13,157.201489 1.52198015,162.814817 4.39966439,167.74171 C7.27845713,172.670778 11.4353585,176.780692 16.4225316,179.626519 L85.9514178,219.308184 C90.9396994,222.155099 96.6207979,223.659602 102.379492,223.659602 C108.139294,223.659602 113.820393,222.155099 118.808675,219.308184 L188.337561,179.626519 C193.323625,176.780692 197.480527,172.670778 200.360428,167.74171 C203.238112,162.814817 204.758984,157.201489 204.758984,151.51201 L204.758984,72.1475919 C204.758984,66.4570256 203.238112,60.8447847 200.360428,55.9178921" id="Fill-1"></path>
                        </g>
                    </g>
                </g>
            </g>
        </g>
    </g>
</svg>