<?xml version="1.0" encoding="UTF-8"?>
<svg width="62px" height="73px" viewBox="0 0 62 73" version="1.1" xmlns="http://www.w3.org/2000/svg" xmlns:xlink="http://www.w3.org/1999/xlink">
    <!-- Generator: Sketch 58 (84663) - https://sketch.com -->
    <title>btn_close copy</title>
    <desc>Created with Sketch.</desc>
    <g id="Page-1" stroke="none" stroke-width="1" fill="none" fill-rule="evenodd">
        <g id="popup_menu_login" transform="translate(-538.000000, -168.000000)">
            <g id="btn_close-copy" transform="translate(538.000000, 168.809187)">
                <path d="M57.9,17.4 L35.1,5.5 C32.6,4.2 29.4,4.2 26.8,5.5 L4.1,17.4 C1.6,18.8 0,21.2 0,23.9 L0,52 C0,54.7 1.6,57.1 4.1,58.5 L26.9,70.4 C28.2,71.1 29.6,71.4 31,71.4 C32.4,71.4 33.9,71.1 35.1,70.4 L57.9,58.5 C60.4,57.2 62,54.7 62,52 L62,23.9 C62,21.2 60.4,18.8 57.9,17.4 Z" id="Path" fill="#67329C"></path>
                <path d="M57.4,13.9 L34.7,2 C32.4,0.8 29.6,0.8 27.4,2 L4.6,13.9 C2.4,15.1 1,17.2 1,19.5 L1,47.6 C1,49.9 2.4,52 4.6,53.2 L27.4,65.1 C29.7,66.3 32.5,66.3 34.7,65.1 L57.5,53.2 C59.7,52 61.1,49.9 61.1,47.6 L61.1,19.5 C61,17.2 59.6,15.1 57.4,13.9 Z" id="Path" fill="#45319C"></path>
                <g id="Fill-1-Copy-5_1_" fill="#B16DF5" fill-rule="nonzero">
                    <path d="M31,67 C29.6,67 28.1,66.7 26.9,66 L4.1,54 C1.6,52.7 0,50.2 0,47.6 L0,19.5 C0,16.8 1.6,14.4 4.1,13 L26.9,1.1 C29.4,-0.2 32.6,-0.2 35.2,1.1 L57.9,13 C60.4,14.3 62,16.8 62,19.5 L62,47.6 C62,50.3 60.4,52.7 57.9,54.1 L35.1,66 C33.9,66.7 32.4,67 31,67 Z M31,2.1 C29.9,2.1 28.8,2.4 27.8,2.9 L5,14.8 C3.1,15.8 2,17.6 2,19.5 L2,47.6 C2,49.5 3.2,51.3 5,52.3 L27.8,64.2 C29.8,65.2 32.2,65.2 34.2,64.2 L57,52.3 C58.9,51.3 60,49.5 60,47.6 L60,19.5 C60,17.6 58.8,15.8 57,14.8 L34.2,2.9 C33.2,2.3 32.1,2.1 31,2.1 Z" id="Shape"></path>
                </g>
                <polygon id="Fill-1" fill="#FFFFFF" points="46.4 47.5 32.1 33.2 46.4 18.9 44.5 17 30.2 31.3 15.9 17 14 18.9 28.3 33.2 14 47.5 15.9 49.4 30.2 35.1 44.5 49.4"></polygon>
            </g>
        </g>
    </g>
</svg>