<?xml version="1.0" encoding="UTF-8"?>
<svg width="493px" height="295px" viewBox="0 0 493 295" version="1.1" xmlns="http://www.w3.org/2000/svg" xmlns:xlink="http://www.w3.org/1999/xlink">
    <!-- Generator: Sketch 58 (84663) - https://sketch.com -->
    <title>Group 37</title>
    <desc>Created with Sketch.</desc>
    <defs>
        <filter x="-49.3%" y="-44.8%" width="198.5%" height="189.5%" filterUnits="objectBoundingBox" id="filter-1">
            <feGaussianBlur stdDeviation="6" in="SourceGraphic"></feGaussianBlur>
        </filter>
        <linearGradient x1="93.5011755%" y1="23.7624334%" x2="13.8110502%" y2="103.097075%" id="linearGradient-2">
            <stop stop-color="#004D02" offset="0%"></stop>
            <stop stop-color="#005202" offset="24%"></stop>
            <stop stop-color="#006103" offset="52%"></stop>
            <stop stop-color="#007903" offset="83%"></stop>
            <stop stop-color="#008A04" offset="100%"></stop>
        </linearGradient>
        <linearGradient x1="94.9628687%" y1="27.245567%" x2="-7.03323758%" y2="64.9561157%" id="linearGradient-3">
            <stop stop-color="#00A605" offset="0%"></stop>
            <stop stop-color="#53E358" offset="34%"></stop>
            <stop stop-color="#4EDF53" offset="47%"></stop>
            <stop stop-color="#3FD544" offset="62%"></stop>
            <stop stop-color="#27C32C" offset="79%"></stop>
            <stop stop-color="#06AA0B" offset="97%"></stop>
            <stop stop-color="#00A605" offset="100%"></stop>
        </linearGradient>
        <linearGradient x1="102.732376%" y1="36.0105107%" x2="14.9772846%" y2="90.6490518%" id="linearGradient-4">
            <stop stop-color="#004D02" offset="0%"></stop>
            <stop stop-color="#005202" offset="24%"></stop>
            <stop stop-color="#006103" offset="52%"></stop>
            <stop stop-color="#007903" offset="83%"></stop>
            <stop stop-color="#008A04" offset="100%"></stop>
        </linearGradient>
        <linearGradient x1="102.613173%" y1="39.833664%" x2="1.26733307%" y2="58.1654184%" id="linearGradient-5">
            <stop stop-color="#00A605" offset="0%"></stop>
            <stop stop-color="#53E358" offset="34%"></stop>
            <stop stop-color="#4EDF53" offset="47%"></stop>
            <stop stop-color="#3FD544" offset="62%"></stop>
            <stop stop-color="#27C32C" offset="79%"></stop>
            <stop stop-color="#06AA0B" offset="97%"></stop>
            <stop stop-color="#00A605" offset="100%"></stop>
        </linearGradient>
        <linearGradient x1="82.2593651%" y1="52.6297522%" x2="-5.95047619%" y2="78.0976787%" id="linearGradient-6">
            <stop stop-color="#004D02" offset="0%"></stop>
            <stop stop-color="#005202" offset="24%"></stop>
            <stop stop-color="#006103" offset="52%"></stop>
            <stop stop-color="#007903" offset="83%"></stop>
            <stop stop-color="#008A04" offset="100%"></stop>
        </linearGradient>
        <linearGradient x1="86.0177456%" y1="50.5871302%" x2="-14.8560631%" y2="54.6988704%" id="linearGradient-7">
            <stop stop-color="#00A605" offset="0%"></stop>
            <stop stop-color="#53E358" offset="34%"></stop>
            <stop stop-color="#4EDF53" offset="47%"></stop>
            <stop stop-color="#3FD544" offset="62%"></stop>
            <stop stop-color="#27C32C" offset="79%"></stop>
            <stop stop-color="#06AA0B" offset="97%"></stop>
            <stop stop-color="#00A605" offset="100%"></stop>
        </linearGradient>
        <linearGradient x1="6.4984009%" y1="23.7624334%" x2="86.1692541%" y2="103.097075%" id="linearGradient-8">
            <stop stop-color="#004D02" offset="0%"></stop>
            <stop stop-color="#005202" offset="24%"></stop>
            <stop stop-color="#006103" offset="52%"></stop>
            <stop stop-color="#007903" offset="83%"></stop>
            <stop stop-color="#008A04" offset="100%"></stop>
        </linearGradient>
        <linearGradient x1="5.05935809%" y1="27.245567%" x2="107.035594%" y2="64.9561157%" id="linearGradient-9">
            <stop stop-color="#00A605" offset="0%"></stop>
            <stop stop-color="#53E358" offset="34%"></stop>
            <stop stop-color="#4EDF53" offset="47%"></stop>
            <stop stop-color="#3FD544" offset="62%"></stop>
            <stop stop-color="#27C32C" offset="79%"></stop>
            <stop stop-color="#06AA0B" offset="97%"></stop>
            <stop stop-color="#00A605" offset="100%"></stop>
        </linearGradient>
        <linearGradient x1="4.15878073%" y1="32.3967205%" x2="92.2372013%" y2="87.0736979%" id="linearGradient-10">
            <stop stop-color="#004D02" offset="0%"></stop>
            <stop stop-color="#005202" offset="24%"></stop>
            <stop stop-color="#006103" offset="52%"></stop>
            <stop stop-color="#007903" offset="83%"></stop>
            <stop stop-color="#008A04" offset="100%"></stop>
        </linearGradient>
        <linearGradient x1="4.22629313%" y1="38.0563733%" x2="105.882217%" y2="56.375282%" id="linearGradient-11">
            <stop stop-color="#00A605" offset="0%"></stop>
            <stop stop-color="#53E358" offset="34%"></stop>
            <stop stop-color="#4EDF53" offset="47%"></stop>
            <stop stop-color="#3FD544" offset="62%"></stop>
            <stop stop-color="#27C32C" offset="79%"></stop>
            <stop stop-color="#06AA0B" offset="97%"></stop>
            <stop stop-color="#00A605" offset="100%"></stop>
        </linearGradient>
        <linearGradient x1="7.33098201%" y1="42.4651174%" x2="95.473187%" y2="67.5719959%" id="linearGradient-12">
            <stop stop-color="#004D02" offset="0%"></stop>
            <stop stop-color="#005202" offset="24%"></stop>
            <stop stop-color="#006103" offset="52%"></stop>
            <stop stop-color="#007903" offset="83%"></stop>
            <stop stop-color="#008A04" offset="100%"></stop>
        </linearGradient>
        <linearGradient x1="3.07543611%" y1="47.0223122%" x2="103.809199%" y2="51.016053%" id="linearGradient-13">
            <stop stop-color="#00A605" offset="0%"></stop>
            <stop stop-color="#53E358" offset="34%"></stop>
            <stop stop-color="#4EDF53" offset="47%"></stop>
            <stop stop-color="#3FD544" offset="62%"></stop>
            <stop stop-color="#27C32C" offset="79%"></stop>
            <stop stop-color="#06AA0B" offset="97%"></stop>
            <stop stop-color="#00A605" offset="100%"></stop>
        </linearGradient>
        <linearGradient x1="29.7417736%" y1="5.72105907%" x2="60.0140665%" y2="71.8863367%" id="linearGradient-14">
            <stop stop-color="#F4D58D" offset="26%"></stop>
            <stop stop-color="#8F43C9" offset="100%"></stop>
        </linearGradient>
        <linearGradient x1="101.003233%" y1="28.5002541%" x2="-48.0102553%" y2="97.8235345%" id="linearGradient-15">
            <stop stop-color="#FFFFFF" offset="26%"></stop>
            <stop stop-color="#F4D58D" offset="100%"></stop>
        </linearGradient>
        <linearGradient x1="-1.09216539%" y1="71.7789621%" x2="147.899253%" y2="1.51426499%" id="linearGradient-16">
            <stop stop-color="#551D91" offset="1%"></stop>
            <stop stop-color="#8F43C9" offset="100%"></stop>
        </linearGradient>
        <linearGradient x1="-1.04782076%" y1="71.7517841%" x2="147.965667%" y2="1.51392666%" id="linearGradient-17">
            <stop stop-color="#FFFFFF" offset="26%"></stop>
            <stop stop-color="#F4D58D" offset="100%"></stop>
        </linearGradient>
        <linearGradient x1="31.6933661%" y1="17.0863075%" x2="64.8659958%" y2="70.3619469%" id="linearGradient-18">
            <stop stop-color="#CD8BFF" offset="0%"></stop>
            <stop stop-color="#9257D1" offset="100%"></stop>
        </linearGradient>
        <linearGradient x1="50%" y1="102.835063%" x2="50%" y2="-10.8316558%" id="linearGradient-19">
            <stop stop-color="#F4D58D" offset="0%"></stop>
            <stop stop-color="#8F43C9" offset="69%"></stop>
        </linearGradient>
        <linearGradient x1="53.8681046%" y1="50.0419048%" x2="38.7163206%" y2="50.5485714%" id="linearGradient-20">
            <stop stop-color="#FFFFFF" offset="3%"></stop>
            <stop stop-color="#8F43C9" stop-opacity="0" offset="100%"></stop>
        </linearGradient>
        <linearGradient x1="100%" y1="98.3455253%" x2="0%" y2="98.3455253%" id="linearGradient-21">
            <stop stop-color="#C0A0FF" offset="0%"></stop>
            <stop stop-color="#9259FF" offset="6.01474492%"></stop>
            <stop stop-color="#9258FF" offset="50.3451352%"></stop>
            <stop stop-color="#9057FD" offset="93.9821473%"></stop>
            <stop stop-color="#C0A0FF" offset="100%"></stop>
        </linearGradient>
        <path d="M5.99999992,0.365077587 L159,0.365077587 C162.313708,0.365077587 165,3.05136909 165,6.36507759 L165,37.3888889 C165,38.4934584 164.104569,39.3888889 163,39.3888889 L1.99999992,39.3888889 C0.895430425,39.3888889 -7.57963788e-08,38.4934584 -7.5796379e-08,37.3888889 L-7.5796379e-08,6.36507759 C-7.57963794e-08,3.05136909 2.68629143,0.365077587 5.99999992,0.365077587 Z" id="path-22"></path>
        <filter x="-1.2%" y="-5.1%" width="102.4%" height="110.3%" filterUnits="objectBoundingBox" id="filter-23">
            <feGaussianBlur stdDeviation="1.5" in="SourceAlpha" result="shadowBlurInner1"></feGaussianBlur>
            <feOffset dx="0" dy="1" in="shadowBlurInner1" result="shadowOffsetInner1"></feOffset>
            <feComposite in="shadowOffsetInner1" in2="SourceAlpha" operator="arithmetic" k2="-1" k3="1" result="shadowInnerInner1"></feComposite>
            <feColorMatrix values="0 0 0 0 1   0 0 0 0 0.844119675   0 0 0 0 0.823054766  0 0 0 1 0" type="matrix" in="shadowInnerInner1"></feColorMatrix>
        </filter>
        <linearGradient x1="49.9237114%" y1="136.95289%" x2="49.9237114%" y2="5.51696343%" id="linearGradient-24">
            <stop stop-color="#F4D58D" offset="0%"></stop>
            <stop stop-color="#FFFFFF" offset="100%"></stop>
        </linearGradient>
        <linearGradient x1="0.127508212%" y1="49.8918684%" x2="100.21509%" y2="49.8918684%" id="linearGradient-25">
            <stop stop-color="#F4D58D" offset="0%"></stop>
            <stop stop-color="#FFFFFF" offset="100%"></stop>
        </linearGradient>
        <linearGradient x1="0.127259077%" y1="49.9934353%" x2="100.019282%" y2="49.9934353%" id="linearGradient-26">
            <stop stop-color="#F4D58D" offset="0%"></stop>
            <stop stop-color="#FFFFFF" offset="100%"></stop>
        </linearGradient>
        <linearGradient x1="40.031736%" y1="20.6709994%" x2="64.0884288%" y2="87.6744128%" id="linearGradient-27">
            <stop stop-color="#F4D58D" offset="0%"></stop>
            <stop stop-color="#FB6960" offset="100%"></stop>
        </linearGradient>
        <linearGradient x1="92.8148148%" y1="28.8409989%" x2="-56.2445241%" y2="99.388707%" id="linearGradient-28">
            <stop stop-color="#FFFFFF" offset="26%"></stop>
            <stop stop-color="#F4D58D" offset="100%"></stop>
        </linearGradient>
        <linearGradient x1="53.0482456%" y1="155.560329%" x2="53.0482456%" y2="39.5615555%" id="linearGradient-29">
            <stop stop-color="#F4D58D" offset="0%"></stop>
            <stop stop-color="#D64645" offset="100%"></stop>
        </linearGradient>
        <linearGradient x1="54.0197481%" y1="49.3208987%" x2="39.3649991%" y2="50.3205585%" id="linearGradient-30">
            <stop stop-color="#FFFFFF" offset="3%"></stop>
            <stop stop-color="#8F43C9" stop-opacity="0" offset="100%"></stop>
        </linearGradient>
        <linearGradient x1="-12.7636291%" y1="69.9496646%" x2="134.207123%" y2="0.0381718975%" id="linearGradient-31">
            <stop stop-color="#D8524B" offset="0%"></stop>
            <stop stop-color="#D64645" offset="100%"></stop>
        </linearGradient>
        <linearGradient x1="26.5135413%" y1="6.50033915%" x2="75.9855516%" y2="98.1288267%" id="linearGradient-32">
            <stop stop-color="#FFFFFF" offset="0%"></stop>
            <stop stop-color="#D64645" offset="53%"></stop>
            <stop stop-color="#8E2020" offset="100%"></stop>
        </linearGradient>
        <linearGradient x1="109.394087%" y1="89.8896554%" x2="38.2594158%" y2="22.487074%" id="linearGradient-33">
            <stop stop-color="#FFFFFF" offset="0%"></stop>
            <stop stop-color="#D64645" offset="53.3496334%"></stop>
            <stop stop-color="#2C0B0B" offset="100%"></stop>
        </linearGradient>
        <linearGradient x1="76.5719696%" y1="-5.25976209%" x2="24.7554473%" y2="96.8851921%" id="linearGradient-34">
            <stop stop-color="#FFFFFF" offset="0%"></stop>
            <stop stop-color="#D64645" offset="53%"></stop>
            <stop stop-color="#2C0B0B" offset="100%"></stop>
        </linearGradient>
        <linearGradient x1="100%" y1="98.3455253%" x2="0%" y2="98.3455253%" id="linearGradient-35">
            <stop stop-color="#C0A0FF" offset="0%"></stop>
            <stop stop-color="#D04856" offset="6.01474492%"></stop>
            <stop stop-color="#FF6160" offset="50.3451352%"></stop>
            <stop stop-color="#D3474E" offset="93.9821473%"></stop>
            <stop stop-color="#C0A0FF" offset="100%"></stop>
        </linearGradient>
        <path d="M7.11517067,0.301144517 L145.617552,0.301144517 C149.262631,0.301144517 152.217552,3.25606517 152.217552,6.90114452 L152.217552,34.5331429 C152.217552,35.7481693 151.232578,36.7331429 150.017552,36.7331429 L2.71517067,36.7331429 C1.50014422,36.7331429 0.515170666,35.7481693 0.515170666,34.5331429 L0.515170666,6.90114452 C0.515170666,3.25606517 3.47009132,0.301144517 7.11517067,0.301144517 Z" id="path-36"></path>
        <filter x="-2.3%" y="-9.6%" width="104.6%" height="119.2%" filterUnits="objectBoundingBox" id="filter-37">
            <feGaussianBlur stdDeviation="3" in="SourceAlpha" result="shadowBlurInner1"></feGaussianBlur>
            <feOffset dx="0" dy="1" in="shadowBlurInner1" result="shadowOffsetInner1"></feOffset>
            <feComposite in="shadowOffsetInner1" in2="SourceAlpha" operator="arithmetic" k2="-1" k3="1" result="shadowInnerInner1"></feComposite>
            <feColorMatrix values="0 0 0 0 0.996837798   0 0 0 0 0.848580232   0 0 0 0 0.504240079  0 0 0 1 0" type="matrix" in="shadowInnerInner1"></feColorMatrix>
        </filter>
        <linearGradient x1="39.4599175%" y1="6.18691664%" x2="67.8324223%" y2="124.112145%" id="linearGradient-38">
            <stop stop-color="#F4D58D" offset="0%"></stop>
            <stop stop-color="#4958DF" offset="100%"></stop>
        </linearGradient>
        <linearGradient x1="93.5651135%" y1="28.70417%" x2="-55.4942254%" y2="99.708089%" id="linearGradient-39">
            <stop stop-color="#FFFFFF" offset="26%"></stop>
            <stop stop-color="#F4D58D" offset="100%"></stop>
        </linearGradient>
        <linearGradient x1="-11.6146041%" y1="69.9832551%" x2="136.355949%" y2="-0.0698154874%" id="linearGradient-40">
            <stop stop-color="#464DD3" offset="0%"></stop>
            <stop stop-color="#4547CD" offset="100%"></stop>
        </linearGradient>
        <linearGradient x1="-8.43232484%" y1="69.9583431%" x2="140.567675%" y2="-1.32310532%" id="linearGradient-41">
            <stop stop-color="#FFFFFF" offset="26%"></stop>
            <stop stop-color="#F4D58D" offset="100%"></stop>
        </linearGradient>
        <linearGradient x1="52.6184211%" y1="155.573935%" x2="52.6184211%" y2="39.5751618%" id="linearGradient-42">
            <stop stop-color="#F4D58D" offset="0%"></stop>
            <stop stop-color="#4B66ED" offset="100%"></stop>
        </linearGradient>
        <linearGradient x1="53.9951647%" y1="49.3276977%" x2="39.4345747%" y2="50.3273575%" id="linearGradient-43">
            <stop stop-color="#FFFFFF" offset="3%"></stop>
            <stop stop-color="#8F43C9" stop-opacity="0" offset="100%"></stop>
        </linearGradient>
        <linearGradient x1="26.6665723%" y1="6.49802331%" x2="75.8162372%" y2="98.122335%" id="linearGradient-44">
            <stop stop-color="#FFFAF0" offset="0%"></stop>
            <stop stop-color="#4B66ED" offset="58%"></stop>
            <stop stop-color="#2E3192" offset="100%"></stop>
        </linearGradient>
        <linearGradient x1="100%" y1="98.3455253%" x2="0%" y2="98.3455253%" id="linearGradient-45">
            <stop stop-color="#C0A0FF" offset="0%"></stop>
            <stop stop-color="#4B66ED" offset="6.01474492%"></stop>
            <stop stop-color="#4B66ED" offset="50.3451352%"></stop>
            <stop stop-color="#4B66ED" offset="93.9821473%"></stop>
            <stop stop-color="#C0A0FF" offset="100%"></stop>
        </linearGradient>
        <path d="M7.11517067,0.301144517 L145.617552,0.301144517 C149.262631,0.301144517 152.217552,3.25606517 152.217552,6.90114452 L152.217552,34.5331429 C152.217552,35.7481693 151.232578,36.7331429 150.017552,36.7331429 L2.71517067,36.7331429 C1.50014422,36.7331429 0.515170666,35.7481693 0.515170666,34.5331429 L0.515170666,6.90114452 C0.515170666,3.25606517 3.47009132,0.301144517 7.11517067,0.301144517 Z" id="path-46"></path>
        <filter x="-2.3%" y="-9.6%" width="104.6%" height="119.2%" filterUnits="objectBoundingBox" id="filter-47">
            <feGaussianBlur stdDeviation="3" in="SourceAlpha" result="shadowBlurInner1"></feGaussianBlur>
            <feOffset dx="0" dy="1" in="shadowBlurInner1" result="shadowOffsetInner1"></feOffset>
            <feComposite in="shadowOffsetInner1" in2="SourceAlpha" operator="arithmetic" k2="-1" k3="1" result="shadowInnerInner1"></feComposite>
            <feColorMatrix values="0 0 0 0 1   0 0 0 0 1   0 0 0 0 1  0 0 0 1 0" type="matrix" in="shadowInnerInner1"></feColorMatrix>
        </filter>
    </defs>
    <g id="Page-1" stroke="none" stroke-width="1" fill="none" fill-rule="evenodd">
        <g id="mainpage_history_my-history" transform="translate(-137.000000, -71.000000)">
            <g id="Group-37" transform="translate(137.000000, 64.000000)">
                <g id="win" transform="translate(165.000000, 0.000000)">
                    <g id="Group-10" transform="translate(64.000000, 20.000000)" fill="#FFEC72">
                        <g id="Group-3">
                            <polygon id="Fill-1" points="18.3307592 29.6280114 18.291249 29.6280114 4.6925551 29.6280114 4.6925551 37.3457384 18.291249 37.3457384 18.3307592 37.3457384 31.931249 37.3457384 31.931249 29.6280114"></polygon>
                            <polygon id="Fill-2" points="18.3307592 0 18.3110041 0.0359492063 18.291249 0 18.291249 0.0718984127 9.66724898 15.7344 -0.000179591837 6.11704127 4.21663673 23.9516317 17.9248816 23.9516317 18.3110041 23.9364952 18.6989224 23.9516317 32.4053714 23.9516317 36.6239837 6.11704127 26.9565551 15.7344 18.3307592 0.0718984127"></polygon>
                        </g>
                        <ellipse id="Oval" opacity="0.563174293" filter="url(#filter-1)" cx="18.2678571" cy="21.2857143" rx="18.2678571" ry="20.1031746"></ellipse>
                    </g>
                    <g id="자산-45" transform="translate(5.892857, 58.674603)">
                        <g id="Group-8" transform="translate(12.000000, 0.000000)">
                            <path d="M100.103674,0.578652853 C101.321791,3.07200562 87.4900798,41.8582126 72.5681548,23.4333071 C58.3466466,5.83088426 98.6845689,-2.33565557 100.103674,0.578652853 Z" id="Path" fill="#00A605"></path>
                            <path d="M100.105523,0 C101.293574,2.55912668 87.8032577,42.1363183 73.2496362,23.329713 C73.1842934,23.2503602 73.1308311,23.1643947 73.0714286,23.0784292 C82.3916866,15.7713621 91.5099759,8.31881489 100.105523,0 Z" id="Path" fill="#008A04"></path>
                            <path d="M93.7665613,15.33478 C96.691129,11.5416079 98.8738196,7.12663608 100.178571,2.36507937 C98.4483465,10.5814176 87.5461331,36.7578286 75.4285714,25.6973733 C82.3554582,25.2891898 88.80339,21.5694533 93.7665613,15.33478 Z" id="Path" fill="url(#linearGradient-2)"></path>
                            <path d="M97.8214286,1.18253968 C97.8214286,1.18253968 89.6360073,2.09290016 82.8168291,5.01255627 C78.6037446,6.82027207 70.9780616,11.9703114 71.9831832,17.7380952 C71.9892019,17.7380952 73.8911086,8.29635656 97.8214286,1.18253968 Z" id="Path" fill="url(#linearGradient-3)"></path>
                            <path d="M116.650527,9.18107454 C117.421171,11.4342791 102.141784,42.8806059 91.4559211,25.5644335 C81.2555038,9.02998502 115.746385,6.54029255 116.650527,9.18107454 Z" id="Path" fill="#00A605"></path>
                            <path d="M116.652016,9.46031746 C117.392416,11.6974365 102.48964,42.7188201 92.0588819,25.6324184 C92.0114963,25.5546055 91.975957,25.4767927 91.9285714,25.3989799 C100.413231,20.5523574 108.665221,15.2324807 116.652016,9.46031746 L116.652016,9.46031746 Z" id="Path" fill="#008A04"></path>
                            <path d="M109.908709,20.9464416 C112.790563,18.0543486 115.095006,14.5470358 116.678571,10.6428571 C114.395282,17.4538147 102.461861,38.5436499 93.1071429,27.7037696 C99.1138568,28.1596211 105.028254,25.7194749 109.908709,20.9464416 Z" id="Path" fill="url(#linearGradient-4)"></path>
                            <path d="M115.5,9.46321219 C115.5,9.46321219 108.468106,9.32503086 102.370136,10.9580829 C98.6039215,11.969319 91.6330683,15.3547616 91.938272,20.1031746 C91.938272,20.1031746 94.4653589,12.6602257 115.5,9.46321219 Z" id="Path" fill="url(#linearGradient-5)"></path>
                            <path d="M127.282871,22.2905904 C127.526349,24.0986605 112.065465,44.9866276 106.739373,30.2365825 C101.681107,16.1594656 127.002871,20.1902383 127.282871,22.2905904 Z" id="Path" fill="#00A605"></path>
                            <path d="M127.283216,21.2857143 C127.508109,23.0825589 112.487635,43.6725211 107.309182,29.1234433 C107.309182,29.0631015 107.273673,28.9960551 107.25,28.9357133 C114.037907,26.7721442 120.724283,24.2188461 127.283216,21.2857143 L127.283216,21.2857143 Z" id="Path" fill="#008A04"></path>
                            <path d="M119.959116,28.8800091 C122.378181,27.2473398 124.471663,25.0640553 126.107143,22.468254 C123.586871,27.0567933 112.368367,40.4564128 107.25,30.9811128 C111.404558,32.3434414 115.888367,31.5504442 119.959116,28.8800091 Z" id="Path" fill="url(#linearGradient-6)"></path>
                            <path d="M126.107143,22.2193292 C122.875979,21.5399867 119.573027,21.22943 116.266478,21.2940709 C113.353939,21.4253979 107.745751,22.6909125 107.25,26.015873 C107.268591,26.015873 110.218311,21.2881015 126.107143,22.2193292 Z" id="Path" fill="url(#linearGradient-7)"></path>
                            <path d="M27.1820454,0.578652853 C25.9643314,3.07200562 39.7853857,41.8582126 54.7023826,23.4333071 C68.9679025,5.83088426 28.6006823,-2.33565557 27.1820454,0.578652853 Z" id="Path" fill="#00A605"></path>
                            <path d="M27.1801917,0 C25.992141,2.55912668 39.4824569,42.1363183 54.0301379,23.329713 C54.0954806,23.2503602 54.1489429,23.1643947 54.2142857,23.0784292 C44.8940279,15.7713621 35.7697984,8.31881489 27.1801917,0 Z" id="Path" fill="#008A04"></path>
                            <path d="M33.5176023,15.33478 C30.5937419,11.5416079 28.4115791,7.12663608 27.1071429,2.36507937 C28.8369494,10.5814176 39.7305407,36.7578286 51.8571429,25.6973733 C44.9259458,25.2891898 38.4795733,21.5694533 33.5176023,15.33478 Z" id="Path" fill="url(#linearGradient-8)"></path>
                            <path d="M29.4642857,1.18253968 C29.4642857,1.18253968 37.6300598,2.09290016 44.4719796,5.01255627 C48.6842434,6.82027207 56.3024232,11.9703114 55.3035149,17.7380952 C55.2974974,17.7380952 53.3959612,8.29635656 29.4642857,1.18253968 Z" id="Path" fill="url(#linearGradient-9)"></path>
                            <path d="M10.634359,9.18107454 C9.87582764,11.4342791 25.1374779,42.8806059 35.8297355,25.5644335 C46.0304648,9.02998502 11.5385283,6.54029255 10.634359,9.18107454 Z" id="Path" fill="#00A605"></path>
                            <path d="M11.8122762,9.46031746 C11.0716987,11.6974365 25.9780419,42.7188201 36.4112973,25.6324184 C36.4586942,25.5546055 36.4942419,25.4767927 36.5357143,25.3989799 C28.0516835,20.5508926 19.7997585,15.2310561 11.8122762,9.46031746 L11.8122762,9.46031746 Z" id="Path" fill="#008A04"></path>
                            <path d="M17.3770048,20.9129231 C14.4989737,18.0302332 12.1948032,14.5347436 10.6071429,10.6428571 C12.8842783,17.4538147 24.7930809,38.5436499 34.1785714,27.7037696 C28.1657031,28.1261026 22.2574599,25.6859564 17.3770048,20.9129231 Z" id="Path" fill="url(#linearGradient-10)"></path>
                            <path d="M12.9642857,9.46321219 C12.9642857,9.46321219 19.9962925,9.32503086 26.0943608,10.9580829 C29.8545311,11.969319 36.8254961,15.3547616 36.5263917,20.1031746 C36.5263917,20.1031746 33.9992642,12.6602257 12.9642857,9.46321219 Z" id="Path" fill="url(#linearGradient-11)"></path>
                            <path d="M0.00270455102,22.2905904 C-0.234671666,24.0986605 15.2191287,44.9866276 20.5448772,30.2365825 C25.6089032,16.1594656 0.288773326,20.1902383 0.00270455102,22.2905904 Z" id="Path" fill="#00A605"></path>
                            <path d="M1.18106415,21.2857143 C0.95623768,23.0825589 16.0018616,43.6725211 21.1492044,29.1234433 C21.1492044,29.0631015 21.1906198,28.9960551 21.2142857,28.9357133 C14.4261618,26.7731704 7.7397429,24.2198568 1.18106415,21.2857143 L1.18106415,21.2857143 Z" id="Path" fill="#008A04"></path>
                            <path d="M7.32061224,28.8800091 C4.90495716,27.2446947 2.81387724,25.0617895 1.17857143,22.468254 C3.69884354,27.0567933 14.9472789,40.4564128 20.0357143,30.9811128 C15.8751701,32.3434414 11.3973469,31.5504442 7.32061224,28.8800091 Z" id="Path" fill="url(#linearGradient-12)"></path>
                            <path d="M2.35714286,22.2193292 C5.58932783,21.5399867 8.89332471,21.22943 12.2009189,21.2940709 C15.1081802,21.4253979 20.7181407,22.6909125 21.2140489,26.015873 C21.2450431,26.015873 18.2509979,21.2881015 2.35714286,22.2193292 Z" id="Path" fill="url(#linearGradient-13)"></path>
                        </g>
                        <path d="M84.2161341,63.6172083 L82.2238456,62.6141221" id="Path"></path>
                        <path d="M146.216811,44.7012452 L80.9920988,6.94043684 C77.787536,5.09490722 73.846682,5.09490722 70.6421192,6.94043684 L5.40914015,44.7012452 C2.22004409,46.5593592 0.250949911,49.972366 0.234150305,53.6709916 L0.234150305,180.713019 C0.240026062,184.41894 2.21125261,187.841958 5.40914015,189.699345 L70.6338524,227.460154 C73.8384152,229.305683 77.7792693,229.305683 80.9838321,227.460154 L146.216811,189.699345 C149.41276,187.841102 151.381063,184.417691 151.383534,180.713019 L151.383534,53.6709916 C151.370128,49.9736105 149.403957,46.5602186 146.216811,44.7012452 Z" id="Path" fill="#DDA758"></path>
                        <path d="M146.216811,44.4712201 L80.9920988,6.71041173 C77.787536,4.86488212 73.846682,4.86488212 70.6421192,6.71041173 L37.657759,25.7773402 L5.41740691,44.4380602 C2.214961,46.3000496 0.24093015,49.7287849 0.234150305,53.4409665 L0.234150305,180.713019 C0.240026062,184.41894 2.21125261,187.841958 5.40914015,189.699345 L70.6338524,227.460154 C73.8384152,229.305683 77.7792693,229.305683 80.9838321,227.460154 L146.216811,189.699345 C149.41276,187.841102 151.381063,184.417691 151.383534,180.713019 L151.383534,53.4409665 C151.370128,49.7435854 149.403957,46.3301935 146.216811,44.4712201 Z" id="Path" fill="url(#linearGradient-14)"></path>
                        <path d="M76.1610765,18.3468499 L76.1610765,5.32539683 C74.3477835,5.32615717 72.5663557,5.4780944 70.9943534,6.38442481 L38.0099932,25.4513533 L5.76964116,44.1120733 C4.20562186,45.024274 2.9062182,46.3301838 2,47.9005891 L12.5070481,55.0382523 L76.1610765,18.3468499 Z" id="Path" fill="url(#linearGradient-15)" opacity="0.76"></path>
                        <path d="M75.8419093,215.464569 L75.8419093,228.844579 C77.6578032,228.843723 79.4418744,228.366444 81.0168991,227.460154 L114.001259,208.393225 L146.241611,189.724215 C147.811757,188.817201 149.115045,187.510254 150.019519,185.9357 L139.421537,178.756586 L75.8419093,215.464569 Z" id="Path" fill="url(#linearGradient-16)"></path>
                        <path d="M64.5991198,189.890015 L64.5991198,203.270025 C66.4148627,203.268016 68.1986436,202.790815 69.7741097,201.8856 L102.750203,182.818671 L134.990555,164.149661 C136.55647,163.239929 137.856444,161.933446 138.760196,160.361145 L128.195281,153.223482 L64.5991198,189.890015 Z" id="Path" fill="url(#linearGradient-17)" opacity="0.76"></path>
                        <path d="M74.7920311,220.281041 L9.54251862,182.520232 C8.90466613,182.141333 8.50990026,181.456408 8.50090724,180.713019 L8.50090724,52.8353886 C8.5100072,52.0898689 8.90855892,51.4038198 9.55078538,51.0281754 L74.7754976,13.267367 C75.1041912,13.097276 75.4727839,13.0199121 75.8419093,13.0435379 C76.2107296,13.041472 76.5733289,13.1388184 76.8917874,13.3253968 L142.108233,51.0779152 C142.719804,51.4543802 143.09947,52.1159815 143.116777,52.8353886 L143.116777,180.713019 C143.111049,181.457303 142.715422,182.143723 142.075166,182.520232 L76.8504536,220.281041 C76.5433286,220.457694 76.1959577,220.551918 75.8419093,220.554679 C75.4740483,220.557598 75.1119087,220.463235 74.7920311,220.281041 Z" id="Path" fill="url(#linearGradient-18)"></path>
                        <path d="M74.8977791,213.299502 L16.4341914,178.086223 C15.8626754,177.732886 15.508965,177.094169 15.5009072,176.400933 L15.5009072,57.1505546 C15.5090608,56.4553313 15.8661633,55.8155664 16.4415984,55.4652649 L74.8829651,20.2519859 C75.1774746,20.09337 75.5077338,20.0212255 75.8384703,20.0432573 C76.1689335,20.0413308 76.4938226,20.1321097 76.7791615,20.3061007 L135.213121,55.511649 C135.761089,55.8627158 136.10127,56.4796822 136.116777,57.1505546 L136.116777,176.400933 C136.111645,177.095004 135.757163,177.735115 135.183493,178.086223 L76.7421264,213.299502 C76.4669423,213.464237 76.1556979,213.552105 75.8384703,213.554679 C75.5088667,213.557401 75.1843895,213.469404 74.8977791,213.299502 Z" id="Path" fill="url(#linearGradient-19)"></path>
                        <path d="M79.727285,72.6781443 L78.8014083,72.2139061" id="Path"></path>
                        <path d="M81.3971699,130.691347 L80.0662221,130.028149" id="Path"></path>
                        <path d="M78.4128707,136.709864 L77.7928639,136.403135" id="Path"></path>
                        <path d="M151.383534,42.8176763 L151.383534,78.9536508" id="Path"></path>
                        <path d="M10.0498781,51.0675372 C9.40765167,51.4431816 9.00909996,52.1292307 9,52.8747505 L9,188.00067 C9.00736909,188.744505 9.40256253,189.430173 10.0416114,189.807883 C37.4126347,206.498723 58.1263956,218.913035 72.182894,227.050821 C72.4683235,227.216066 73.4409149,227.482643 75.1006683,227.850551 C75.5909406,227.850551 75.9421256,227.850551 76.307935,227.850551 L76.307935,13 C75.9423111,13.0076023 75.585433,13.1135348 75.2745904,13.3067288 L10.0498781,51.0675372 Z" id="Path" fill="url(#linearGradient-20)" opacity="0.156901042"></path>
                    </g>
                    <g id="Group-6" transform="translate(0.000000, 207.214286)">
                        <polygon id="Rectangle" fill="#000000" opacity="0.3" points="2.35714286 35.8412698 160.285714 35.8412698 160.285714 41.4092432 155.912376 46.484127 152.886625 48.8492063 10.6071429 48.8492063 7.57368991 46.484127 5.89285714 40.8552381"></polygon>
                        <path d="M1.17857143,37.3042055 L163.821429,37.3042055 C163.821429,40.4148403 161.299761,42.9365079 158.189126,42.9365079 L6.81087383,42.9365079 C3.70023911,42.9365079 1.17857143,40.4148403 1.17857143,37.3042055 L1.17857143,37.3042055 L1.17857143,37.3042055 Z" id="Rectangle" fill="#5133AA"></path>
                        <g id="Rectangle">
                            <use fill="url(#linearGradient-21)" fill-rule="evenodd" xlink:href="#path-22"></use>
                            <use fill="black" fill-opacity="1" filter="url(#filter-23)" xlink:href="#path-22"></use>
                        </g>
                        
                    </g>
                    <g id="자산-44" transform="translate(55.000000, 93.000000)">
                        <path d="M28.334471,0.407691133 L30.1641729,4.01530891 C30.2644705,4.20979945 30.4569451,4.34455001 30.6794767,4.37607069 L34.7795027,4.95328954 C35.0342385,4.99064407 35.2452041,5.16396126 35.3243045,5.40086729 C35.4034048,5.63777333 35.3370355,5.8975234 35.1529112,6.07165105 L32.1656428,8.86394721 C32.0049495,9.01279643 31.932057,9.22948481 31.9714703,9.44116605 L32.6660102,13.3878999 C32.7289293,13.6382865 32.6326695,13.900929 32.4206826,14.0572704 C32.2086957,14.2136118 31.9210856,14.2340752 31.6876798,14.1094235 L28.0133396,12.2478927 C27.8173835,12.1465576 27.5819693,12.1465576 27.3860132,12.2478927 L23.7042048,14.0589168 C23.4698985,14.1810341 23.1833658,14.1597291 22.9711596,14.0044116 C22.7589534,13.8490941 22.6601572,13.5883701 22.7184063,13.3373933 L23.4204143,9.41952035 C23.4558559,9.20811768 23.3835527,8.99318132 23.2262419,8.8423015 L20.2389734,6.05000534 C20.0545421,5.87488656 19.9889584,5.61381869 20.0697806,5.37650198 C20.1506028,5.13918527 20.3638244,4.96674638 20.6198502,4.93164383 L24.7348125,4.36885546 C24.9555798,4.33749921 25.1458476,4.20233472 25.2426481,4.00809368 L27.0798182,0.400475897 C27.1868389,0.156398377 27.4352719,-0.00156608577 27.7096341,0 C27.9839963,0.00158950906 28.2304653,0.162400047 28.334471,0.407691133 L28.334471,0.407691133 Z" id="Path" fill="url(#linearGradient-24)"></path>
                        <path d="M8.26810922,7.47583603 L10.1052914,11.0892642 C10.2059991,11.284068 10.3992605,11.4190355 10.6227019,11.450607 L14.7394898,12.0287555 C14.9954562,12.0630636 15.2086181,12.2352306 15.288423,12.472119 C15.3682279,12.7090073 15.300661,12.9690159 15.1144249,13.1416914 L12.1674347,15.9529384 C12.0094807,16.1040613 11.936882,16.3193438 11.9724684,16.5310869 L12.6773465,20.4841773 C12.7358337,20.7355584 12.6366336,20.9967023 12.4235598,21.15227 C12.210486,21.3078376 11.922782,21.3291769 11.6875177,21.206863 L8.00565462,19.342334 C7.80624425,19.2408288 7.56767524,19.2408288 7.36826487,19.342334 L3.68640177,21.156275 C3.45113748,21.2785889 3.16343345,21.2572496 2.95035968,21.101682 C2.73728592,20.9461143 2.63808581,20.6849704 2.696573,20.4335893 L3.40145107,16.480499 C3.43703747,16.2687558 3.36443877,16.0534733 3.20648479,15.9023505 L0.207003651,13.0983302 C0.0207676206,12.9256547 -0.0467993736,12.6656462 0.0330055521,12.4287579 C0.112810478,12.1918695 0.3259724,12.0197025 0.581938794,11.9853943 L4.69872666,11.4072458 C4.92145371,11.3783393 5.11360321,11.2421748 5.20863845,11.045903 L7.05331935,7.43247489 C7.17826248,7.21664175 7.4182185,7.08654325 7.67449017,7.0956907 C7.93076184,7.10483815 8.16007471,7.25168691 8.26810922,7.47583603 Z" id="Path" fill="url(#linearGradient-25)"></path>
                        <path d="M47.1672636,7.49974426 L49.0083403,11.1080508 C49.1053466,11.302329 49.296019,11.4375193 49.5172557,11.4688815 L53.633484,12.0462105 C53.8889502,12.08047 54.1016957,12.252393 54.1813447,12.4889456 C54.2609936,12.7254982 54.1935587,12.9851382 54.0076865,13.157569 L51.0215501,15.9648315 C50.8589489,16.1129778 50.7832342,16.3293013 50.8194807,16.5421605 L51.5229815,20.4896479 C51.5790482,20.7386268 51.4807087,20.9964075 51.2706848,21.151002 C51.060661,21.3055965 50.7768588,21.3291029 50.5425708,21.2113092 L46.8604175,19.349423 C46.6640448,19.2480686 46.42813,19.2480686 46.2317572,19.349423 L42.5720561,21.1607929 C42.3372515,21.2829335 42.0501096,21.2616245 41.8374522,21.1062773 C41.6247947,20.9509301 41.5257885,20.6901563 41.5841614,20.4391316 L42.2876622,16.4916442 C42.3231791,16.2802012 42.2507222,16.0652238 42.0930769,15.9143152 L39.0994563,13.1142693 C38.9135842,12.9418385 38.8461492,12.6821985 38.9257982,12.4456459 C39.0054472,12.2090934 39.2181926,12.0371703 39.4736589,12.0029109 L43.5898871,11.4255818 C43.8111239,11.3942196 44.0017962,11.2590293 44.0988026,11.0647511 L45.9398792,7.45644458 C46.0574759,7.22752181 46.3033226,7.08633451 46.5680809,7.09567465 C46.8328391,7.1050148 47.0673293,7.26314743 47.1672636,7.49974426 L47.1672636,7.49974426 Z" id="Path" fill="url(#linearGradient-26)"></path>
                    </g>
                </g>
                <g id="loss" transform="translate(0.000000, 96.000000)">
                    <g id="Group-5" transform="translate(10.356923, 0.000000)">
                        <path d="M73.8631238,61.2026054 L72.115755,60.3207618" id="Path"></path>
                        <path d="M69.9261061,69.1683498 L69.1140509,68.7602239" id="Path"></path>
                        <path d="M71.3907057,120.169521 L70.2233763,119.586484" id="Path"></path>
                        <path d="M68.7732777,125.460582 L68.2294907,125.190928" id="Path"></path>
                        <g id="자산-48">
                            <path d="M70.8284077,1.22307429 C68.0245199,-0.403913211 64.5699878,-0.403913211 61.7661,1.22307429 L32.8185,17.9817943 L4.5441,34.3892057 C1.72807707,36.0170123 -0.00559389647,39.0352078 -1.34962262e-05,42.3001543 L-1.34962262e-05,80.3195486 L6.76978947,97.5857143 L-1.34962262e-05,103.974326 L-1.34962262e-05,163.540646 C-1.34962262e-05,166.800944 1.73209289,169.813091 4.5441,171.438583 L19.9111846,180.364423 L31.9899462,182.003863 L28.8958154,185.568994 L61.7402077,204.643749 C64.5503876,206.246961 67.9923355,206.246961 70.8025154,204.643749 L128.037462,171.438583 C130.844485,169.809779 132.572236,166.798256 132.568621,163.540646 L132.568621,79.2396 L120.549677,76.1507582 L132.568621,66.2541943 L132.568621,42.3001543 C132.568621,39.0471917 130.840477,36.0417098 128.037462,34.4152286 L70.8284077,1.22307429 Z" id="Path" fill="url(#linearGradient-27)"></path>
                            <path d="M66.3102,11.7102857 L66.3102,0 C64.7196574,0.00450094351 63.1578159,0.426081892 61.7790462,1.22307429 L32.8573385,18.0078171 L4.56999231,34.4152286 C3.20963226,35.2160342 2.0806676,36.3596608 1.29461538,37.7331429 L10.4863846,44.0176629 L66.3102,11.7102857 Z" id="Path" fill="url(#linearGradient-28)" opacity="0.63"></path>
                            <polygon id="Path" fill="#AF7C4E" points="2.23785369 97.6247486 6.92852988 97.6247486 0 80.3195486"></polygon>
                            <polygon id="Path" fill="#FFFFFF" points="2.19816056 97.5857143 6.97782911 97.5857143 0 103.974326"></polygon>
                            <path d="M65.3910231,198.333206 L8.16902308,165.12804 C7.60603045,164.798352 7.25693864,164.19548 7.24984615,163.540646 L7.24984615,42.3001543 C7.2620022,41.6467334 7.60975467,41.0461741 8.16902308,40.71276 L37.6603615,23.58972 L48.4646533,21.5666114 L49.1953846,16.8783587 L65.3780769,7.50759429 C65.6674956,7.364748 65.9881021,7.29761821 66.3102,7.31242286 C66.6326327,7.31412146 66.9491946,7.39926233 67.2293769,7.55964 L124.438431,40.7517943 C124.97312,41.0854719 125.304193,41.6677712 125.318769,42.3001543 L125.318769,163.540646 C125.31693,164.196924 124.966429,164.802229 124.399592,165.12804 L67.2034846,198.333206 C66.9285977,198.481831 66.6222956,198.562139 66.3102,198.567423 C65.9890534,198.567423 65.6728453,198.487971 65.3910231,198.333206 Z" id="Path" fill="url(#linearGradient-29)"></path>
                            <path d="M7.24931297,42.3782229 L7.24931297,163.592691 C7.23368608,164.27071 7.58587577,164.903859 8.16902308,165.245143 L65.3651308,198.437297 C65.6436537,198.601699 65.961313,198.687135 66.2843077,198.684573 L66.2843077,7.31242286 C65.9637818,7.32307639 65.6515068,7.41723124 65.3780769,7.58566286 C26.6345538,30.3469886 7.25847692,41.9445086 7.24931297,42.3782229 Z" id="Path" fill="url(#linearGradient-30)" opacity="0.14"></path>
                            <path d="M66.3102,192.868406 L66.3102,205.879834 C67.9037322,205.879834 69.4697924,205.462726 70.8543,204.669771 L99.7760077,187.89804 L128.063354,171.490629 C129.437384,170.688718 130.579682,169.540661 131.377569,168.159703 L120.140308,161.653989 L66.3102,192.868406 Z" id="Path" fill="url(#linearGradient-31)"></path>
                            <path d="M124.438431,40.7908286 L67.2293769,7.59867429 C66.9516304,7.43241586 66.6334449,7.34558365 66.3102,7.35145714 C65.9872314,7.32423281 65.6633591,7.39204641 65.3780769,7.54662857 L49.1953846,16.6665658 L48.465642,21.5666114 L37.6733077,23.6157429 L8.16902308,40.7387829 C7.61157372,41.0740065 7.26446631,41.6734519 7.24984615,42.3261771 L7.24984615,163.566669 C7.25497876,164.225451 7.6039864,164.833118 8.16902308,165.167074 L65.3910231,198.359229 C65.6705873,198.519694 65.9883367,198.600657 66.3102,198.593879 C66.6231593,198.593879 66.9310528,198.514038 67.2034846,198.359229 L124.399592,165.167074 C124.968479,164.836972 125.318769,164.226874 125.318769,163.566669 L125.318769,42.3261771 C125.302216,41.697794 124.97109,41.1202954 124.438431,40.7908286 Z M120.140308,161.627966 L66.2972538,192.855394 L12.4283077,161.627966 L12.4283077,44.2388571 L66.2584154,13.0114286 L120.140308,44.2388571 L120.140308,161.627966 Z" id="Shape" fill="url(#linearGradient-32)" fill-rule="nonzero" opacity="0.69"></path>
                            <polygon id="Path" fill="#AF7C4E" points="28.8958154 185.568994 27.0186231 181.327269 31.9899462 182.003863"></polygon>
                            <polygon id="Path" fill="url(#linearGradient-33)" opacity="0.729445685" transform="translate(120.173121, 74.705127) rotate(-3.000000) translate(-120.173121, -74.705127) " points="115.364307 76.5081164 124.981935 71.8105641 124.682658 77.5996905"></polygon>
                            <polygon id="Path" fill="#AF7C4E" points="128.373404 73.9940114 119.751923 76.3228994 132.568615 66.2541943"></polygon>
                            <polygon id="Path" fill="#FFFFFF" points="132.568615 79.2396 128.350947 74.0122303 119.751923 76.3152808"></polygon>
                            <polygon id="Path" fill="url(#linearGradient-34)" points="37.6733077 23.6157429 47.9655 21.8244804 49.1953846 16.6665658 55.2778925 19.5036595 51.7846154 42.3303354 44.0169231 25.47004"></polygon>
                        </g>
                    </g>
                    <g id="Group-6-Copy" transform="translate(0.000000, 132.415429)">
                        <polygon id="Rectangle" fill="#000000" opacity="0.3" points="12.9461538 31.5285714 137.229231 31.5285714 137.229231 39.8274345 126.823893 45.8411429 26.7777095 45.8411429 15.4987075 39.3354286"></polygon>
                        <path d="M1.29461538,34.1308571 L150.175385,34.1308571 C150.175385,37.7238639 147.262677,40.6365714 143.66967,40.6365714 L7.80032967,40.6365714 C4.20732288,40.6365714 1.29461538,37.7238639 1.29461538,34.1308571 L1.29461538,34.1308571 L1.29461538,34.1308571 Z" id="Rectangle" fill="#AA3036"></path>
                        <g id="Rectangle">
                            <use fill="url(#linearGradient-35)" fill-rule="evenodd" xlink:href="#path-36"></use>
                            <use fill="black" fill-opacity="1" filter="url(#filter-37)" xlink:href="#path-36"></use>
                        </g>
                       
                    </g>
                </g>
                <g id="draw" transform="translate(340.000000, 96.000000)">
                    <g id="자산-49" transform="translate(10.592308, 0.000000)">
                        <path d="M73.4685661,60.6288679 L71.725463,59.7566038" id="Path"></path>
                        <path d="M127.698439,34.4349057 L70.6408656,1.22377358 C67.8444021,-0.40414415 64.3990169,-0.40414415 61.6025534,1.22377358 L4.53206796,34.4349057 C1.73150391,36.0590058 0.0036659369,39.06683 -3.93052354e-07,42.3243396 L-3.93052354e-07,163.634151 C-3.93052354e-07,166.896313 1.72750659,169.910183 4.53206796,171.536604 L61.5767296,204.760755 C64.3794686,206.364884 67.8123028,206.364884 70.6150418,204.760755 L127.698439,171.536604 C130.49803,169.906868 132.221206,166.893624 132.217601,163.634151 L132.217601,42.3243396 C132.217601,39.0695171 130.494033,36.0623168 127.698439,34.4349057 Z" id="Path" fill="#DDA758"></path>
                        <path d="M127.698439,34.4349057 L70.6408656,1.22377358 C67.8444021,-0.40414415 64.3990169,-0.40414415 61.6025534,1.22377358 L32.7316019,17.9920755 L4.53206796,34.4088679 C1.7235014,36.0376053 -0.00557908474,39.0575264 -1.34604904e-05,42.3243396 L-1.34604904e-05,163.634151 C-1.34604904e-05,166.896313 1.72750659,169.910183 4.53206796,171.536604 L61.5767296,204.760755 C64.3794686,206.364884 67.8123028,206.364884 70.6150418,204.760755 L127.698439,171.536604 C130.49803,169.906868 132.221206,166.893624 132.217601,163.634151 L132.217601,42.3243396 C132.217601,39.0695171 130.494033,36.0623168 127.698439,34.4349057 L127.698439,34.4349057 Z" id="Path" fill="url(#linearGradient-38)"></path>
                        <path d="M66.1346214,11.7169811 L66.1346214,0 C64.5482903,0.00450351695 62.9905843,0.426325506 61.6154653,1.22377358 L32.7703376,18.0181132 L4.55789171,34.4349057 C3.20113368,35.2361692 2.07515833,36.3804496 1.29118745,37.754717 L10.4586184,44.0428302 L66.1346214,11.7169811 Z" id="Path" fill="url(#linearGradient-39)" opacity="0.63"></path>
                        <path d="M66.1346214,194.202453 L66.1346214,205.919434 C67.7239342,205.919434 69.2858477,205.502087 70.6666893,204.708679 L99.511817,187.927358 L127.724263,171.510566 C129.094655,170.708197 130.233928,169.559484 131.029703,168.177736 L121.758977,161.863585 L66.1346214,194.202453 Z" id="Path" fill="url(#linearGradient-40)" opacity="0.69"></path>
                        <path d="M56.3086848,171.705849 L56.3086848,183.42283 C57.8939312,183.42283 59.4517121,183.005537 60.8278409,182.212075 L89.6729686,165.430755 L117.872503,149.066038 C119.242895,148.263669 120.382168,147.114956 121.177942,145.733208 L111.93304,139.458113 L56.3086848,171.705849 Z" id="Path" fill="url(#linearGradient-41)" opacity="0.76"></path>
                        <path d="M65.2178783,198.446604 L8.14739283,165.222453 C7.58589091,164.892577 7.23772345,164.28936 7.23064974,163.634151 L7.23064974,42.3243396 C7.2427736,41.6705451 7.58960528,41.0696424 8.14739283,40.7360377 L65.2049664,7.51188679 C65.4936188,7.36895883 65.8133763,7.30179066 66.1346214,7.31660377 C66.4562003,7.31830335 66.771924,7.4034929 67.0513645,7.56396226 L124.108938,40.7750943 C124.642211,41.1089628 124.972408,41.6915949 124.986945,42.3243396 L124.986945,163.634151 C124.985111,164.290804 124.635538,164.896456 124.070202,165.222453 L67.0255407,198.446604 C66.7513816,198.595314 66.4458906,198.675668 66.1346214,198.680955 C65.8143251,198.680955 65.4989543,198.601458 65.2178783,198.446604 Z" id="Path" fill="url(#linearGradient-42)"></path>
                        <path d="M69.5304444,68.609434 L68.7299081,68.1928302" id="Path"></path>
                        <path d="M71.0153099,119.630377 L69.8403294,119.057547" id="Path"></path>
                        <path d="M68.432935,124.981132 L67.8906363,124.707736" id="Path"></path>
                        <path d="M132.217595,42.3373585 L132.217595,74.129434" id="Path"></path>
                        <path d="M7.23011797,42.4024528 L7.23011797,163.686226 C7.21453246,164.364633 7.56578961,164.998144 8.14739283,165.339623 L65.1920545,198.550755 C65.46984,198.71525 65.7866582,198.800735 66.1087976,198.798172 L66.1087976,7.31660377 C65.7891204,7.3272634 65.4776723,7.42147208 65.2049664,7.59 C26.5640299,30.3643396 7.23925765,41.9684906 7.23011797,42.4024528 Z" id="Path" fill="url(#linearGradient-43)" opacity="0.14"></path>
                        <path d="M124.986945,42.3113208 C124.972408,41.6785761 124.642211,41.0959439 124.108938,40.7620755 L67.0513645,7.5509434 C66.771924,7.39047403 66.4562003,7.30528448 66.1346214,7.30358491 C65.8133763,7.28877179 65.4936188,7.35593997 65.2049664,7.49886792 L46.4827483,18.434717 L37.6122905,23.6422642 L8.14739283,40.7230189 C7.58960528,41.0566236 7.2427736,41.6575263 7.23064974,42.3113208 L7.23064974,163.621132 C7.23772345,164.276341 7.58589091,164.879558 8.14739283,165.209434 L65.2178783,198.433585 C65.4989543,198.588439 65.8143251,198.667936 66.1346214,198.667936 C66.4458906,198.662649 66.7513816,198.582295 67.0255407,198.433585 L124.070202,165.209434 C124.635538,164.883437 124.985111,164.277786 124.986945,163.621132 L124.986945,42.3113208 Z M119.822196,161.681321 L66.1217095,192.926604 L12.3953996,161.681321 L12.3953996,44.2641509 L66.0829739,13.0188679 L119.822196,44.2641509 L119.822196,161.681321 Z" id="Shape" fill="url(#linearGradient-44)" fill-rule="nonzero"></path>
                    </g>
                    <g id="Group-6-Copy" transform="translate(0.000000, 132.297143)">
                        <polygon id="Rectangle" fill="#000000" opacity="0.3" points="12.9461538 31.5285714 137.229231 31.5285714 137.229231 39.8274345 126.823893 45.8411429 26.7777095 45.8411429 15.4987075 39.3354286"></polygon>
                        <path d="M1.29461538,34.1308571 L150.175385,34.1308571 C150.175385,37.7238639 147.262677,40.6365714 143.66967,40.6365714 L7.80032967,40.6365714 C4.20732288,40.6365714 1.29461538,37.7238639 1.29461538,34.1308571 L1.29461538,34.1308571 L1.29461538,34.1308571 Z" id="Rectangle" fill="#354CBC"></path>
                        <g id="Rectangle">
                            <use fill="url(#linearGradient-45)" fill-rule="evenodd" xlink:href="#path-46"></use>
                            <use fill="black" fill-opacity="1" filter="url(#filter-47)" xlink:href="#path-46"></use>
                        </g>
                        
                    </g>
                </g>
            </g>
        </g>
    </g>
</svg>