<?xml version="1.0" encoding="UTF-8"?>
<svg width="25px" height="25px" viewBox="0 0 25 25" version="1.1" xmlns="http://www.w3.org/2000/svg" xmlns:xlink="http://www.w3.org/1999/xlink">
    <!-- Generator: Sketch 58 (84663) - https://sketch.com -->
    <title>slt copy 13</title>
    <desc>Created with Sketch.</desc>
    <g id="Page-1" stroke="none" stroke-width="1" fill="none" fill-rule="evenodd">
        <g id="mainpage_home" transform="translate(-632.000000, -25.000000)">
            <g id="slt" transform="translate(632.000000, 25.000000)">
                <g id="Group">
                    <circle id="Oval-Copy-26" fill="#A86DFF" cx="12.5" cy="12.5" r="12.5"></circle>
                    <polygon id="Combined-Shape-Copy-4" fill="#FFFFFF" points="12.5 1.38888889 22.2222222 6.94444444 22.2222222 18.0555556 12.5 23.6111111 2.77777778 18.0555556 2.77777778 6.94444444"></polygon>
                    <path d="M12.5,1.38888889 L22.2222222,6.94444444 L22.2222222,18.0555556 L12.5,23.6111111 L2.77777778,18.0555556 L2.77777778,6.94444444 L12.5,1.38888889 Z M12.4989503,3.56891702 L4.68425269,8.03445851 L4.68425269,10.109917 L13.5808955,15.242616 L11.0905716,16.6490858 L4.68425269,12.992917 L4.68425269,16.9655415 L12.4989503,21.431083 L20.3136479,16.9655415 L20.3132527,14.950917 L11.4331666,9.82770745 L13.9234905,8.42123769 L20.3132527,12.067917 L20.3136479,8.03445851 L12.4989503,3.56891702 Z" id="Combined-Shape-Copy-4" fill="#3D285E"></path>
                </g>
            </g>
        </g>
    </g>
</svg>