<?xml version="1.0" encoding="UTF-8"?>
<svg width="30px" height="22px" viewBox="0 0 30 22" version="1.1" xmlns="http://www.w3.org/2000/svg" xmlns:xlink="http://www.w3.org/1999/xlink">
    <!-- Generator: Sketch 58 (84663) - https://sketch.com -->
    <title>자산 42 copy 2</title>
    <desc>Created with Sketch.</desc>
    <g id="Page-1" stroke="none" stroke-width="1" fill="none" fill-rule="evenodd">
        <g id="mainpage_home" transform="translate(-340.000000, -84.000000)">
            <g id="Group-13" transform="translate(302.000000, 64.000000)">
                <g id="자산-42-copy-2" transform="translate(38.000000, 20.000000)">
                    <polygon id="Path" fill="#B3B8CE" points="15.4198686 10.4264533 14.1925287 8.27777778 12.9642857 10.4264533 10.6071429 11.234127 12.9642857 12.0428981 14.1925287 14.1904762 15.4198686 12.0428981 17.6785714 11.234127"></polygon>
                    <polygon id="Path" fill="#EAE3DF" opacity="0.5" style="mix-blend-mode: overlay;" points="15.3214286 8.27777778 13.7064592 9.99671816 10.6071429 10.6428571 15.3214286 10.6428571"></polygon>
                    <polygon id="Path" fill="#EAE3DF" opacity="0.5" style="mix-blend-mode: overlay;" points="15.3214286 8.27777778 16.5662565 9.99671816 18.8571429 10.6428571 15.3214286 10.6428571"></polygon>
                    <polygon id="Path" fill="#EAE3DF" opacity="0.5" style="mix-blend-mode: overlay;" points="15.3214286 13.0079365 16.5662565 11.289874 18.8571429 10.6428571 15.3214286 10.6428571"></polygon>
                    <polygon id="Path" fill="#EAE3DF" opacity="0.5" style="mix-blend-mode: overlay;" points="15.507819 10.3197877 14.7321429 9.46031746 13.9564667 10.3197877 11.7857143 10.6428571 13.9564667 10.9668045 14.7321429 11.8253968 15.507819 10.9668045 17.6785714 10.6428571"></polygon>
                    <polygon id="Path" fill="#EAE3DF" opacity="0.5" style="mix-blend-mode: overlay;" points="15.4198686 10.4264533 14.1925287 8.27777778 12.9642857 10.4264533 10.6071429 11.234127 12.9642857 12.0428981 14.1925287 14.1904762 15.4198686 12.0428981 17.6785714 11.234127"></polygon>
                    <polygon id="Path" fill="#EAE3DF" opacity="0.5" style="mix-blend-mode: overlay;" points="17.1218608 9.02676772 14.2575368 4.73015873 11.3932127 9.02676772 5.89285714 10.6423016 11.3932127 12.2589466 14.2575368 16.5555556 17.1218608 12.2589466 22.3928571 10.6423016"></polygon>
                    <polygon id="Path" fill="#EAE3DF" opacity="0.5" style="mix-blend-mode: overlay;" points="18.7757378 8.3800888 14.8880393 2.36507937 11.0003408 8.3800888 3.53571429 10.6428571 11.0003408 12.9056255 14.8880393 18.9206349 18.7757378 12.9056255 25.9285714 10.6428571"></polygon>
                    <polygon id="Path" fill="#EAE3DF" opacity="0.5" style="mix-blend-mode: overlay;" points="20.0520691 7.73339607 14.9370913 0 9.82108613 7.73339607 0 10.6423179 9.82108613 13.5512396 14.9370913 21.2857143 20.0520691 13.5512396 29.4642857 10.6423179"></polygon>
                    <polygon id="Path" fill="#EAE3DF" opacity="0.5" style="mix-blend-mode: overlay;" points="16.2707923 10.1024113 14.2241889 7.0952381 12.1785714 10.1024113 8.25 11.2336238 12.1785714 12.3648362 14.2241889 15.3730159 16.2707923 12.3648362 20.0357143 11.2336238"></polygon>
                </g>
            </g>
        </g>
    </g>
</svg>