<?xml version="1.0" encoding="UTF-8"?>
<svg width="342px" height="110px" viewBox="0 0 342 110" version="1.1" xmlns="http://www.w3.org/2000/svg" xmlns:xlink="http://www.w3.org/1999/xlink">
    <!-- Generator: Sketch 58 (84663) - https://sketch.com -->
    <title>Group 3</title>
    <desc>Created with Sketch.</desc>
    <defs>
        <linearGradient x1="50.0041646%" y1="0.715745133%" x2="50.0041646%" y2="99.9708673%" id="linearGradient-1">
            <stop stop-color="#8955E8" offset="0%"></stop>
            <stop stop-color="#5D38D4" offset="50.15%"></stop>
            <stop stop-color="#4B2CAE" offset="100%"></stop>
        </linearGradient>
        <linearGradient x1="49.9605627%" y1="46.5277167%" x2="50.116483%" y2="53.4971866%" id="linearGradient-2">
            <stop stop-color="#8955E8" offset="0%"></stop>
            <stop stop-color="#5D38D4" offset="50.15%"></stop>
            <stop stop-color="#4B2CAE" offset="100%"></stop>
        </linearGradient>
    </defs>
    <g id="Page-1" stroke="none" stroke-width="1" fill="none" fill-rule="evenodd">
        <g id="-mainpage_svg-image" transform="translate(-175.000000, -1720.000000)">
            <g id="Group-3" transform="translate(175.000000, 1720.000000)">
                <g id="btn_tap_l-copy" transform="translate(0.000000, 55.000000)">
                    <path d="M341.268884,27.5131579 L341.268884,24.8427632 L339.400475,24.8427632 L330.952019,9.06315789 C329.977197,7.28289474 328.271259,6.23092105 326.40285,6.23092105 L202.35677,6.23092105 L185.216152,6.23092105 C183.510214,6.23092105 181.966746,7.28289474 181.3981,8.90131579 L167.506888,47.5006579 L165.719715,47.5006579 L165.719715,53.1651316 L165.80095,53.1651316 C165.96342,53.8934211 166.613302,54.3789474 167.344418,54.3789474 L202.438005,54.3789474 L326.565321,54.3789474 C328.433729,54.3789474 330.220903,53.3269737 331.114489,51.5467105 L340.943943,33.2585526 C341.187648,32.8539474 341.350119,32.3684211 341.431354,31.9638158 L341.431354,28.6460526 L341.431354,27.5131579 L341.268884,27.5131579 Z" id="Path" fill="#C6ADDF"></path>
                    <path d="M176.36152,2.83223684 L176.36152,1.78026316 L143.867458,1.78026316 L143.867458,5.82631579 L139.805701,5.82631579 L15.75962,5.82631579 C13.8912114,5.82631579 12.1852732,6.87828947 11.2104513,8.65855263 L2.76199525,24.4381579 L0.73111639,24.4381579 L0.73111639,29.9407895 L0.73111639,29.9407895 L0.73111639,30.9118421 L0.812351544,30.9118421 C0.893586698,31.5592105 1.13729216,32.2065789 1.46223278,32.8539474 L11.2916865,51.1421053 C12.2665083,52.9223684 13.9724466,53.9743421 15.8408551,53.9743421 L139.886936,53.9743421 L157.027553,53.9743421 C158.733492,53.9743421 160.27696,52.9223684 160.845606,51.3039474 L176.36152,8.09210526 L176.36152,6.87828947 L176.36152,2.83223684 Z" id="Path" fill="#C6ADDF"></path>
                    <path d="M167.263183,47.3388158 L326.24038,47.3388158 C327.621378,47.3388158 329.002375,46.5296053 329.733492,45.1539474 L339.48171,26.8657895 C340.294062,25.4092105 340.294062,23.5480263 339.48171,22.0914474 L329.733492,3.80328947 C328.92114,2.42763158 327.621378,1.61842105 326.24038,1.61842105 L185.134917,1.61842105 C183.91639,1.61842105 182.860333,2.34671053 182.454157,3.47960526 L166.857007,46.7723684 C166.857007,46.8532895 166.857007,46.8532895 166.857007,46.9342105 C166.857007,47.1769737 167.019477,47.3388158 167.263183,47.3388158 Z" id="Path" fill="url(#linearGradient-1)"></path>
                    <path d="M174.736817,1.61842105 L15.75962,1.61842105 C14.3786223,1.61842105 12.9976247,2.42763158 12.2665083,3.80328947 L2.51828979,22.0914474 C1.70593824,23.5480263 1.70593824,25.4092105 2.51828979,26.8657895 L12.2665083,45.1539474 C12.9976247,46.5296053 14.3786223,47.3388158 15.75962,47.3388158 L156.865083,47.3388158 C158.08361,47.3388158 159.139667,46.6105263 159.545843,45.4776316 L175.142993,2.18486842 C175.142993,2.10394737 175.142993,2.10394737 175.142993,2.02302632 C175.142993,1.78026316 174.980523,1.61842105 174.736817,1.61842105 Z" id="Path" fill="#45319C"></path>
                    <path d="M326.24038,48.5526316 L167.263183,48.5526316 C166.369596,48.5526316 165.63848,47.8243421 165.63848,46.9342105 C165.63848,46.7723684 165.63848,46.5296053 165.719715,46.3677632 L181.316865,3.075 C181.885511,1.45657895 183.428979,0.404605263 185.134917,0.404605263 L326.24038,0.404605263 C328.108789,0.404605263 329.895962,1.5375 330.789549,3.23684211 L340.537767,21.525 C341.512589,23.3052632 341.512589,25.5710526 340.537767,27.4322368 L330.789549,45.7203947 C329.814727,47.4197368 328.108789,48.5526316 326.24038,48.5526316 Z M168.400475,46.125 L326.24038,46.125 C327.215202,46.125 328.108789,45.5585526 328.677435,44.5065789 L338.425653,26.2184211 C338.994299,25.0855263 338.994299,23.7098684 338.425653,22.6578947 L328.677435,4.36973684 C328.190024,3.39868421 327.215202,2.75131579 326.24038,2.75131579 L185.134917,2.75131579 C184.485036,2.75131579 183.835154,3.15592105 183.591449,3.80328947 L168.400475,46.125 Z" id="Shape" fill="#E7D6FF" fill-rule="nonzero"></path>
                    <path d="M156.865083,48.5526316 L15.75962,48.5526316 C13.8912114,48.5526316 12.104038,47.4197368 11.2104513,45.7203947 L1.46223278,27.4322368 C0.487410926,25.6519737 0.487410926,23.3861842 1.46223278,21.525 L11.2104513,3.23684211 C12.1852732,1.45657895 13.8912114,0.404605263 15.75962,0.404605263 L174.736817,0.404605263 C175.630404,0.404605263 176.36152,1.13289474 176.36152,2.02302632 C176.36152,2.18486842 176.36152,2.42763158 176.280285,2.58947368 L160.683135,45.8822368 C160.114489,47.5006579 158.571021,48.5526316 156.865083,48.5526316 Z M15.75962,2.83223684 C14.7847981,2.83223684 13.8912114,3.39868421 13.3225653,4.45065789 L3.57434679,22.6578947 C3.00570071,23.7907895 3.00570071,25.1664474 3.57434679,26.2184211 L13.3225653,44.5065789 C13.8099762,45.4776316 14.7847981,46.125 15.75962,46.125 L156.865083,46.125 C157.514964,46.125 158.164846,45.7203947 158.408551,45.0730263 L173.599525,2.83223684 L15.75962,2.83223684 Z" id="Shape" fill="#E7D6FF" fill-rule="nonzero"></path>
                </g>
                <g id="btn_tap_r-copy">
                    <path d="M341.268884,27.5131579 L341.268884,24.8427632 L339.400475,24.8427632 L330.952019,9.06315789 C329.977197,7.28289474 328.271259,6.23092105 326.40285,6.23092105 L202.35677,6.23092105 L185.216152,6.23092105 C183.510214,6.23092105 181.966746,7.28289474 181.3981,8.90131579 L167.506888,47.5006579 L165.719715,47.5006579 L165.719715,53.1651316 L165.80095,53.1651316 C165.96342,53.8934211 166.613302,54.3789474 167.344418,54.3789474 L202.438005,54.3789474 L326.565321,54.3789474 C328.433729,54.3789474 330.220903,53.3269737 331.114489,51.5467105 L340.943943,33.2585526 C341.187648,32.8539474 341.350119,32.3684211 341.431354,31.9638158 L341.431354,28.6460526 L341.431354,27.5131579 L341.268884,27.5131579 Z" id="Path" fill="#C6ADDF"></path>
                    <path d="M176.36152,2.83223684 L176.36152,1.78026316 L143.867458,1.78026316 L143.867458,5.82631579 L139.805701,5.82631579 L15.75962,5.82631579 C13.8912114,5.82631579 12.1852732,6.87828947 11.2104513,8.65855263 L2.76199525,24.4381579 L0.73111639,24.4381579 L0.73111639,29.9407895 L0.73111639,29.9407895 L0.73111639,30.9118421 L0.812351544,30.9118421 C0.893586698,31.5592105 1.13729216,32.2065789 1.46223278,32.8539474 L11.2916865,51.1421053 C12.2665083,52.9223684 13.9724466,53.9743421 15.8408551,53.9743421 L139.886936,53.9743421 L157.027553,53.9743421 C158.733492,53.9743421 160.27696,52.9223684 160.845606,51.3039474 L176.36152,8.09210526 L176.36152,6.87828947 L176.36152,2.83223684 Z" id="Path" fill="#C6ADDF"></path>
                    <path d="M167.263183,47.3388158 L326.24038,47.3388158 C327.621378,47.3388158 329.002375,46.5296053 329.733492,45.1539474 L339.48171,26.8657895 C340.294062,25.4092105 340.294062,23.5480263 339.48171,22.0914474 L329.733492,3.80328947 C328.92114,2.42763158 327.621378,1.61842105 326.24038,1.61842105 L185.134917,1.61842105 C183.91639,1.61842105 182.860333,2.34671053 182.454157,3.47960526 L166.857007,46.7723684 C166.857007,46.8532895 166.857007,46.8532895 166.857007,46.9342105 C166.857007,47.1769737 167.019477,47.3388158 167.263183,47.3388158 Z" id="Path" fill="#45319C"></path>
                    <path d="M174.736817,1.61842105 L15.75962,1.61842105 C14.3786223,1.61842105 12.9976247,2.42763158 12.2665083,3.80328947 L2.51828979,22.0914474 C1.70593824,23.5480263 1.70593824,25.4092105 2.51828979,26.8657895 L12.2665083,45.1539474 C12.9976247,46.5296053 14.3786223,47.3388158 15.75962,47.3388158 L156.865083,47.3388158 C158.08361,47.3388158 159.139667,46.6105263 159.545843,45.4776316 L175.142993,2.18486842 C175.142993,2.10394737 175.142993,2.10394737 175.142993,2.02302632 C175.142993,1.78026316 174.980523,1.61842105 174.736817,1.61842105 Z" id="Path" fill="url(#linearGradient-2)"></path>
                    <path d="M326.24038,48.5526316 L167.263183,48.5526316 C166.369596,48.5526316 165.63848,47.8243421 165.63848,46.9342105 C165.63848,46.7723684 165.63848,46.5296053 165.719715,46.3677632 L181.316865,3.075 C181.885511,1.45657895 183.428979,0.404605263 185.134917,0.404605263 L326.24038,0.404605263 C328.108789,0.404605263 329.895962,1.5375 330.789549,3.23684211 L340.537767,21.525 C341.512589,23.3052632 341.512589,25.5710526 340.537767,27.4322368 L330.789549,45.7203947 C329.814727,47.4197368 328.108789,48.5526316 326.24038,48.5526316 Z M168.400475,46.125 L326.24038,46.125 C327.215202,46.125 328.108789,45.5585526 328.677435,44.5065789 L338.425653,26.2184211 C338.994299,25.0855263 338.994299,23.7098684 338.425653,22.6578947 L328.677435,4.36973684 C328.190024,3.39868421 327.215202,2.75131579 326.24038,2.75131579 L185.134917,2.75131579 C184.485036,2.75131579 183.835154,3.15592105 183.591449,3.80328947 L168.400475,46.125 Z" id="Shape" fill="#E7D6FF" fill-rule="nonzero"></path>
                    <path d="M156.865083,48.5526316 L15.75962,48.5526316 C13.8912114,48.5526316 12.104038,47.4197368 11.2104513,45.7203947 L1.46223278,27.4322368 C0.487410926,25.6519737 0.487410926,23.3861842 1.46223278,21.525 L11.2104513,3.23684211 C12.1852732,1.45657895 13.8912114,0.404605263 15.75962,0.404605263 L174.736817,0.404605263 C175.630404,0.404605263 176.36152,1.13289474 176.36152,2.02302632 C176.36152,2.18486842 176.36152,2.42763158 176.280285,2.58947368 L160.683135,45.8822368 C160.114489,47.5006579 158.571021,48.5526316 156.865083,48.5526316 Z M15.75962,2.83223684 C14.7847981,2.83223684 13.8912114,3.39868421 13.3225653,4.45065789 L3.57434679,22.6578947 C3.00570071,23.7907895 3.00570071,25.1664474 3.57434679,26.2184211 L13.3225653,44.5065789 C13.8099762,45.4776316 14.7847981,46.125 15.75962,46.125 L156.865083,46.125 C157.514964,46.125 158.164846,45.7203947 158.408551,45.0730263 L173.599525,2.83223684 L15.75962,2.83223684 Z" id="Shape" fill="#E7D6FF" fill-rule="nonzero"></path>
                </g>
            </g>
        </g>
    </g>
</svg>