<?xml version="1.0" encoding="UTF-8"?>
<svg width="33px" height="37px" viewBox="0 0 33 37" version="1.1" xmlns="http://www.w3.org/2000/svg" xmlns:xlink="http://www.w3.org/1999/xlink">
    <!-- Generator: Sketch 58 (84663) - https://sketch.com -->
    <title>Group 16</title>
    <desc>Created with Sketch.</desc>
    <g id="Page-1" stroke="none" stroke-width="1" fill="none" fill-rule="evenodd">
        <g id="mainpage_history_replay" transform="translate(-328.000000, -629.000000)">
            <g id="Group-16" transform="translate(328.000000, 629.000000)">
                <path d="M0,22.3355778 C0,24.1604554 0.746819372,25.8489394 1.9628089,26.7730611 L14.4862225,36.2913129 C15.7295105,37.236229 17.2704895,37.236229 18.5137775,36.2913129 L31.0371911,26.7730611 C32.2531806,25.8489394 33,24.1604554 33,22.3355778 L33,14.6644222 C33,12.8395446 32.2531806,11.1510606 31.0371911,10.2269389 L18.5137775,0.708687055 C17.2704895,-0.236229018 15.7295105,-0.236229018 14.4862225,0.708687055 L1.9628089,10.2269389 C0.746819372,11.1510606 0,12.8395446 0,14.6644222 L0,22.3355778 Z" id="Fill-1" fill="#180E4B" opacity="0.5"></path>
                <path d="M10.625,27 L8.63,10.2 L10.73,10.2 L11.759,19.314 L12.158,25.194 L13.019,25.194 L13.439,19.314 L14.447,10.2 L16.568,10.2 L14.552,27 L10.625,27 Z M21.965,27.168 C20.7329938,27.168 19.8405028,26.9195025 19.2875,26.4225 C18.7344972,25.9254975 18.4370002,25.0960058 18.395,23.934 C18.3669999,23.4019973 18.3565,22.8945024 18.3635,22.4115 C18.3705,21.9284976 18.3949998,21.4140027 18.437,20.868 L20.369,20.868 C20.3409999,21.470003 20.3235,22.0474972 20.3165,22.6005 C20.3095,23.1535028 20.3269998,23.6959973 20.369,24.228 C20.3970001,24.6760022 20.5334988,24.9909991 20.7785,25.173 C21.0235012,25.3550009 21.4189973,25.446 21.965,25.446 C22.4830026,25.446 22.8609988,25.3550009 23.099,25.173 C23.3370012,24.9909991 23.4699999,24.6760022 23.498,24.228 C23.5400002,23.7939978 23.5575,23.3285025 23.5505,22.8315 C23.54525,22.4587481 23.5340938,22.103719 23.5170313,21.7664068 L23.498,21.435 C23.4839999,20.9449976 23.3685011,20.5635014 23.1515,20.2905 C22.9344989,20.0174986 22.6090022,19.8250006 22.175,19.713 L20.81,19.398 C19.8859954,19.1739989 19.2490017,18.7855028 18.899,18.2325 C18.5489982,17.6794972 18.3600001,16.8780053 18.332,15.828 L18.332,14.5575 C18.332,14.1304979 18.3389999,13.6930022 18.353,13.245 C18.3950002,12.0969943 18.6924972,11.2745025 19.2455,10.7775 C19.7985028,10.2804975 20.7049937,10.032 21.965,10.032 C23.169006,10.032 24.0439973,10.2804975 24.59,10.7775 C25.1360027,11.2745025 25.4299998,12.1039942 25.472,13.266 C25.4860001,13.672002 25.4895,14.1234975 25.4825,14.6205 C25.4755,15.1175025 25.4650001,15.6249974 25.451,16.143 L23.477,16.143 C23.5050001,15.540997 23.519,14.9845026 23.519,14.4735 C23.519,13.9624974 23.5120001,13.4550025 23.498,12.951 C23.4839999,12.5169978 23.3545012,12.2090009 23.1095,12.027 C22.8644988,11.8449991 22.4760027,11.754 21.944,11.754 C21.4259974,11.754 21.0445012,11.8449991 20.7995,12.027 C20.5544988,12.2090009 20.4180001,12.5169978 20.39,12.951 C20.3619999,13.4410025 20.348,13.9204977 20.348,14.3895 C20.348,14.7021682 20.3542222,15.0195 20.3666666,15.3414994 L20.39,15.828 C20.4040001,16.3600027 20.4879992,16.7589987 20.642,17.025 C20.7960008,17.2910013 21.0619981,17.4729995 21.44,17.571 L22.7,17.844 C23.7360052,18.0680011 24.4604979,18.4634972 24.8735,19.0305 C25.2865021,19.5975028 25.5139998,20.3989948 25.556,21.435 C25.57,21.827002 25.5735,22.2434978 25.5665,22.6845 C25.5595,23.1255022 25.5490001,23.541998 25.535,23.934 C25.4929998,25.0960058 25.1955028,25.9254975 24.6425,26.4225 C24.0894972,26.9195025 23.1970062,27.168 21.965,27.168 Z" id="VS" fill="#DDA9FF" fill-rule="nonzero"></path>
            </g>
        </g>
    </g>
</svg>