<?xml version="1.0" encoding="UTF-8"?>
<svg width="37px" height="42px" viewBox="0 0 37 42" version="1.1" xmlns="http://www.w3.org/2000/svg" xmlns:xlink="http://www.w3.org/1999/xlink">
    <!-- Generator: Sketch 58 (84663) - https://sketch.com -->
    <title>Group 10</title>
    <desc>Created with Sketch.</desc>
    <g id="Page-1" stroke="none" stroke-width="1" fill="none" fill-rule="evenodd">
        <g id="popup_wait" transform="translate(-366.000000, -607.000000)">
            <g id="Group-22" transform="translate(366.000000, 607.000000)">
                <g id="Group-10">
                    <path d="M0,25.3538991 C0,27.4253818 0.837342932,29.3420394 2.20072513,30.3910423 L16.2421283,41.1955444 C17.6361178,42.2681519 19.3638822,42.2681519 20.7578717,41.1955444 L34.7992749,30.3910423 C36.1626571,29.3420394 37,27.4253818 37,25.3538991 L37,16.6461009 C37,14.5746182 36.1626571,12.6579606 34.7992749,11.6089577 L20.7578717,0.804455576 C19.3638822,-0.268151859 17.6361178,-0.268151859 16.2421283,0.804455576 L2.20072513,11.6089577 C0.837342932,12.6579606 0,14.5746182 0,16.6461009 L0,25.3538991 Z" id="Fill-1" fill="#180E4B" opacity="0.5"></path>
                    <path d="M11.7695,30 L9.7745,13.2 L11.8745,13.2 L12.9035,22.314 L13.3025,28.194 L14.1635,28.194 L14.5835,22.314 L15.5915,13.2 L17.7125,13.2 L15.6965,30 L11.7695,30 Z M23.1095,30.168 C21.8774938,30.168 20.9850028,29.9195025 20.432,29.4225 C19.8789972,28.9254975 19.5815002,28.0960058 19.5395,26.934 C19.5114999,26.4019973 19.501,25.8945024 19.508,25.4115 C19.515,24.9284976 19.5394998,24.4140027 19.5815,23.868 L21.5135,23.868 C21.4854999,24.470003 21.468,25.0474972 21.461,25.6005 C21.454,26.1535028 21.4714998,26.6959973 21.5135,27.228 C21.5415001,27.6760022 21.6779988,27.9909991 21.923,28.173 C22.1680012,28.3550009 22.5634973,28.446 23.1095,28.446 C23.6275026,28.446 24.0054988,28.3550009 24.2435,28.173 C24.451751,28.0137492 24.5796095,27.7526734 24.6270781,27.3897662 L24.6425,27.228 C24.6845002,26.7939978 24.702,26.3285025 24.695,25.8315 C24.68975,25.4587481 24.6785938,25.103719 24.6615313,24.7664068 L24.6425,24.435 C24.6284999,23.9449976 24.5130011,23.5635014 24.296,23.2905 C24.0789989,23.0174986 23.7535022,22.8250006 23.3195,22.713 L21.9545,22.398 C21.0304954,22.1739989 20.3935018,21.7855028 20.0435,21.2325 C19.6934983,20.6794972 19.5045001,19.8780053 19.4765,18.828 L19.4765,17.5575 C19.4765,17.1304979 19.4834999,16.6930022 19.4975,16.245 C19.5395002,15.0969943 19.8369972,14.2745025 20.39,13.7775 C20.9430028,13.2804975 21.8494937,13.032 23.1095,13.032 C24.313506,13.032 25.1884973,13.2804975 25.7345,13.7775 C26.2805027,14.2745025 26.5744998,15.1039942 26.6165,16.266 C26.6305001,16.672002 26.634,17.1234975 26.627,17.6205 L26.6083334,18.6284994 C26.6044445,18.7988325 26.6001667,18.9703325 26.5955,19.143 L24.6215,19.143 C24.6495001,18.540997 24.6635,17.9845026 24.6635,17.4735 C24.6635,16.9624974 24.6565001,16.4550025 24.6425,15.951 C24.6284999,15.5169978 24.4990012,15.2090009 24.254,15.027 C24.0089988,14.8449991 23.6205027,14.754 23.0885,14.754 C22.5704974,14.754 22.1890012,14.8449991 21.944,15.027 C21.6989988,15.2090009 21.5625001,15.5169978 21.5345,15.951 C21.5064999,16.4410025 21.4925,16.9204977 21.4925,17.3895 C21.4925,17.7021682 21.4987222,18.0195 21.5111666,18.3414994 L21.5345,18.828 C21.5485001,19.3600027 21.6324992,19.7589987 21.7865,20.025 C21.9405008,20.2910013 22.2064981,20.4729995 22.5845,20.571 L23.8445,20.844 C24.8805052,21.0680011 25.6049979,21.4634972 26.018,22.0305 C26.4310021,22.5975028 26.6584998,23.3989948 26.7005,24.435 C26.7145,24.827002 26.718,25.2434978 26.711,25.6845 L26.6923334,26.533833 C26.6884445,26.6699438 26.6841667,26.8033327 26.6795,26.934 C26.6374998,28.0960058 26.3400028,28.9254975 25.787,29.4225 C25.2339972,29.9195025 24.3415062,30.168 23.1095,30.168 Z" id="VS" fill="#FFFFFF" fill-rule="nonzero"></path>
                </g>
            </g>
        </g>
    </g>
</svg>